NotoSerifTamil-CondensedMedium.ufo
<glyph name="exclam" format="2">
  <advance width="303.8655172413793"/>
  <unicode hex="0021"/>
  <outline>
    <contour>
      <point x="129.93103448275863" y="205.18965517241378" type="line"/>
      <point x="173.21034482758623" y="205.18965517241378" type="line"/>
      <point x="211.7655172413793" y="714.0" type="line"/>
      <point x="91.37586206896553" y="714.0" type="line"/>
    </contour>
    <contour>
      <point x="152.10000000000002" y="-7.0827586206896544" type="curve" smooth="yes"/>
      <point x="183.76551724137934" y="-7.0827586206896544"/>
      <point x="211.36206896551727" y="9.151724137931033"/>
      <point x="211.36206896551727" y="59.834482758620695" type="curve" smooth="yes"/>
      <point x="211.36206896551727" y="110.62413793103448"/>
      <point x="183.76551724137934" y="126.75172413793102"/>
      <point x="152.10000000000002" y="126.75172413793102" type="curve" smooth="yes"/>
      <point x="118.65172413793104" y="126.75172413793102"/>
      <point x="92.83793103448276" y="110.62413793103448"/>
      <point x="92.83793103448276" y="59.834482758620695" type="curve" smooth="yes"/>
      <point x="92.83793103448276" y="9.151724137931033"/>
      <point x="118.65172413793104" y="-7.0827586206896544"/>
    </contour>
  </outline>
</glyph>
<glyph name="quotedbl" format="2">
  <advance width="386.92413793103447"/>
  <unicode hex="0022"/>
  <outline>
    <contour>
      <point x="259.81379310344823" y="472.50344827586207" type="line"/>
      <point x="306.67241379310343" y="472.50344827586207" type="line"/>
      <point x="333.85172413793106" y="714.0" type="line"/>
      <point x="224.77586206896552" y="714.0" type="line"/>
    </contour>
    <contour>
      <point x="84.33793103448276" y="472.50344827586207" type="line"/>
      <point x="130.6896551724138" y="472.50344827586207" type="line"/>
      <point x="162.148275862069" y="714.0" type="line"/>
      <point x="52.56551724137931" y="714.0" type="line"/>
    </contour>
  </outline>
</glyph>
<glyph name="numbersign" format="2">
  <advance width="480.3103448275862"/>
  <unicode hex="0023"/>
  <outline>
    <contour>
      <point x="56.375862068965525" y="0.0" type="line"/>
      <point x="116.29655172413794" y="0.0" type="line"/>
      <point x="154.99655172413793" y="205.09310344827588" type="line"/>
      <point x="262.54482758620685" y="205.09310344827588" type="line"/>
      <point x="224.31379310344826" y="0.0" type="line"/>
      <point x="284.2344827586207" y="0.0" type="line"/>
      <point x="322.65862068965515" y="205.09310344827588" type="line"/>
      <point x="434.38275862068963" y="205.09310344827588" type="line"/>
      <point x="434.38275862068963" y="262.2172413793103" type="line"/>
      <point x="334.00344827586207" y="262.2172413793103" type="line"/>
      <point x="370.8758620689655" y="457.0" type="line"/>
      <point x="466.3827586206897" y="457.0" type="line"/>
      <point x="466.3827586206897" y="515.4137931034483" type="line"/>
      <point x="381.72758620689655" y="515.4137931034483" type="line"/>
      <point x="419.2344827586207" y="714.0" type="line"/>
      <point x="358.80689655172415" y="714.0" type="line"/>
      <point x="321.6137931034483" y="515.4137931034483" type="line"/>
      <point x="214.06551724137933" y="515.4137931034483" type="line"/>
      <point x="251.29655172413794" y="714.0" type="line"/>
      <point x="190.37586206896552" y="714.0" type="line"/>
      <point x="153.95172413793105" y="515.4137931034483" type="line"/>
      <point x="45.42068965517242" y="515.4137931034483" type="line"/>
      <point x="45.42068965517242" y="457.0" type="line"/>
      <point x="142.4" y="457.0" type="line"/>
      <point x="105.73448275862069" y="262.2172413793103" type="line"/>
      <point x="13.420689655172414" y="262.2172413793103" type="line"/>
      <point x="13.420689655172414" y="205.09310344827588" type="line"/>
      <point x="94.88275862068967" y="205.09310344827588" type="line"/>
    </contour>
    <contour>
      <point x="166.06551724137933" y="262.2172413793103" type="line"/>
      <point x="203.2137931034483" y="457.0" type="line"/>
      <point x="311.03793103448277" y="457.0" type="line"/>
      <point x="274.0827586206897" y="262.2172413793103" type="line"/>
    </contour>
  </outline>
</glyph>
<glyph name="percent" format="2">
  <advance width="772.7344827586206"/>
  <unicode hex="0025"/>
  <outline>
    <contour>
      <point x="203.7448275862069" y="0.0" type="line"/>
      <point x="264.77586206896547" y="0.0" type="line"/>
      <point x="565.8827586206897" y="714.0" type="line"/>
      <point x="505.6586206896552" y="714.0" type="line"/>
    </contour>
    <contour>
      <point x="181.05172413793105" y="280.0" type="curve" smooth="yes"/>
      <point x="279.89310344827584" y="280.0"/>
      <point x="328.2724137931035" y="369.0"/>
      <point x="328.2724137931035" y="503.0" type="curve"/>
      <point x="328.2724137931035" y="637.0"/>
      <point x="279.89310344827584" y="724.0"/>
      <point x="181.85862068965517" y="724.0" type="curve" smooth="yes"/>
      <point x="77.6344827586207" y="724.0"/>
      <point x="34.33793103448276" y="637.0"/>
      <point x="34.33793103448276" y="503.0" type="curve" smooth="yes"/>
      <point x="34.33793103448276" y="369.0"/>
      <point x="77.6344827586207" y="280.0"/>
    </contour>
    <contour>
      <point x="181.05172413793105" y="319.98275862068965" type="curve" smooth="yes"/>
      <point x="132.82413793103447" y="319.98275862068965"/>
      <point x="115.98275862068968" y="386.1551724137931"/>
      <point x="115.98275862068968" y="503.0" type="curve"/>
      <point x="115.98275862068968" y="617.8448275862069"/>
      <point x="132.82413793103447" y="683.0172413793103"/>
      <point x="181.85862068965517" y="683.0172413793103" type="curve" smooth="yes"/>
      <point x="230.27931034482756" y="683.0172413793103"/>
      <point x="245.62758620689652" y="617.8448275862069"/>
      <point x="245.62758620689652" y="503.0" type="curve" smooth="yes"/>
      <point x="245.62758620689652" y="386.1551724137931"/>
      <point x="230.27931034482756" y="319.98275862068965"/>
    </contour>
    <contour>
      <point x="591.1758620689654" y="-10.0" type="curve" smooth="yes"/>
      <point x="690.2103448275861" y="-10.0"/>
      <point x="738.3965517241379" y="79.0"/>
      <point x="738.3965517241379" y="213.0" type="curve" smooth="yes"/>
      <point x="738.3965517241379" y="347.0"/>
      <point x="690.2103448275861" y="434.0"/>
      <point x="592.1758620689654" y="434.0" type="curve" smooth="yes"/>
      <point x="488.4586206896552" y="434.0"/>
      <point x="444.65517241379314" y="347.0"/>
      <point x="444.65517241379314" y="213.0" type="curve" smooth="yes"/>
      <point x="444.65517241379314" y="79.0"/>
      <point x="488.4586206896552" y="-10.0"/>
    </contour>
    <contour>
      <point x="591.1758620689654" y="29.98275862068966" type="curve" smooth="yes"/>
      <point x="543.1413793103447" y="29.98275862068966"/>
      <point x="526.3" y="96.15517241379311"/>
      <point x="526.3" y="213.0" type="curve" smooth="yes"/>
      <point x="526.3" y="327.8448275862069"/>
      <point x="543.1413793103447" y="393.01724137931035"/>
      <point x="591.6689655172414" y="393.01724137931035" type="curve" smooth="yes"/>
      <point x="640.4034482758622" y="393.01724137931035"/>
      <point x="655.9448275862069" y="327.8448275862069"/>
      <point x="655.9448275862069" y="213.0" type="curve" smooth="yes"/>
      <point x="655.9448275862069" y="96.15517241379311"/>
      <point x="640.4034482758622" y="29.98275862068966"/>
    </contour>
  </outline>
</glyph>
<glyph name="quotesingle" format="2">
  <advance width="215.22068965517244"/>
  <unicode hex="0027"/>
  <outline>
    <contour>
      <point x="84.33793103448276" y="472.50344827586207" type="line"/>
      <point x="130.6896551724138" y="472.50344827586207" type="line"/>
      <point x="162.148275862069" y="714.0" type="line"/>
      <point x="52.56551724137931" y="714.0" type="line"/>
    </contour>
  </outline>
</glyph>
<glyph name="parenleft" format="2">
  <advance width="316.1448275862069"/>
  <unicode hex="0028"/>
  <outline>
    <contour>
      <point x="289.551724137931" y="-129.75517241379313" type="curve"/>
      <point x="289.551724137931" y="-80.96206896551725" type="line"/>
      <point x="176.48620689655172" y="1.7620689655172417"/>
      <point x="159.32068965517243" y="158.08275862068967"/>
      <point x="159.32068965517243" y="317.0827586206897" type="curve" smooth="yes"/>
      <point x="159.32068965517243" y="476.0"/>
      <point x="176.48620689655172" y="630.8137931034483"/>
      <point x="289.551724137931" y="714.2379310344828" type="curve"/>
      <point x="289.551724137931" y="761.5241379310345" type="line"/>
      <point x="117.1448275862069" y="686.7896551724139"/>
      <point x="48.793103448275865" y="553.4448275862069"/>
      <point x="48.793103448275865" y="317.0827586206897" type="curve" smooth="yes"/>
      <point x="48.793103448275865" y="79.91379310344828"/>
      <point x="117.1448275862069" y="-53.813793103448276"/>
    </contour>
  </outline>
</glyph>
<glyph name="parenright" format="2">
  <advance width="316.1448275862069"/>
  <unicode hex="0029"/>
  <outline>
    <contour>
      <point x="27.1" y="-129.75517241379313" type="line"/>
      <point x="199.7" y="-53.813793103448276"/>
      <point x="267.85862068965514" y="79.91379310344828"/>
      <point x="267.85862068965514" y="317.0827586206897" type="curve" smooth="yes"/>
      <point x="267.85862068965514" y="553.4448275862069"/>
      <point x="199.7" y="686.7896551724139"/>
      <point x="27.1" y="761.5241379310345" type="curve"/>
      <point x="27.1" y="714.2379310344828" type="line"/>
      <point x="140.16551724137932" y="630.8137931034483"/>
      <point x="157.83793103448278" y="476.0"/>
      <point x="157.83793103448278" y="317.0827586206897" type="curve" smooth="yes"/>
      <point x="157.83793103448278" y="158.08275862068967"/>
      <point x="140.16551724137932" y="1.7620689655172417"/>
      <point x="27.1" y="-80.96206896551725" type="curve"/>
    </contour>
  </outline>
</glyph>
<glyph name="asterisk" format="2">
  <advance width="418.0"/>
  <unicode hex="002A"/>
  <outline>
    <contour>
      <point x="168.21724137931037" y="373.1310344827586" type="line"/>
      <point x="250.05862068965516" y="373.1310344827586" type="line"/>
      <point x="223.8206896551724" y="536.8689655172413" type="line"/>
      <point x="350.9862068965518" y="441.4137931034483" type="line"/>
      <point x="384.3517241379311" y="518.496551724138" type="line"/>
      <point x="248.8206896551724" y="566.6068965517242" type="line"/>
      <point x="384.3517241379311" y="614.6344827586206" type="line"/>
      <point x="350.9862068965518" y="693.2241379310345" type="line"/>
      <point x="223.8206896551724" y="596.3448275862069" type="line"/>
      <point x="250.1413793103448" y="760.0" type="line"/>
      <point x="168.21724137931037" y="760.0" type="line"/>
      <point x="192.64827586206897" y="595.2620689655172" type="line"/>
      <point x="66.09655172413792" y="695.2241379310345" type="line"/>
      <point x="32.92413793103448" y="615.6344827586206" type="line"/>
      <point x="168.43103448275863" y="566.6068965517242" type="line"/>
      <point x="32.92413793103448" y="517.496551724138" type="line"/>
      <point x="66.09655172413792" y="439.68965517241384" type="line"/>
      <point x="191.64827586206897" y="537.8448275862069" type="line"/>
    </contour>
  </outline>
</glyph>
<glyph name="plus" format="2">
  <advance width="465.2"/>
  <unicode hex="002B"/>
  <outline>
    <contour>
      <point x="200.63793103448273" y="143.0" type="line"/>
      <point x="263.0551724137931" y="143.0" type="line"/>
      <point x="263.0551724137931" y="327.23793103448276" type="line"/>
      <point x="416.5655172413793" y="327.23793103448276" type="line"/>
      <point x="416.5655172413793" y="387.76206896551724" type="line"/>
      <point x="263.0551724137931" y="387.76206896551724" type="line"/>
      <point x="263.0551724137931" y="572.0" type="line"/>
      <point x="200.63793103448273" y="572.0" type="line"/>
      <point x="200.63793103448273" y="387.76206896551724" type="line"/>
      <point x="48.63448275862069" y="387.76206896551724" type="line"/>
      <point x="48.63448275862069" y="327.23793103448276" type="line"/>
      <point x="200.63793103448273" y="327.23793103448276" type="line"/>
    </contour>
  </outline>
</glyph>
<glyph name="comma" format="2">
  <advance width="230.68620689655177"/>
  <unicode hex="002C"/>
  <outline>
    <contour>
      <point x="34.186206896551724" y="-154.0" type="line"/>
      <point x="136.69310344827588" y="-120.90689655172413"/>
      <point x="175.2896551724138" y="-48.52758620689655"/>
      <point x="175.2896551724138" y="32.15172413793103" type="curve" smooth="yes"/>
      <point x="175.2896551724138" y="92.0896551724138"/>
      <point x="147.49655172413796" y="126.75172413793102"/>
      <point x="106.63103448275862" y="126.75172413793102" type="curve" smooth="yes"/>
      <point x="75.14137931034483" y="126.75172413793102"/>
      <point x="50.63448275862069" y="105.62413793103448"/>
      <point x="50.63448275862069" y="69.19310344827586" type="curve" smooth="yes"/>
      <point x="50.63448275862069" y="8.237931034482758"/>
      <point x="109.39310344827587" y="12.768965517241382"/>
      <point x="109.39310344827587" y="-24.77241379310345" type="curve" smooth="yes"/>
      <point x="109.39310344827587" y="-61.165517241379305"/>
      <point x="84.60689655172415" y="-92.44137931034483"/>
      <point x="34.186206896551724" y="-112.23448275862069" type="curve"/>
    </contour>
  </outline>
</glyph>
<glyph name="hyphen" format="2">
  <advance width="266.55172413793105"/>
  <unicode hex="002D"/>
  <outline>
    <contour>
      <point x="21.693103448275863" y="232.33448275862068" type="line"/>
      <point x="245.05172413793102" y="232.33448275862068" type="line"/>
      <point x="245.05172413793102" y="312.6655172413793" type="line"/>
      <point x="21.693103448275863" y="312.6655172413793" type="line"/>
    </contour>
  </outline>
</glyph>
<glyph name="period" format="2">
  <advance width="230.68620689655177"/>
  <unicode hex="002E"/>
  <outline>
    <contour>
      <point x="115.59655172413794" y="-7.0827586206896544" type="curve" smooth="yes"/>
      <point x="147.26206896551724" y="-7.0827586206896544"/>
      <point x="175.05172413793105" y="9.151724137931033"/>
      <point x="175.05172413793105" y="59.834482758620695" type="curve" smooth="yes"/>
      <point x="175.05172413793105" y="110.62413793103448"/>
      <point x="147.26206896551724" y="126.75172413793102"/>
      <point x="115.59655172413794" y="126.75172413793102" type="curve" smooth="yes"/>
      <point x="82.14827586206897" y="126.75172413793102"/>
      <point x="55.63448275862069" y="110.62413793103448"/>
      <point x="55.63448275862069" y="59.834482758620695" type="curve" smooth="yes"/>
      <point x="55.63448275862069" y="9.151724137931033"/>
      <point x="82.14827586206897" y="-7.0827586206896544"/>
    </contour>
  </outline>
</glyph>
<glyph name="slash" format="2">
  <advance width="247.35172413793103"/>
  <unicode hex="002F"/>
  <outline>
    <contour>
      <point x="0.0" y="-121.0" type="line"/>
      <point x="55.9" y="-121.0" type="line"/>
      <point x="247.35172413793103" y="760.0" type="line"/>
      <point x="193.42758620689654" y="760.0" type="line"/>
    </contour>
  </outline>
</glyph>
<glyph name="zero" format="2">
  <advance width="479.8034482758621"/>
  <unicode hex="0030"/>
  <outline>
    <contour>
      <point x="240.05172413793102" y="-10.0" type="curve" smooth="yes"/>
      <point x="382.96206896551723" y="-10.0"/>
      <point x="444.57241379310346" y="129.5655172413793"/>
      <point x="444.57241379310346" y="358.0" type="curve" smooth="yes"/>
      <point x="444.57241379310346" y="588.6413793103447"/>
      <point x="384.6758620689655" y="724.0"/>
      <point x="241.05172413793102" y="724.0" type="curve" smooth="yes"/>
      <point x="88.55172413793103" y="724.0"/>
      <point x="34.33793103448276" y="585.0206896551724"/>
      <point x="34.33793103448276" y="359.0" type="curve" smooth="yes"/>
      <point x="34.33793103448276" y="127.15172413793103"/>
      <point x="90.2655172413793" y="-10.0"/>
    </contour>
    <contour>
      <point x="240.05172413793102" y="44.04137931034483" type="curve" smooth="yes"/>
      <point x="163.75862068965517" y="44.04137931034483"/>
      <point x="141.18275862068967" y="159.6379310344828"/>
      <point x="141.18275862068967" y="358.0" type="curve" smooth="yes"/>
      <point x="141.18275862068967" y="556.3620689655173"/>
      <point x="163.75862068965517" y="669.9586206896552"/>
      <point x="241.05172413793102" y="669.9586206896552" type="curve" smooth="yes"/>
      <point x="316.151724137931" y="669.9586206896552"/>
      <point x="339.1275862068966" y="556.3620689655173"/>
      <point x="339.1275862068966" y="358.0" type="curve" smooth="yes"/>
      <point x="339.1275862068966" y="159.6379310344828"/>
      <point x="316.151724137931" y="44.04137931034483"/>
    </contour>
  </outline>
</glyph>
<glyph name="one" format="2">
  <advance width="479.8034482758621"/>
  <unicode hex="0031"/>
  <outline>
    <contour>
      <point x="82.63793103448276" y="0.0" type="line"/>
      <point x="415.59655172413795" y="0.0" type="line"/>
      <point x="415.59655172413795" y="43.755172413793105" type="line"/>
      <point x="372.51724137931035" y="43.755172413793105" type="line" smooth="yes"/>
      <point x="332.03793103448277" y="43.755172413793105"/>
      <point x="305.5137931034483" y="56.15862068965518"/>
      <point x="305.5137931034483" y="114.2103448275862" type="curve" smooth="yes"/>
      <point x="305.5137931034483" y="718.0" type="line"/>
      <point x="236.31034482758622" y="718.0" type="line"/>
      <point x="176.42413793103447" y="667.0862068965517" type="line" smooth="yes"/>
      <point x="119.64482758620689" y="618.2793103448276"/>
      <point x="82.21724137931034" y="600.9793103448276"/>
      <point x="47.817241379310346" y="590.9793103448276" type="curve"/>
      <point x="47.817241379310346" y="556.6724137931035"/>
      <point x="67.20344827586207" y="534.8413793103449"/>
      <point x="93.33793103448276" y="534.8413793103449" type="curve" smooth="yes"/>
      <point x="127.42413793103447" y="534.8413793103449"/>
      <point x="161.41724137931035" y="575.6827586206897"/>
      <point x="204.2103448275862" y="634.3758620689656" type="curve"/>
      <point x="204.2103448275862" y="114.2103448275862" type="line" smooth="yes"/>
      <point x="204.2103448275862" y="52.62413793103448"/>
      <point x="176.33448275862068" y="43.755172413793105"/>
      <point x="137.2896551724138" y="43.755172413793105" type="curve" smooth="yes"/>
      <point x="82.63793103448276" y="43.755172413793105" type="line"/>
    </contour>
  </outline>
</glyph>
<glyph name="two" format="2">
  <advance width="479.8034482758621"/>
  <unicode hex="0032"/>
  <outline>
    <contour>
      <point x="38.331034482758625" y="0.0" type="line"/>
      <point x="427.86206896551727" y="0.0" type="line"/>
      <point x="431.6551724137931" y="179.36896551724138" type="line"/>
      <point x="388.0310344827586" y="179.36896551724138" type="line"/>
      <point x="383.1206896551724" y="157.8551724137931" type="line" smooth="yes"/>
      <point x="372.78620689655173" y="112.84137931034482"/>
      <point x="355.8206896551724" y="84.8241379310345"/>
      <point x="311.10344827586204" y="84.8241379310345" type="curve" smooth="yes"/>
      <point x="113.92413793103448" y="84.8241379310345" type="line"/>
      <point x="251.6034482758621" y="252.98620689655172" type="line" smooth="yes"/>
      <point x="349.8620689655172" y="369.196551724138"/>
      <point x="411.36206896551727" y="446.12413793103445"/>
      <point x="411.36206896551727" y="554.5965517241378" type="curve" smooth="yes"/>
      <point x="411.36206896551727" y="656.1482758620689"/>
      <point x="342.6344827586207" y="724.0"/>
      <point x="224.5551724137931" y="724.0" type="curve" smooth="yes"/>
      <point x="105.63793103448276" y="724.0"/>
      <point x="45.686206896551724" y="664.0655172413792"/>
      <point x="45.686206896551724" y="592.0655172413793" type="curve" smooth="yes"/>
      <point x="45.686206896551724" y="537.3241379310346"/>
      <point x="86.65517241379311" y="520.9689655172414"/>
      <point x="133.06206896551726" y="520.9689655172414" type="curve"/>
      <point x="133.06206896551726" y="605.9793103448276"/>
      <point x="152.04137931034484" y="672.244827586207"/>
      <point x="224.5551724137931" y="672.244827586207" type="curve" smooth="yes"/>
      <point x="278.63793103448273" y="672.244827586207"/>
      <point x="306.0793103448276" y="624.9689655172415"/>
      <point x="306.0793103448276" y="546.4827586206898" type="curve" smooth="yes"/>
      <point x="306.0793103448276" y="449.30000000000007"/>
      <point x="275.3206896551724" y="381.49655172413793"/>
      <point x="179.98275862068965" y="258.29655172413794" type="curve" smooth="yes"/>
      <point x="38.331034482758625" y="75.1448275862069" type="line"/>
    </contour>
  </outline>
</glyph>
<glyph name="three" format="2">
  <advance width="479.8034482758621"/>
  <unicode hex="0033"/>
  <outline>
    <contour>
      <point x="212.75517241379313" y="-10.0" type="curve" smooth="yes"/>
      <point x="324.15517241379314" y="-10.0"/>
      <point x="436.6275862068966" y="43.0"/>
      <point x="436.6275862068966" y="199.53103448275863" type="curve" smooth="yes"/>
      <point x="436.6275862068966" y="324.5"/>
      <point x="353.3034482758621" y="368.34137931034485"/>
      <point x="283.32068965517243" y="379.0931034482758" type="curve"/>
      <point x="358.61379310344836" y="402.1310344827586"/>
      <point x="414.93448275862073" y="470.4689655172414"/>
      <point x="414.93448275862073" y="560.4689655172413" type="curve" smooth="yes"/>
      <point x="414.93448275862073" y="665.2172413793104"/>
      <point x="341.4551724137931" y="724.0"/>
      <point x="230.9551724137931" y="724.0" type="curve" smooth="yes"/>
      <point x="112.03793103448275" y="724.0"/>
      <point x="51.49655172413793" y="664.2103448275861"/>
      <point x="51.49655172413793" y="591.0862068965517" type="curve" smooth="yes"/>
      <point x="51.49655172413793" y="542.2275862068966"/>
      <point x="88.28620689655173" y="525.403448275862"/>
      <point x="135.85172413793103" y="525.403448275862" type="curve"/>
      <point x="135.85172413793103" y="604.3206896551724"/>
      <point x="156.85172413793106" y="672.244827586207"/>
      <point x="225.44827586206895" y="672.244827586207" type="curve" smooth="yes"/>
      <point x="282.1275862068965" y="672.244827586207"/>
      <point x="309.5586206896552" y="626.6034482758621"/>
      <point x="309.5586206896552" y="549.3655172413794" type="curve" smooth="yes"/>
      <point x="309.5586206896552" y="455.21034482758625"/>
      <point x="266.1931034482759" y="396.1862068965517"/>
      <point x="190.95862068965516" y="396.1862068965517" type="curve"/>
      <point x="148.15517241379314" y="396.1862068965517" type="line"/>
      <point x="148.15517241379314" y="345.14482758620693" type="line"/>
      <point x="189.34827586206896" y="345.14482758620693" type="line" smooth="yes"/>
      <point x="282.20344827586206" y="345.14482758620693"/>
      <point x="330.7586206896552" y="288.93793103448274"/>
      <point x="330.7586206896552" y="200.53103448275863" type="curve" smooth="yes"/>
      <point x="330.7586206896552" y="86.54482758620689"/>
      <point x="274.8103448275862" y="46.24137931034483"/>
      <point x="211.30689655172412" y="46.24137931034483" type="curve" smooth="yes"/>
      <point x="145.04137931034484" y="46.24137931034483"/>
      <point x="103.73103448275862" y="98.29310344827587"/>
      <point x="103.73103448275862" y="170.95862068965516" type="curve"/>
      <point x="67.91724137931035" y="170.95862068965516"/>
      <point x="41.22758620689655" y="146.3241379310345"/>
      <point x="41.22758620689655" y="104.56896551724138" type="curve" smooth="yes"/>
      <point x="41.22758620689655" y="42.29310344827586"/>
      <point x="92.69999999999999" y="-10.0"/>
    </contour>
  </outline>
</glyph>
<glyph name="four" format="2">
  <advance width="479.8034482758621"/>
  <unicode hex="0034"/>
  <outline>
    <contour>
      <point x="173.04827586206895" y="0.0" type="line"/>
      <point x="448.8827586206897" y="0.0" type="line"/>
      <point x="448.8827586206897" y="43.755172413793105" type="line"/>
      <point x="437.7896551724138" y="43.755172413793105" type="line" smooth="yes"/>
      <point x="398.3896551724138" y="43.755172413793105"/>
      <point x="366.7965517241379" y="52.755172413793105"/>
      <point x="366.7965517241379" y="115.7551724137931" type="curve" smooth="yes"/>
      <point x="366.7965517241379" y="194.5206896551724" type="line"/>
      <point x="465.31724137931036" y="194.5206896551724" type="line"/>
      <point x="465.31724137931036" y="252.0" type="line"/>
      <point x="366.7965517241379" y="252.0" type="line"/>
      <point x="366.7965517241379" y="714.0" type="line"/>
      <point x="267.50344827586207" y="714.0" type="line"/>
      <point x="13.482758620689657" y="238.4793103448276" type="line"/>
      <point x="13.482758620689657" y="194.5206896551724" type="line"/>
      <point x="267.5275862068966" y="194.5206896551724" type="line"/>
      <point x="267.5275862068966" y="115.7551724137931" type="line" smooth="yes"/>
      <point x="267.5275862068966" y="52.755172413793105"/>
      <point x="236.44137931034484" y="43.755172413793105"/>
      <point x="196.53448275862067" y="43.755172413793105" type="curve" smooth="yes"/>
      <point x="173.04827586206895" y="43.755172413793105" type="line"/>
    </contour>
    <contour>
      <point x="76.67586206896551" y="252.0" type="line"/>
      <point x="198.18275862068964" y="482.09655172413795" type="line" smooth="yes"/>
      <point x="219.12068965517238" y="522.6655172413793"/>
      <point x="260.4413793103448" y="605.7413793103448"/>
      <point x="273.1275862068966" y="638.696551724138" type="curve"/>
      <point x="268.82758620689657" y="576.696551724138"/>
      <point x="267.5275862068966" y="496.3931034482759"/>
      <point x="267.5275862068966" y="438.3931034482759" type="curve" smooth="yes"/>
      <point x="267.5275862068966" y="252.0" type="line"/>
    </contour>
  </outline>
</glyph>
<glyph name="five" format="2">
  <advance width="479.8034482758621"/>
  <unicode hex="0035"/>
  <outline>
    <contour>
      <point x="209.73448275862071" y="-10.0" type="curve" smooth="yes"/>
      <point x="329.1172413793103" y="-10.0"/>
      <point x="424.0758620689655" y="75.98965517241378"/>
      <point x="424.0758620689655" y="218.3586206896552" type="curve" smooth="yes"/>
      <point x="424.0758620689655" y="359.21034482758625"/>
      <point x="338.64482758620693" y="430.1862068965517"/>
      <point x="216.4241379310345" y="430.1862068965517" type="curve" smooth="yes"/>
      <point x="177.7655172413793" y="430.1862068965517"/>
      <point x="139.68620689655174" y="421.5448275862069"/>
      <point x="119.79655172413793" y="413.06206896551726" type="curve"/>
      <point x="136.95517241379312" y="628.451724137931" type="line"/>
      <point x="306.81724137931036" y="628.451724137931" type="line" smooth="yes"/>
      <point x="339.8310344827586" y="628.451724137931"/>
      <point x="342.8103448275862" y="616.3827586206897"/>
      <point x="350.28275862068966" y="582.5586206896551" type="curve" smooth="yes"/>
      <point x="355.7" y="557.1758620689656" type="line"/>
      <point x="398.7724137931035" y="557.1758620689656" type="line"/>
      <point x="395.1724137931035" y="713.0827586206896" type="line"/>
      <point x="94.9448275862069" y="713.0827586206896" type="line"/>
      <point x="66.05862068965517" y="362.303448275862" type="line"/>
      <point x="90.50344827586207" y="351.13448275862066" type="line"/>
      <point x="114.08275862068966" y="362.08965517241376"/>
      <point x="145.70000000000002" y="375.14482758620693"/>
      <point x="194.8655172413793" y="375.14482758620693" type="curve" smooth="yes"/>
      <point x="270.07586206896553" y="375.14482758620693"/>
      <point x="317.78275862068966" y="322.3655172413793"/>
      <point x="317.78275862068966" y="218.3586206896552" type="curve" smooth="yes"/>
      <point x="317.78275862068966" y="88.64827586206897"/>
      <point x="267.10689655172416" y="46.43448275862069"/>
      <point x="201.66206896551725" y="46.43448275862069" type="curve" smooth="yes"/>
      <point x="132.09310344827585" y="46.43448275862069"/>
      <point x="101.63103448275862" y="100.93793103448277"/>
      <point x="101.63103448275862" y="159.8448275862069" type="curve"/>
      <point x="64.56551724137931" y="159.8448275862069"/>
      <point x="41.52068965517241" y="135.66206896551725"/>
      <point x="41.52068965517241" y="97.45862068965518" type="curve" smooth="yes"/>
      <point x="41.52068965517241" y="49.74827586206897"/>
      <point x="81.60344827586206" y="-10.0"/>
    </contour>
  </outline>
</glyph>
<glyph name="six" format="2">
  <advance width="479.8034482758621"/>
  <unicode hex="0036"/>
  <outline>
    <contour>
      <point x="251.65172413793104" y="-10.0" type="curve" smooth="yes"/>
      <point x="373.67241379310343" y="-10.0"/>
      <point x="441.85862068965514" y="88.0"/>
      <point x="441.85862068965514" y="229.3586206896552" type="curve" smooth="yes"/>
      <point x="441.85862068965514" y="357.21034482758625"/>
      <point x="373.67241379310343" y="434.21034482758625"/>
      <point x="271.28275862068966" y="434.21034482758625" type="curve" smooth="yes"/>
      <point x="212.64827586206897" y="434.21034482758625"/>
      <point x="175.0793103448276" y="408.7655172413793"/>
      <point x="149.26206896551724" y="384.1758620689655" type="curve"/>
      <point x="153.93103448275863" y="573.6206896551724"/>
      <point x="194.4241379310345" y="674.244827586207"/>
      <point x="271.4689655172414" y="674.244827586207" type="curve" smooth="yes"/>
      <point x="324.4206896551724" y="674.244827586207"/>
      <point x="345.9172413793104" y="623.4931034482757"/>
      <point x="345.9172413793104" y="555.7206896551725" type="curve"/>
      <point x="398.60344827586204" y="555.7206896551725"/>
      <point x="423.9896551724138" y="578.5999999999999"/>
      <point x="423.9896551724138" y="617.8137931034483" type="curve" smooth="yes"/>
      <point x="423.9896551724138" y="672.6413793103449"/>
      <point x="376.08620689655174" y="724.0"/>
      <point x="274.50689655172414" y="724.0" type="curve" smooth="yes"/>
      <point x="118.9448275862069" y="724.0"/>
      <point x="46.5448275862069" y="572.5931034482759"/>
      <point x="46.5448275862069" y="342.55172413793105" type="curve" smooth="yes"/>
      <point x="46.5448275862069" y="97.0"/>
      <point x="132.20689655172416" y="-10.0"/>
    </contour>
    <contour>
      <point x="253.95172413793102" y="44.34137931034483" type="curve" smooth="yes"/>
      <point x="191.33448275862068" y="44.34137931034483"/>
      <point x="150.26206896551724" y="133.71724137931037"/>
      <point x="148.53793103448274" y="328.0827586206897" type="curve"/>
      <point x="168.53103448275863" y="352.21724137931034"/>
      <point x="202.82068965517243" y="382.55172413793105"/>
      <point x="248.7655172413793" y="382.55172413793105" type="curve" smooth="yes"/>
      <point x="307.6" y="382.55172413793105"/>
      <point x="340.04137931034484" y="332.78965517241375"/>
      <point x="340.04137931034484" y="219.3586206896552" type="curve" smooth="yes"/>
      <point x="340.04137931034484" y="97.91379310344828"/>
      <point x="308.8862068965517" y="44.34137931034483"/>
    </contour>
  </outline>
</glyph>
<glyph name="seven" format="2">
  <advance width="479.8034482758621"/>
  <unicode hex="0037"/>
  <outline>
    <contour>
      <point x="147.5" y="0.0" type="line"/>
      <point x="217.70344827586212" y="0.0" type="line"/>
      <point x="440.11724137931037" y="680.9310344827585" type="line"/>
      <point x="440.11724137931037" y="713.0827586206896" type="line"/>
      <point x="49.38620689655172" y="713.0827586206896" type="line"/>
      <point x="44.38620689655172" y="527.5344827586207" type="line"/>
      <point x="90.00000000000001" y="527.5344827586207" type="line"/>
      <point x="94.35862068965518" y="575.6275862068965" type="line" smooth="yes"/>
      <point x="97.6344827586207" y="611.7413793103448"/>
      <point x="111.8448275862069" y="628.5344827586207"/>
      <point x="143.13793103448276" y="628.5344827586207" type="curve" smooth="yes"/>
      <point x="367.17931034482757" y="628.5344827586207" type="line"/>
    </contour>
  </outline>
</glyph>
<glyph name="eight" format="2">
  <advance width="479.8034482758621"/>
  <unicode hex="0038"/>
  <outline>
    <contour>
      <point x="235.65862068965518" y="-10.0" type="curve" smooth="yes"/>
      <point x="366.00344827586207" y="-10.0"/>
      <point x="446.15862068965515" y="62.08275862068966"/>
      <point x="446.15862068965515" y="182.50689655172414" type="curve" smooth="yes"/>
      <point x="446.15862068965515" y="281.0310344827586"/>
      <point x="393.8344827586207" y="334.72068965517246"/>
      <point x="306.3724137931034" y="381.6896551724138" type="curve"/>
      <point x="376.21724137931034" y="419.13793103448273"/>
      <point x="420.951724137931" y="466.39310344827584"/>
      <point x="420.951724137931" y="556.1448275862069" type="curve" smooth="yes"/>
      <point x="420.951724137931" y="653.548275862069"/>
      <point x="358.17241379310343" y="724.0"/>
      <point x="243.84482758620692" y="724.0" type="curve" smooth="yes"/>
      <point x="110.4655172413793" y="724.0"/>
      <point x="53.844827586206904" y="642.7482758620689"/>
      <point x="53.844827586206904" y="546.2724137931035" type="curve" smooth="yes"/>
      <point x="53.844827586206904" y="459.07586206896553"/>
      <point x="98.90689655172413" y="406.68620689655177"/>
      <point x="164.8103448275862" y="364.8379310344828" type="curve"/>
      <point x="91.65517241379311" y="327.451724137931"/>
      <point x="34.851724137931036" y="274.80689655172415"/>
      <point x="34.851724137931036" y="175.04827586206898" type="curve" smooth="yes"/>
      <point x="34.851724137931036" y="71.9448275862069"/>
      <point x="100.06206896551724" y="-10.0"/>
    </contour>
    <contour>
      <point x="238.75172413793103" y="40.362068965517246" type="curve" smooth="yes"/>
      <point x="169.90689655172415" y="40.362068965517246"/>
      <point x="130.28965517241383" y="91.14137931034483"/>
      <point x="130.28965517241383" y="176.72068965517238" type="curve" smooth="yes"/>
      <point x="130.28965517241383" y="250.14827586206894"/>
      <point x="159.72758620689658" y="303.56206896551726"/>
      <point x="208.4206896551724" y="337.4620689655173" type="curve"/>
      <point x="307.4862068965517" y="282.8586206896552"/>
      <point x="348.048275862069" y="236.42068965517242"/>
      <point x="348.048275862069" y="167.65517241379308" type="curve" smooth="yes"/>
      <point x="348.048275862069" y="88.64482758620689"/>
      <point x="304.1689655172414" y="40.362068965517246"/>
    </contour>
    <contour>
      <point x="260.8689655172414" y="406.05862068965513" type="curve"/>
      <point x="191.15862068965518" y="445.1551724137931"/>
      <point x="151.49310344827586" y="483.35862068965514"/>
      <point x="151.49310344827586" y="558.8517241379311" type="curve" smooth="yes"/>
      <point x="151.49310344827586" y="626.8586206896551"/>
      <point x="182.7241379310345" y="673.3379310344827"/>
      <point x="240.6448275862069" y="673.3379310344827" type="curve" smooth="yes"/>
      <point x="304.1310344827586" y="673.3379310344827"/>
      <point x="331.1103448275862" y="616.3275862068966"/>
      <point x="331.1103448275862" y="555.1517241379311" type="curve" smooth="yes"/>
      <point x="331.1103448275862" y="484.78275862068966"/>
      <point x="312.42758620689654" y="440.96206896551723"/>
    </contour>
  </outline>
</glyph>
<glyph name="nine" format="2">
  <advance width="479.8034482758621"/>
  <unicode hex="0039"/>
  <outline>
    <contour>
      <point x="195.0655172413793" y="-10.917241379310344" type="curve"/>
      <point x="365.18620689655177" y="-10.917241379310344"/>
      <point x="433.7655172413793" y="160.25172413793103"/>
      <point x="433.7655172413793" y="388.0" type="curve"/>
      <point x="433.7655172413793" y="625.8724137931034"/>
      <point x="344.7206896551724" y="724.0"/>
      <point x="225.6689655172414" y="724.0" type="curve" smooth="yes"/>
      <point x="106.68620689655172" y="724.0"/>
      <point x="37.9448275862069" y="624.1172413793104"/>
      <point x="37.9448275862069" y="482.7241379310345" type="curve" smooth="yes"/>
      <point x="37.9448275862069" y="349.63103448275865"/>
      <point x="107.93793103448276" y="278.8137931034483"/>
      <point x="206.74137931034485" y="278.8137931034483" type="curve" smooth="yes"/>
      <point x="266.5448275862069" y="278.8137931034483"/>
      <point x="309.52758620689656" y="312.03793103448277"/>
      <point x="332.6586206896552" y="344.44827586206895" type="curve"/>
      <point x="326.8655172413793" y="143.39655172413794"/>
      <point x="286.73448275862074" y="45.39655172413793"/>
      <point x="200.59655172413792" y="45.39655172413793" type="curve" smooth="yes"/>
      <point x="141.27241379310345" y="45.39655172413793"/>
      <point x="113.93448275862069" y="85.1551724137931"/>
      <point x="98.26551724137931" y="130.64827586206894" type="curve"/>
      <point x="75.68275862068965" y="123.8896551724138"/>
      <point x="63.60344827586207" y="103.39655172413794"/>
      <point x="63.60344827586207" y="77.48620689655172" type="curve" smooth="yes"/>
      <point x="63.60344827586207" y="33.32758620689655"/>
      <point x="97.47931034482758" y="-10.917241379310344"/>
    </contour>
    <contour>
      <point x="233.76206896551727" y="334.40000000000003" type="curve" smooth="yes"/>
      <point x="170.62758620689655" y="335.92068965517245"/>
      <point x="140.2931034482759" y="385.81379310344823"/>
      <point x="140.2931034482759" y="488.0" type="curve" smooth="yes"/>
      <point x="140.2931034482759" y="605.0206896551724"/>
      <point x="171.65172413793104" y="669.3827586206897"/>
      <point x="229.54482758620685" y="669.3827586206897" type="curve" smooth="yes"/>
      <point x="292.76206896551724" y="669.3827586206897"/>
      <point x="331.3586206896552" y="591.8689655172413"/>
      <point x="333.88965517241377" y="403.71724137931034" type="curve"/>
      <point x="317.5103448275862" y="371.7793103448276"/>
      <point x="285.21379310344827" y="335.92068965517245"/>
    </contour>
  </outline>
</glyph>
<glyph name="colon" format="2">
  <advance width="246.31034482758622"/>
  <unicode hex="003A"/>
  <outline>
    <contour>
      <point x="123.17931034482758" y="402.86206896551727" type="curve" smooth="yes"/>
      <point x="154.8448275862069" y="402.86206896551727"/>
      <point x="182.6344827586207" y="418.78275862068966"/>
      <point x="182.6344827586207" y="469.27241379310345" type="curve" smooth="yes"/>
      <point x="182.6344827586207" y="520.255172413793"/>
      <point x="154.8448275862069" y="535.6827586206897"/>
      <point x="123.17931034482758" y="535.6827586206897" type="curve" smooth="yes"/>
      <point x="89.73103448275862" y="535.6827586206897"/>
      <point x="63.91724137931034" y="520.255172413793"/>
      <point x="63.91724137931034" y="469.27241379310345" type="curve" smooth="yes"/>
      <point x="63.91724137931034" y="418.78275862068966"/>
      <point x="89.73103448275862" y="402.86206896551727"/>
    </contour>
    <contour>
      <point x="123.17931034482758" y="-7.0827586206896544" type="curve" smooth="yes"/>
      <point x="154.8448275862069" y="-7.0827586206896544"/>
      <point x="182.6344827586207" y="9.151724137931033"/>
      <point x="182.6344827586207" y="59.834482758620695" type="curve" smooth="yes"/>
      <point x="182.6344827586207" y="110.62413793103448"/>
      <point x="154.8448275862069" y="126.75172413793102"/>
      <point x="123.17931034482758" y="126.75172413793102" type="curve" smooth="yes"/>
      <point x="89.73103448275862" y="126.75172413793102"/>
      <point x="63.91724137931034" y="110.62413793103448"/>
      <point x="63.91724137931034" y="59.834482758620695" type="curve" smooth="yes"/>
      <point x="63.91724137931034" y="9.151724137931033"/>
      <point x="89.73103448275862" y="-7.0827586206896544"/>
    </contour>
  </outline>
</glyph>
<glyph name="semicolon" format="2">
  <advance width="246.31034482758622"/>
  <unicode hex="003B"/>
  <outline>
    <contour>
      <point x="43.244827586206895" y="-154.0" type="line"/>
      <point x="146.25862068965515" y="-120.90689655172413"/>
      <point x="184.85517241379313" y="-48.52758620689655"/>
      <point x="184.85517241379313" y="32.15172413793103" type="curve" smooth="yes"/>
      <point x="184.85517241379313" y="92.0896551724138"/>
      <point x="157.25517241379313" y="126.75172413793102"/>
      <point x="115.6896551724138" y="126.75172413793102" type="curve" smooth="yes"/>
      <point x="84.9" y="126.75172413793102"/>
      <point x="60.393103448275866" y="105.62413793103448"/>
      <point x="60.393103448275866" y="69.19310344827586" type="curve" smooth="yes"/>
      <point x="60.393103448275866" y="8.237931034482758"/>
      <point x="119.65862068965517" y="12.768965517241382"/>
      <point x="119.65862068965517" y="-24.77241379310345" type="curve" smooth="yes"/>
      <point x="119.65862068965517" y="-61.86551724137931"/>
      <point x="94.87241379310345" y="-92.44137931034483"/>
      <point x="43.244827586206895" y="-112.23448275862069" type="curve"/>
    </contour>
    <contour>
      <point x="123.17931034482758" y="402.86206896551727" type="curve" smooth="yes"/>
      <point x="155.54482758620688" y="402.86206896551727"/>
      <point x="182.6344827586207" y="418.78275862068966"/>
      <point x="182.6344827586207" y="469.27241379310345" type="curve" smooth="yes"/>
      <point x="182.6344827586207" y="520.255172413793"/>
      <point x="155.54482758620688" y="535.6827586206897"/>
      <point x="123.17931034482758" y="535.6827586206897" type="curve" smooth="yes"/>
      <point x="89.73103448275862" y="535.6827586206897"/>
      <point x="63.91724137931034" y="520.255172413793"/>
      <point x="63.91724137931034" y="469.27241379310345" type="curve" smooth="yes"/>
      <point x="63.91724137931034" y="418.78275862068966"/>
      <point x="89.73103448275862" y="402.86206896551727"/>
    </contour>
  </outline>
</glyph>
<glyph name="less" format="2">
  <advance width="465.2"/>
  <unicode hex="003C"/>
  <outline>
    <contour>
      <point x="416.5655172413793" y="109.23793103448276" type="line"/>
      <point x="416.5655172413793" y="178.46206896551726" type="line"/>
      <point x="133.21034482758623" y="357.0" type="line"/>
      <point x="416.5655172413793" y="538.0448275862069" type="line"/>
      <point x="416.5655172413793" y="606.7620689655172" type="line"/>
      <point x="48.63448275862069" y="375.6344827586207" type="line"/>
      <point x="48.63448275862069" y="339.3655172413793" type="line"/>
    </contour>
  </outline>
</glyph>
<glyph name="equal" format="2">
  <advance width="465.2"/>
  <unicode hex="003D"/>
  <outline>
    <contour>
      <point x="48.08275862068966" y="421.5827586206897" type="line"/>
      <point x="417.11724137931037" y="421.5827586206897" type="line"/>
      <point x="417.11724137931037" y="482.5310344827586" type="line"/>
      <point x="48.08275862068966" y="482.5310344827586" type="line"/>
    </contour>
    <contour>
      <point x="48.08275862068966" y="231.4689655172414" type="line"/>
      <point x="417.11724137931037" y="231.4689655172414" type="line"/>
      <point x="417.11724137931037" y="292.4172413793103" type="line"/>
      <point x="48.08275862068966" y="292.4172413793103" type="line"/>
    </contour>
  </outline>
</glyph>
<glyph name="greater" format="2">
  <advance width="465.2"/>
  <unicode hex="003E"/>
  <outline>
    <contour>
      <point x="48.63448275862069" y="109.23793103448276" type="line"/>
      <point x="416.5655172413793" y="339.3655172413793" type="line"/>
      <point x="416.5655172413793" y="375.6344827586207" type="line"/>
      <point x="48.63448275862069" y="606.7620689655172" type="line"/>
      <point x="48.63448275862069" y="538.0448275862069" type="line"/>
      <point x="331.2896551724138" y="357.0" type="line"/>
      <point x="48.63448275862069" y="178.46206896551726" type="line"/>
    </contour>
  </outline>
</glyph>
<glyph name="question" format="2">
  <advance width="451.03448275862064"/>
  <unicode hex="003F"/>
  <outline>
    <contour>
      <point x="180.24137931034485" y="211.151724137931" type="line"/>
      <point x="224.7793103448276" y="211.151724137931" type="line"/>
      <point x="237.97241379310347" y="320.71379310344827" type="line"/>
      <point x="347.65517241379314" y="371.9241379310345"/>
      <point x="402.50344827586207" y="434.9068965517242"/>
      <point x="402.50344827586207" y="544.7793103448275" type="curve" smooth="yes"/>
      <point x="402.50344827586207" y="658.6310344827587"/>
      <point x="324.6689655172414" y="724.0"/>
      <point x="208.1448275862069" y="724.0" type="curve" smooth="yes"/>
      <point x="93.07931034482758" y="724.0"/>
      <point x="35.62413793103448" y="673.1931034482759"/>
      <point x="35.62413793103448" y="610.703448275862" type="curve" smooth="yes"/>
      <point x="35.62413793103448" y="565.4413793103448"/>
      <point x="71.2344827586207" y="547.3655172413794"/>
      <point x="124.77586206896551" y="547.3655172413794" type="curve"/>
      <point x="124.77586206896551" y="621.1344827586208"/>
      <point x="147.23793103448276" y="673.244827586207"/>
      <point x="210.23103448275862" y="673.244827586207" type="curve" smooth="yes"/>
      <point x="268.0068965517241" y="673.244827586207"/>
      <point x="295.49655172413793" y="621.3758620689656"/>
      <point x="295.49655172413793" y="551.6551724137931" type="curve" smooth="yes"/>
      <point x="295.49655172413793" y="467.6103448275862"/>
      <point x="266.4689655172414" y="395.55172413793105"/>
      <point x="167.74827586206897" y="348.32068965517243" type="curve"/>
    </contour>
    <contour>
      <point x="201.6137931034483" y="-7.0827586206896544" type="curve" smooth="yes"/>
      <point x="234.29310344827587" y="-7.0827586206896544"/>
      <point x="262.0827586206896" y="9.151724137931033"/>
      <point x="262.0827586206896" y="59.834482758620695" type="curve" smooth="yes"/>
      <point x="262.0827586206896" y="110.62413793103448"/>
      <point x="234.29310344827587" y="126.75172413793102"/>
      <point x="201.6137931034483" y="126.75172413793102" type="curve" smooth="yes"/>
      <point x="168.67241379310346" y="126.75172413793102"/>
      <point x="142.66551724137932" y="110.62413793103448"/>
      <point x="142.66551724137932" y="59.834482758620695" type="curve" smooth="yes"/>
      <point x="142.66551724137932" y="9.151724137931033"/>
      <point x="168.67241379310346" y="-7.0827586206896544"/>
    </contour>
  </outline>
</glyph>
<glyph name="bracketleft" format="2">
  <advance width="328.74482758620684"/>
  <unicode hex="005B"/>
  <outline>
    <contour>
      <point x="85.68620689655172" y="-128.0" type="line"/>
      <point x="297.151724137931" y="-128.0" type="line"/>
      <point x="297.151724137931" y="-84.2448275862069" type="line"/>
      <point x="260.2586206896552" y="-84.2448275862069" type="line" smooth="yes"/>
      <point x="221.87241379310345" y="-84.2448275862069"/>
      <point x="189.77241379310345" y="-75.2448275862069"/>
      <point x="189.77241379310345" y="-12.244827586206895" type="curve" smooth="yes"/>
      <point x="189.77241379310345" y="644.244827586207" type="line" smooth="yes"/>
      <point x="189.77241379310345" y="707.244827586207"/>
      <point x="221.87241379310345" y="716.244827586207"/>
      <point x="260.2586206896552" y="716.244827586207" type="curve" smooth="yes"/>
      <point x="297.151724137931" y="716.244827586207" type="line"/>
      <point x="297.151724137931" y="760.0" type="line"/>
      <point x="85.68620689655172" y="760.0" type="line"/>
    </contour>
  </outline>
</glyph>
<glyph name="backslash" format="2">
  <advance width="247.35172413793103"/>
  <unicode hex="005C"/>
  <outline>
    <contour>
      <point x="192.15172413793104" y="-121.0" type="line"/>
      <point x="247.35172413793103" y="-121.0" type="line"/>
      <point x="54.9" y="760.0" type="line"/>
      <point x="0.0" y="760.0" type="line"/>
    </contour>
  </outline>
</glyph>
<glyph name="bracketright" format="2">
  <advance width="328.74482758620684"/>
  <unicode hex="005D"/>
  <outline>
    <contour>
      <point x="32.1" y="-128.0" type="line"/>
      <point x="243.05862068965516" y="-128.0" type="line"/>
      <point x="243.05862068965516" y="760.0" type="line"/>
      <point x="32.1" y="760.0" type="line"/>
      <point x="32.1" y="716.244827586207" type="line"/>
      <point x="68.48620689655172" y="716.244827586207" type="line" smooth="yes"/>
      <point x="107.37931034482759" y="716.244827586207"/>
      <point x="138.97241379310344" y="707.244827586207"/>
      <point x="138.97241379310344" y="644.244827586207" type="curve" smooth="yes"/>
      <point x="138.97241379310344" y="-12.244827586206895" type="line" smooth="yes"/>
      <point x="138.97241379310344" y="-75.2448275862069"/>
      <point x="107.37931034482759" y="-84.2448275862069"/>
      <point x="68.48620689655172" y="-84.2448275862069" type="curve" smooth="yes"/>
      <point x="32.1" y="-84.2448275862069" type="line"/>
    </contour>
  </outline>
</glyph>
<glyph name="asciicircum" format="2">
  <advance width="465.2"/>
  <unicode hex="005E"/>
  <outline>
    <contour>
      <point x="34.34137931034483" y="265.78965517241375" type="line"/>
      <point x="95.5896551724138" y="265.78965517241375" type="line"/>
      <point x="231.1" y="619.2896551724137" type="line"/>
      <point x="368.1034482758621" y="265.78965517241375" type="line"/>
      <point x="429.85862068965514" y="265.78965517241375" type="line"/>
      <point x="247.91034482758624" y="714.0" type="line"/>
      <point x="215.28965517241375" y="714.0" type="line"/>
    </contour>
  </outline>
</glyph>
<glyph name="underscore" format="2">
  <advance width="393.22413793103453"/>
  <unicode hex="005F"/>
  <outline>
    <contour>
      <point x="-4.493103448275862" y="-142.0" type="line"/>
      <point x="397.5241379310345" y="-142.0" type="line"/>
      <point x="397.5241379310345" y="-83.0" type="line"/>
      <point x="-4.493103448275862" y="-83.0" type="line"/>
    </contour>
  </outline>
</glyph>
<glyph name="braceleft" format="2">
  <advance width="372.12068965517244"/>
  <unicode hex="007B"/>
  <outline>
    <contour>
      <point x="269.7379310344827" y="-127.36551724137931" type="curve" smooth="yes"/>
      <point x="336.78620689655173" y="-127.36551724137931" type="line"/>
      <point x="336.78620689655173" y="-82.69310344827586" type="line"/>
      <point x="307.99655172413793" y="-82.69310344827586" type="line" smooth="yes"/>
      <point x="258.26206896551724" y="-82.69310344827586"/>
      <point x="241.3655172413793" y="-46.244827586206895"/>
      <point x="241.3655172413793" y="20.76206896551724" type="curve" smooth="yes"/>
      <point x="241.3655172413793" y="193.21034482758623" type="line" smooth="yes"/>
      <point x="241.3655172413793" y="258.6413793103448"/>
      <point x="211.54137931034484" y="302.87931034482756"/>
      <point x="146.8620689655172" y="316.6413793103448" type="curve"/>
      <point x="146.8620689655172" y="319.1862068965517" type="line"/>
      <point x="211.38275862068966" y="331.7551724137931"/>
      <point x="241.3655172413793" y="376.21034482758625"/>
      <point x="241.3655172413793" y="440.9172413793103" type="curve" smooth="yes"/>
      <point x="241.3655172413793" y="611.6413793103449" type="line" smooth="yes"/>
      <point x="241.3655172413793" y="679.8793103448276"/>
      <point x="258.26206896551724" y="715.5206896551725"/>
      <point x="307.99655172413793" y="715.5206896551725" type="curve" smooth="yes"/>
      <point x="336.78620689655173" y="715.5206896551725" type="line"/>
      <point x="336.78620689655173" y="760.0" type="line"/>
      <point x="269.7379310344827" y="760.0" type="line" smooth="yes"/>
      <point x="182.3586206896552" y="760.0"/>
      <point x="136.0551724137931" y="707.9172413793104"/>
      <point x="136.0551724137931" y="616.3655172413794" type="curve" smooth="yes"/>
      <point x="136.0551724137931" y="442.9172413793103" type="line" smooth="yes"/>
      <point x="136.0551724137931" y="363.1862068965517"/>
      <point x="92.3448275862069" y="341.7551724137931"/>
      <point x="35.33448275862069" y="339.7551724137931" type="curve"/>
      <point x="35.33448275862069" y="294.87931034482756" type="line"/>
      <point x="92.3448275862069" y="291.87931034482756"/>
      <point x="136.0551724137931" y="271.6413793103448"/>
      <point x="136.0551724137931" y="190.21034482758623" type="curve" smooth="yes"/>
      <point x="136.0551724137931" y="17.544827586206896" type="line" smooth="yes"/>
      <point x="136.0551724137931" y="-71.7896551724138"/>
      <point x="182.3586206896552" y="-127.36551724137931"/>
    </contour>
  </outline>
</glyph>
<glyph name="bar" format="2">
  <advance width="479.8034482758621"/>
  <unicode hex="007C"/>
  <outline>
    <contour>
      <point x="211.0896551724138" y="-240.0" type="line"/>
      <point x="267.71379310344827" y="-240.0" type="line"/>
      <point x="267.71379310344827" y="760.0" type="line"/>
      <point x="211.0896551724138" y="760.0" type="line"/>
    </contour>
  </outline>
</glyph>
<glyph name="braceright" format="2">
  <advance width="372.12068965517244"/>
  <unicode hex="007D"/>
  <outline>
    <contour>
      <point x="35.33448275862069" y="-127.36551724137931" type="line"/>
      <point x="102.88965517241378" y="-127.36551724137931" type="line" smooth="yes"/>
      <point x="190.26896551724138" y="-127.36551724137931"/>
      <point x="236.0655172413793" y="-71.7896551724138"/>
      <point x="236.0655172413793" y="17.544827586206896" type="curve" smooth="yes"/>
      <point x="236.0655172413793" y="190.21034482758623" type="line" smooth="yes"/>
      <point x="236.0655172413793" y="271.6413793103448"/>
      <point x="281.1758620689655" y="291.87931034482756"/>
      <point x="336.78620689655173" y="294.87931034482756" type="curve"/>
      <point x="336.78620689655173" y="339.7551724137931" type="line"/>
      <point x="281.1758620689655" y="341.7551724137931"/>
      <point x="236.0655172413793" y="363.1862068965517"/>
      <point x="236.0655172413793" y="442.9172413793103" type="curve" smooth="yes"/>
      <point x="236.0655172413793" y="616.3655172413794" type="line" smooth="yes"/>
      <point x="236.0655172413793" y="707.9172413793104"/>
      <point x="190.26896551724138" y="760.0"/>
      <point x="102.88965517241378" y="760.0" type="curve" smooth="yes"/>
      <point x="35.33448275862069" y="760.0" type="line"/>
      <point x="35.33448275862069" y="715.5206896551725" type="line"/>
      <point x="64.63103448275862" y="715.5206896551725" type="line" smooth="yes"/>
      <point x="114.87241379310345" y="715.5206896551725"/>
      <point x="130.75517241379308" y="679.8793103448276"/>
      <point x="130.75517241379308" y="611.6413793103449" type="curve" smooth="yes"/>
      <point x="130.75517241379308" y="440.9172413793103" type="line" smooth="yes"/>
      <point x="130.75517241379308" y="376.21034482758625"/>
      <point x="161.24482758620687" y="331.7551724137931"/>
      <point x="226.4655172413793" y="319.1862068965517" type="curve"/>
      <point x="226.4655172413793" y="316.6413793103448" type="line"/>
      <point x="160.07241379310344" y="302.87931034482756"/>
      <point x="130.75517241379308" y="258.6413793103448"/>
      <point x="130.75517241379308" y="193.21034482758623" type="curve" smooth="yes"/>
      <point x="130.75517241379308" y="20.76206896551724" type="line" smooth="yes"/>
      <point x="130.75517241379308" y="-46.244827586206895"/>
      <point x="114.87241379310345" y="-82.69310344827586"/>
      <point x="64.63103448275862" y="-82.69310344827586" type="curve" smooth="yes"/>
      <point x="35.33448275862069" y="-82.69310344827586" type="line"/>
    </contour>
  </outline>
</glyph>
<glyph name="asciitilde" format="2">
  <advance width="465.2"/>
  <unicode hex="007E"/>
  <outline>
    <contour>
      <point x="34.413793103448285" y="267.96206896551723" type="curve"/>
      <point x="92.49655172413794" y="267.96206896551723" type="line"/>
      <point x="98.22758620689655" y="348.6965517241379"/>
      <point x="113.06206896551723" y="385.8689655172414"/>
      <point x="146.35172413793103" y="385.8689655172414" type="curve" smooth="yes"/>
      <point x="169.0551724137931" y="385.8689655172414"/>
      <point x="185.2103448275862" y="367.6"/>
      <point x="216.8241379310345" y="332.5275862068966" type="curve" smooth="yes"/>
      <point x="262.2586206896551" y="281.02758620689656"/>
      <point x="289.21379310344827" y="267.96206896551723"/>
      <point x="323.9827586206897" y="267.96206896551723" type="curve" smooth="yes"/>
      <point x="404.00689655172414" y="267.96206896551723"/>
      <point x="426.8965517241379" y="361.67931034482757"/>
      <point x="432.39310344827584" y="445.5448275862069" type="curve"/>
      <point x="373.3103448275862" y="445.5448275862069" type="line"/>
      <point x="367.6793103448276" y="365.73448275862074"/>
      <point x="354.0620689655172" y="327.8310344827586"/>
      <point x="322.1275862068966" y="327.8310344827586" type="curve" smooth="yes"/>
      <point x="299.18275862068964" y="327.8310344827586"/>
      <point x="283.1551724137931" y="347.6241379310345"/>
      <point x="253.1862068965517" y="379.2689655172414" type="curve" smooth="yes"/>
      <point x="211.67931034482763" y="422.3586206896552"/>
      <point x="184.45862068965516" y="445.5448275862069"/>
      <point x="144.08620689655174" y="445.5448275862069" type="curve" smooth="yes"/>
      <point x="61.1551724137931" y="445.5448275862069"/>
      <point x="39.36206896551724" y="354.0275862068966"/>
    </contour>
  </outline>
</glyph>
<glyph name="twosuperior" format="2">
  <advance width="343.1310344827586"/>
  <unicode hex="00B2"/>
  <outline>
    <contour>
      <point x="31.327586206896548" y="387.0" type="line"/>
      <point x="300.71379310344827" y="387.0" type="line"/>
      <point x="303.2896551724138" y="513.051724137931" type="line"/>
      <point x="276.4758620689655" y="513.051724137931" type="line"/>
      <point x="272.2" y="490.3965517241379" type="line"/>
      <point x="268.2" y="468.5241379310345"/>
      <point x="260.83103448275864" y="451.4103448275862"/>
      <point x="235.3655172413793" y="451.4103448275862" type="curve"/>
      <point x="95.59310344827587" y="451.4103448275862" type="line"/>
      <point x="173.10344827586206" y="529.5551724137931" type="line"/>
      <point x="259.9206896551724" y="606.048275862069"/>
      <point x="292.77241379310345" y="644.9275862068965"/>
      <point x="292.77241379310345" y="711.7965517241379" type="curve" smooth="yes"/>
      <point x="292.77241379310345" y="782.203448275862"/>
      <point x="248.9931034482759" y="824.4931034482759"/>
      <point x="163.56206896551723" y="824.4931034482759" type="curve" smooth="yes"/>
      <point x="79.26206896551724" y="824.4931034482759"/>
      <point x="38.04827586206897" y="786.2"/>
      <point x="38.04827586206897" y="739.2137931034483" type="curve" smooth="yes"/>
      <point x="38.04827586206897" y="708.1862068965518"/>
      <point x="60.2" y="695.5551724137931"/>
      <point x="102.10000000000001" y="695.5551724137931" type="curve"/>
      <point x="102.10000000000001" y="750.1965517241379"/>
      <point x="116.83793103448278" y="786.1551724137931"/>
      <point x="158.58965517241379" y="786.1551724137931" type="curve" smooth="yes"/>
      <point x="194.78620689655173" y="786.1551724137931"/>
      <point x="211.3586206896552" y="756.2068965517242"/>
      <point x="211.3586206896552" y="709.948275862069" type="curve" smooth="yes"/>
      <point x="211.3586206896552" y="648.6482758620689"/>
      <point x="185.94827586206895" y="604.1724137931034"/>
      <point x="134.18275862068964" y="548.5862068965516" type="curve" smooth="yes"/>
      <point x="31.327586206896548" y="437.9758620689655" type="line"/>
    </contour>
  </outline>
</glyph>
<glyph name="threesuperior" format="2">
  <advance width="343.1310344827586"/>
  <unicode hex="00B3"/>
  <outline>
    <contour>
      <point x="151.43448275862067" y="380.0" type="curve" smooth="yes"/>
      <point x="237.68275862068964" y="380.0"/>
      <point x="306.4413793103448" y="421.47241379310344"/>
      <point x="306.4413793103448" y="509.0931034482758" type="curve" smooth="yes"/>
      <point x="306.4413793103448" y="580.1896551724138"/>
      <point x="255.00000000000006" y="603.4241379310346"/>
      <point x="206.39655172413794" y="612.0" type="curve"/>
      <point x="206.39655172413794" y="615.6" type="line"/>
      <point x="253.151724137931" y="630.9"/>
      <point x="292.048275862069" y="664.9"/>
      <point x="292.048275862069" y="723.6" type="curve" smooth="yes"/>
      <point x="292.048275862069" y="785.6"/>
      <point x="246.45862068965513" y="823.4931034482759"/>
      <point x="162.4" y="823.4931034482759" type="curve" smooth="yes"/>
      <point x="77.70344827586207" y="823.4931034482759"/>
      <point x="36.63448275862069" y="783.1551724137931"/>
      <point x="36.63448275862069" y="738.1862068965518" type="curve" smooth="yes"/>
      <point x="36.63448275862069" y="706.1068965517242"/>
      <point x="59.713793103448275" y="695.8137931034483"/>
      <point x="98.38620689655173" y="695.8137931034483" type="curve"/>
      <point x="98.38620689655173" y="745.6275862068966"/>
      <point x="109.56551724137931" y="785.5413793103448"/>
      <point x="156.36896551724138" y="785.5413793103448" type="curve" smooth="yes"/>
      <point x="192.44482758620688" y="785.5413793103448"/>
      <point x="209.9103448275862" y="762.5172413793103"/>
      <point x="209.9103448275862" y="716.9310344827586" type="curve" smooth="yes"/>
      <point x="209.9103448275862" y="663.9758620689655"/>
      <point x="181.10344827586206" y="629.6206896551724"/>
      <point x="133.58965517241379" y="629.6206896551724" type="curve" smooth="yes"/>
      <point x="103.19655172413793" y="629.6206896551724" type="line"/>
      <point x="103.19655172413793" y="589.6931034482759" type="line"/>
      <point x="132.38275862068969" y="589.6931034482759" type="line" smooth="yes"/>
      <point x="195.70344827586206" y="589.6931034482759"/>
      <point x="222.76551724137934" y="559.5448275862069"/>
      <point x="222.76551724137934" y="510.3689655172413" type="curve" smooth="yes"/>
      <point x="222.76551724137934" y="446.8655172413793"/>
      <point x="191.19655172413792" y="422.52758620689656"/>
      <point x="147.29310344827587" y="422.52758620689656" type="curve" smooth="yes"/>
      <point x="94.76896551724138" y="422.52758620689656"/>
      <point x="75.53448275862068" y="464.6241379310345"/>
      <point x="75.53448275862068" y="510.25172413793103" type="curve"/>
      <point x="45.11724137931035" y="510.25172413793103"/>
      <point x="27.403448275862065" y="493.81724137931036"/>
      <point x="27.403448275862065" y="462.77241379310345" type="curve" smooth="yes"/>
      <point x="27.403448275862065" y="413.77241379310345"/>
      <point x="67.59655172413794" y="380.0"/>
    </contour>
  </outline>
</glyph>
<glyph name="multiply" format="2">
  <advance width="465.2"/>
  <unicode hex="00D7"/>
  <outline>
    <contour>
      <point x="96.75862068965517" y="152.8793103448276" type="line"/>
      <point x="233.81379310344826" y="312.7793103448276" type="line"/>
      <point x="370.5655172413793" y="153.2655172413793" type="line"/>
      <point x="415.08620689655174" y="192.18620689655174" type="line"/>
      <point x="273.4344827586207" y="358.19310344827585" type="line"/>
      <point x="415.08620689655174" y="523.5" type="line"/>
      <point x="370.2896551724138" y="562.7206896551725" type="line"/>
      <point x="233.81379310344826" y="404.196551724138" type="line"/>
      <point x="97.45862068965516" y="563.3137931034482" type="line"/>
      <point x="52.1551724137931" y="524.393103448276" type="line"/>
      <point x="194.61724137931034" y="358.49310344827586" type="line"/>
      <point x="52.1551724137931" y="191.59310344827585" type="line"/>
    </contour>
  </outline>
</glyph>
<glyph name="divide" format="2">
  <advance width="465.2"/>
  <unicode hex="00F7"/>
  <outline>
    <contour>
      <point x="48.63448275862069" y="327.23793103448276" type="line"/>
      <point x="416.5655172413793" y="327.23793103448276" type="line"/>
      <point x="416.5655172413793" y="387.76206896551724" type="line"/>
      <point x="48.63448275862069" y="387.76206896551724" type="line"/>
    </contour>
    <contour>
      <point x="233.1" y="112.23793103448276" type="curve" smooth="yes"/>
      <point x="258.93448275862073" y="112.23793103448276"/>
      <point x="279.87931034482756" y="126.7896551724138"/>
      <point x="279.87931034482756" y="168.0" type="curve" smooth="yes"/>
      <point x="279.87931034482756" y="210.21034482758623"/>
      <point x="258.93448275862073" y="223.76206896551727"/>
      <point x="233.1" y="223.76206896551727" type="curve" smooth="yes"/>
      <point x="206.07241379310346" y="223.76206896551727"/>
      <point x="185.6206896551724" y="210.21034482758623"/>
      <point x="185.6206896551724" y="168.0" type="curve" smooth="yes"/>
      <point x="185.6206896551724" y="126.7896551724138"/>
      <point x="206.07241379310346" y="112.23793103448276"/>
    </contour>
    <contour>
      <point x="233.1" y="491.23793103448276" type="curve" smooth="yes"/>
      <point x="258.93448275862073" y="491.23793103448276"/>
      <point x="279.87931034482756" y="505.78965517241375"/>
      <point x="279.87931034482756" y="547.0" type="curve" smooth="yes"/>
      <point x="279.87931034482756" y="589.2103448275861"/>
      <point x="258.93448275862073" y="602.7620689655172"/>
      <point x="233.1" y="602.7620689655172" type="curve" smooth="yes"/>
      <point x="206.07241379310346" y="602.7620689655172"/>
      <point x="185.6206896551724" y="589.2103448275861"/>
      <point x="185.6206896551724" y="547.0" type="curve" smooth="yes"/>
      <point x="185.6206896551724" y="505.78965517241375"/>
      <point x="206.07241379310346" y="491.23793103448276"/>
    </contour>
  </outline>
</glyph>
<glyph name="udatta-deva" format="2">
  <unicode hex="0951"/>
  <anchor x="0.0" y="556.8689655172413" name="_vedic"/>
  <outline>
    <contour>
      <point x="-27.64137931034483" y="920.851724137931" type="line"/>
      <point x="27.64137931034483" y="920.851724137931" type="line"/>
      <point x="27.64137931034483" y="1117.8379310344826" type="line"/>
      <point x="-27.64137931034483" y="1117.8379310344826" type="line"/>
    </contour>
  </outline>
</glyph>
<glyph name="anudatta-deva" format="2">
  <unicode hex="0952"/>
  <anchor x="0.0" y="0.0" name="_bottom"/>
  <outline>
    <contour>
      <point x="-202.72413793103448" y="-538.2" type="line"/>
      <point x="202.72413793103448" y="-538.2" type="line"/>
      <point x="202.72413793103448" y="-466.12413793103445" type="line"/>
      <point x="-202.72413793103448" y="-466.12413793103445" type="line"/>
    </contour>
  </outline>
</glyph>
<glyph name="danda-deva" format="2">
  <advance width="273.29999999999995"/>
  <unicode hex="0964"/>
  <outline>
    <contour>
      <point x="82.7896551724138" y="0.0" type="line"/>
      <point x="190.31724137931033" y="0.0" type="line"/>
      <point x="190.31724137931033" y="556.8689655172413" type="line"/>
      <point x="82.7896551724138" y="556.8689655172413" type="line"/>
    </contour>
  </outline>
</glyph>
<glyph name="dbldanda-deva" format="2">
  <advance width="494.79310344827593"/>
  <unicode hex="0965"/>
  <outline>
    <contour>
      <point x="304.4758620689655" y="0.0" type="line"/>
      <point x="412.00344827586207" y="0.0" type="line"/>
      <point x="412.00344827586207" y="556.8689655172413" type="line"/>
      <point x="304.4758620689655" y="556.8689655172413" type="line"/>
    </contour>
    <contour>
      <point x="82.7896551724138" y="0.0" type="line"/>
      <point x="190.31724137931033" y="0.0" type="line"/>
      <point x="190.31724137931033" y="556.8689655172413" type="line"/>
      <point x="82.7896551724138" y="556.8689655172413" type="line"/>
    </contour>
  </outline>
</glyph>
<glyph name="anusvara-tamil" format="2">
  <unicode hex="0B82"/>
  <note>
uni0B82
</note>
  <anchor x="0.0" y="556.8689655172413" name="_top"/>
  <outline>
    <contour>
      <point x="0.0" y="630.9586206896552" type="curve" smooth="yes"/>
      <point x="65.86896551724138" y="630.9586206896552"/>
      <point x="115.36206896551725" y="676.751724137931"/>
      <point x="115.36206896551725" y="743.3758620689655" type="curve" smooth="yes"/>
      <point x="115.36206896551725" y="809.7103448275861"/>
      <point x="65.86896551724138" y="855.8172413793103"/>
      <point x="0.0" y="855.8172413793103" type="curve" smooth="yes"/>
      <point x="-65.86896551724138" y="855.8172413793103"/>
      <point x="-115.36206896551725" y="809.7103448275861"/>
      <point x="-115.36206896551725" y="743.3758620689655" type="curve" smooth="yes"/>
      <point x="-115.36206896551725" y="676.751724137931"/>
      <point x="-65.86896551724138" y="630.9586206896552"/>
    </contour>
    <contour>
      <point x="0.0" y="689.951724137931" type="curve" smooth="yes"/>
      <point x="-30.137931034482754" y="689.951724137931"/>
      <point x="-51.9448275862069" y="712.0724137931035"/>
      <point x="-51.9448275862069" y="743.3758620689655" type="curve" smooth="yes"/>
      <point x="-51.9448275862069" y="774.8137931034482"/>
      <point x="-30.137931034482754" y="796.9344827586207"/>
      <point x="0.0" y="796.9344827586207" type="curve" smooth="yes"/>
      <point x="30.137931034482754" y="796.9344827586207"/>
      <point x="51.9448275862069" y="774.8137931034482"/>
      <point x="51.9448275862069" y="743.3758620689655" type="curve" smooth="yes"/>
      <point x="51.9448275862069" y="712.0724137931035"/>
      <point x="30.137931034482754" y="689.951724137931"/>
    </contour>
  </outline>
</glyph>
<glyph name="visarga-tamil" format="2">
  <advance width="759.8206896551723"/>
  <unicode hex="0B83"/>
  <note>
uni0B83
</note>
  <outline>
    <contour>
      <point x="559.8827586206896" y="-0.8000000000000003" type="curve" smooth="yes"/>
      <point x="647.1344827586207" y="-0.8000000000000003"/>
      <point x="707.3793103448276" y="73.04137931034482"/>
      <point x="707.3793103448276" y="185.1103448275862" type="curve" smooth="yes"/>
      <point x="707.3793103448276" y="296.26206896551724"/>
      <point x="647.6413793103447" y="370.0206896551724"/>
      <point x="560.7758620689655" y="370.0206896551724" type="curve" smooth="yes"/>
      <point x="473.4689655172413" y="370.0206896551724"/>
      <point x="418.8862068965517" y="294.2758620689655"/>
      <point x="418.8862068965517" y="184.53103448275863" type="curve" smooth="yes"/>
      <point x="418.8862068965517" y="74.64137931034483"/>
      <point x="472.38275862068963" y="-0.8000000000000003"/>
    </contour>
    <contour>
      <point x="193.48275862068965" y="-0.8000000000000003" type="curve" smooth="yes"/>
      <point x="280.7344827586207" y="-0.8000000000000003"/>
      <point x="340.7034482758621" y="73.04137931034482"/>
      <point x="340.7034482758621" y="185.1103448275862" type="curve" smooth="yes"/>
      <point x="340.7034482758621" y="296.26206896551724"/>
      <point x="281.048275862069" y="370.0206896551724"/>
      <point x="194.18275862068967" y="370.0206896551724" type="curve" smooth="yes"/>
      <point x="107.3" y="370.0206896551724"/>
      <point x="52.93448275862069" y="294.2758620689655"/>
      <point x="52.93448275862069" y="184.53103448275863" type="curve" smooth="yes"/>
      <point x="52.93448275862069" y="74.64137931034483"/>
      <point x="106.21379310344827" y="-0.8000000000000003"/>
    </contour>
    <contour>
      <point x="378.3310344827586" y="416.85517241379307" type="curve" smooth="yes"/>
      <point x="465.5827586206897" y="416.85517241379307"/>
      <point x="525.7448275862068" y="490.3034482758621"/>
      <point x="525.7448275862068" y="601.9586206896552" type="curve" smooth="yes"/>
      <point x="525.7448275862068" y="713.8344827586207"/>
      <point x="466.0896551724138" y="786.8689655172413"/>
      <point x="379.2241379310344" y="786.8689655172413" type="curve" smooth="yes"/>
      <point x="292.4241379310345" y="786.8689655172413"/>
      <point x="237.75862068965515" y="711.848275862069"/>
      <point x="237.75862068965515" y="601.5724137931034" type="curve" smooth="yes"/>
      <point x="237.75862068965515" y="491.68275862068964"/>
      <point x="291.3379310344827" y="416.85517241379307"/>
    </contour>
    <contour>
      <point x="180.98275862068965" y="53.89655172413793" type="curve" smooth="yes"/>
      <point x="132.59310344827585" y="53.89655172413793"/>
      <point x="103.79310344827586" y="105.03793103448275"/>
      <point x="103.79310344827586" y="185.1103448275862" type="curve" smooth="yes"/>
      <point x="103.79310344827586" y="263.4827586206896"/>
      <point x="132.78620689655173" y="314.8172413793103"/>
      <point x="181.36896551724138" y="314.8172413793103" type="curve" smooth="yes"/>
      <point x="232.1448275862069" y="314.8172413793103"/>
      <point x="260.151724137931" y="270.4103448275862"/>
      <point x="260.151724137931" y="185.1103448275862" type="curve" smooth="yes"/>
      <point x="260.151724137931" y="98.4"/>
      <point x="232.1448275862069" y="53.89655172413793"/>
    </contour>
    <contour>
      <point x="366.10689655172416" y="471.33448275862065" type="curve" smooth="yes"/>
      <point x="317.6344827586207" y="471.33448275862065"/>
      <point x="288.9172413793103" y="522.5862068965517"/>
      <point x="288.9172413793103" y="601.9586206896552" type="curve" smooth="yes"/>
      <point x="288.9172413793103" y="680.8379310344827"/>
      <point x="317.6344827586207" y="732.1724137931035"/>
      <point x="366.3" y="732.1724137931035" type="curve" smooth="yes"/>
      <point x="417.2689655172414" y="732.1724137931035"/>
      <point x="444.9758620689655" y="687.4758620689656"/>
      <point x="444.9758620689655" y="601.9586206896552" type="curve" smooth="yes"/>
      <point x="444.9758620689655" y="515.9724137931034"/>
      <point x="417.07586206896553" y="471.33448275862065"/>
    </contour>
    <contour>
      <point x="547.6586206896551" y="53.89655172413793" type="curve" smooth="yes"/>
      <point x="499.2689655172414" y="53.89655172413793"/>
      <point x="469.7689655172414" y="105.03793103448275"/>
      <point x="469.7689655172414" y="185.1103448275862" type="curve" smooth="yes"/>
      <point x="469.7689655172414" y="263.4827586206896"/>
      <point x="499.2689655172414" y="314.8172413793103"/>
      <point x="547.851724137931" y="314.8172413793103" type="curve" smooth="yes"/>
      <point x="598.8206896551724" y="314.8172413793103"/>
      <point x="626.744827586207" y="270.4103448275862"/>
      <point x="626.744827586207" y="185.1103448275862" type="curve" smooth="yes"/>
      <point x="626.744827586207" y="98.4"/>
      <point x="598.6275862068965" y="53.89655172413793"/>
    </contour>
  </outline>
</glyph>
<glyph name="a-tamil" format="2">
  <advance width="1107.3689655172413"/>
  <unicode hex="0B85"/>
  <note>
uni0B85
</note>
  <anchor x="537.3241379310346" y="0.0" name="bottom"/>
  <anchor x="378.31379310344835" y="-127.87586206896552" name="nukta"/>
  <anchor x="545.1137931034483" y="556.8689655172413" name="top"/>
  <anchor x="546.3206896551724" y="556.8689655172413" name="vedic"/>
  <outline>
    <contour>
      <point x="920.9620689655172" y="-194.56896551724137" type="line"/>
      <point x="1028.0758620689655" y="-194.56896551724137" type="line"/>
      <point x="1028.0758620689655" y="556.8689655172413" type="line"/>
      <point x="920.9620689655172" y="556.8689655172413" type="line"/>
      <point x="920.9620689655172" y="169.15172413793104" type="line"/>
      <point x="109.17241379310346" y="169.15172413793104" type="line" smooth="yes"/>
      <point x="59.43103448275861" y="169.15172413793104"/>
      <point x="33.32068965517241" y="139.91034482758621"/>
      <point x="33.32068965517241" y="94.75172413793103" type="curve" smooth="yes"/>
      <point x="33.32068965517241" y="-4.717241379310347"/>
      <point x="167.08620689655174" y="-127.87586206896552"/>
      <point x="378.31379310344835" y="-127.87586206896552" type="curve" smooth="yes"/>
      <point x="638.6793103448275" y="-127.87586206896552"/>
      <point x="807.3172413793104" y="11.813793103448274"/>
      <point x="807.3172413793104" y="247.10344827586206" type="curve" smooth="yes"/>
      <point x="807.3172413793104" y="441.5310344827586"/>
      <point x="688.1655172413793" y="561.8689655172413"/>
      <point x="528.6517241379311" y="561.8689655172413" type="curve" smooth="yes"/>
      <point x="410.3448275862069" y="561.8689655172413"/>
      <point x="331.9689655172414" y="493.1862068965517"/>
      <point x="331.9689655172414" y="383.17931034482757" type="curve" smooth="yes"/>
      <point x="331.9689655172414" y="302.3379310344828"/>
      <point x="387.92758620689654" y="241.20689655172416"/>
      <point x="467.72413793103453" y="241.20689655172416" type="curve" smooth="yes"/>
      <point x="546.1344827586207" y="241.20689655172416"/>
      <point x="598.8310344827586" y="291.9172413793104"/>
      <point x="598.8310344827586" y="374.5724137931034" type="curve" smooth="yes"/>
      <point x="598.8310344827586" y="450.1793103448276"/>
      <point x="543.8620689655173" y="512.7517241379311"/>
      <point x="481.11034482758623" y="520.9586206896552" type="curve"/>
      <point x="433.1896551724138" y="516.6344827586207" type="line"/>
      <point x="480.82758620689657" y="499.3379310344828"/>
      <point x="515.2620689655173" y="440.35172413793106"/>
      <point x="515.2620689655173" y="385.6137931034483" type="curve" smooth="yes"/>
      <point x="515.2620689655173" y="337.33103448275864"/>
      <point x="493.155172413793" y="300.75172413793103"/>
      <point x="451.14482758620693" y="300.75172413793103" type="curve" smooth="yes"/>
      <point x="416.42758620689654" y="300.75172413793103"/>
      <point x="386.81724137931036" y="327.58620689655174"/>
      <point x="386.81724137931036" y="382.6896551724138" type="curve" smooth="yes"/>
      <point x="386.81724137931036" y="457.9379310344828"/>
      <point x="436.71379310344827" y="505.6620689655172"/>
      <point x="515.5862068965517" y="505.6620689655172" type="curve" smooth="yes"/>
      <point x="613.8000000000001" y="505.6620689655172"/>
      <point x="701.9551724137932" y="412.1655172413793"/>
      <point x="701.9551724137932" y="251.6" type="curve" smooth="yes"/>
      <point x="701.9551724137932" y="48.28275862068965"/>
      <point x="563.0620689655173" y="-71.66896551724138"/>
      <point x="369.8379310344828" y="-71.66896551724138" type="curve" smooth="yes"/>
      <point x="203.00689655172417" y="-71.66896551724138"/>
      <point x="93.16206896551724" y="22.48965517241379"/>
      <point x="93.16206896551724" y="86.58620689655173" type="curve" smooth="yes"/>
      <point x="93.16206896551724" y="102.9448275862069"/>
      <point x="100.20689655172414" y="113.22068965517241"/>
      <point x="121.60689655172415" y="113.22068965517241" type="curve" smooth="yes"/>
      <point x="920.9620689655172" y="113.22068965517241" type="line"/>
    </contour>
  </outline>
</glyph>
<glyph name="aa-tamil" format="2">
  <advance width="1265.7344827586207"/>
  <unicode hex="0B86"/>
  <note>
uni0B86
</note>
  <anchor x="615.9068965517241" y="0.0" name="bottom"/>
  <anchor x="378.31379310344835" y="-127.87586206896552" name="nukta"/>
  <anchor x="623.8310344827587" y="556.8689655172413" name="top"/>
  <anchor x="624.396551724138" y="556.8689655172413" name="vedic"/>
  <outline>
    <contour>
      <point x="867.1344827586206" y="-420.41379310344826" type="curve" smooth="yes"/>
      <point x="1054.4379310344827" y="-420.41379310344826"/>
      <point x="1245.0344827586207" y="-302.3827586206897"/>
      <point x="1245.0344827586207" y="-96.63103448275862" type="curve" smooth="yes"/>
      <point x="1245.0344827586207" y="1.4655172413793103"/>
      <point x="1201.096551724138" y="55.56551724137931"/>
      <point x="1129.141379310345" y="55.56551724137931" type="curve" smooth="yes"/>
      <point x="1052.7344827586205" y="55.56551724137931"/>
      <point x="1007.3034482758623" y="-9.544827586206894"/>
      <point x="1000.848275862069" y="-103.93448275862069" type="curve"/>
      <point x="1023.803448275862" y="-112.72068965517241" type="line"/>
      <point x="1023.1034482758621" y="-59.227586206896554"/>
      <point x="1053.441379310345" y="-29.272413793103446"/>
      <point x="1085.0413793103448" y="-29.272413793103446" type="curve" smooth="yes"/>
      <point x="1121.2103448275861" y="-29.272413793103446"/>
      <point x="1142.5068965517241" y="-56.23793103448276"/>
      <point x="1142.5068965517241" y="-106.77586206896551" type="curve" smooth="yes"/>
      <point x="1141.8068965517243" y="-271.86206896551727"/>
      <point x="992.0241379310345" y="-364.6758620689655"/>
      <point x="858.4793103448276" y="-364.6758620689655" type="curve" smooth="yes"/>
      <point x="780.5241379310345" y="-364.6758620689655"/>
      <point x="709.0689655172413" y="-337.9896551724138"/>
      <point x="709.0689655172413" y="-273.55172413793105" type="curve" smooth="yes"/>
      <point x="709.0689655172413" y="-227.67586206896553"/>
      <point x="742.6448275862068" y="-198.98275862068965"/>
      <point x="799.2034482758621" y="-187.64827586206897" type="curve"/>
      <point x="785.6137931034482" y="-133.10344827586206" type="line"/>
      <point x="702.3724137931035" y="-152.38620689655173"/>
      <point x="650.244827586207" y="-199.2448275862069"/>
      <point x="650.244827586207" y="-269.0206896551724" type="curve" smooth="yes"/>
      <point x="650.244827586207" y="-369.15862068965515"/>
      <point x="746.3379310344827" y="-420.41379310344826"/>
    </contour>
    <component base="a-tamil"/>
  </outline>
</glyph>
<glyph name="i-tamil" format="2">
  <advance width="863.3586206896553"/>
  <unicode hex="0B87"/>
  <note>
uni0B87
</note>
  <anchor x="414.9758620689655" y="0.0" name="bottom"/>
  <anchor x="412.9758620689655" y="-270.58620689655174" name="nukta"/>
  <anchor x="428.16551724137935" y="825.1034482758621" name="top"/>
  <anchor x="420.9758620689655" y="556.8689655172413" name="vedic"/>
  <outline>
    <contour>
      <point x="202.92068965517242" y="-302.59999999999997" type="curve" smooth="yes"/>
      <point x="460.7275862068966" y="-302.59999999999997"/>
      <point x="662.244827586207" y="-44.08965517241379"/>
      <point x="662.244827586207" y="236.93103448275863" type="curve" smooth="yes"/>
      <point x="662.244827586207" y="435.6068965517241"/>
      <point x="563.5206896551724" y="561.8689655172413"/>
      <point x="407.1413793103448" y="561.8689655172413" type="curve" smooth="yes"/>
      <point x="299.42413793103447" y="561.8689655172413"/>
      <point x="219.6655172413793" y="495.9103448275862"/>
      <point x="219.6655172413793" y="381.11724137931037" type="curve" smooth="yes"/>
      <point x="219.6655172413793" y="297.351724137931"/>
      <point x="275.7448275862069" y="242.75862068965517"/>
      <point x="346.97586206896545" y="242.75862068965517" type="curve" smooth="yes"/>
      <point x="424.2793103448276" y="242.75862068965517"/>
      <point x="474.4655172413793" y="293.72413793103453"/>
      <point x="474.4655172413793" y="372.64827586206894" type="curve" smooth="yes"/>
      <point x="474.4655172413793" y="438.26206896551724"/>
      <point x="430.50344827586207" y="502.0896551724138"/>
      <point x="357.1206896551724" y="520.1448275862068" type="curve"/>
      <point x="308.1793103448276" y="514.2896551724137" type="line"/>
      <point x="358.76206896551724" y="497.63448275862066"/>
      <point x="391.34482758620686" y="441.32413793103444"/>
      <point x="391.34482758620686" y="384.1103448275862" type="curve" smooth="yes"/>
      <point x="391.34482758620686" y="336.33103448275864"/>
      <point x="370.7310344827587" y="301.1241379310345"/>
      <point x="331.44827586206895" y="301.1241379310345" type="curve" smooth="yes"/>
      <point x="296.2068965517241" y="301.1241379310345"/>
      <point x="273.76896551724144" y="333.1724137931035"/>
      <point x="273.76896551724144" y="381.048275862069" type="curve" smooth="yes"/>
      <point x="273.76896551724144" y="457.2137931034483"/>
      <point x="318.27931034482765" y="505.7448275862069"/>
      <point x="394.91034482758624" y="505.7448275862069" type="curve" smooth="yes"/>
      <point x="505.77586206896547" y="505.7448275862069"/>
      <point x="557.4620689655172" y="401.31724137931036"/>
      <point x="557.4620689655172" y="257.58620689655174" type="curve" smooth="yes"/>
      <point x="557.4620689655172" y="-3.1448275862068975"/>
      <point x="440.1551724137931" y="-246.20000000000002"/>
      <point x="210.2344827586207" y="-246.20000000000002" type="curve" smooth="yes"/>
      <point x="144.69655172413792" y="-246.20000000000002"/>
      <point x="105.22068965517241" y="-213.73103448275864"/>
      <point x="105.22068965517241" y="-152.15862068965518" type="curve" smooth="yes"/>
      <point x="105.22068965517241" y="-22.096551724137935"/>
      <point x="267.4" y="54.54482758620689"/>
      <point x="408.9655172413793" y="54.54482758620689" type="curve" smooth="yes"/>
      <point x="551.3551724137931" y="54.54482758620689"/>
      <point x="720.8517241379311" y="-12.093103448275864"/>
      <point x="720.8517241379311" y="-145.18275862068967" type="curve" smooth="yes"/>
      <point x="720.8517241379311" y="-217.66551724137935"/>
      <point x="670.4068965517241" y="-246.20000000000002"/>
      <point x="601.3172413793104" y="-246.20000000000002" type="curve" smooth="yes"/>
      <point x="379.51034482758627" y="-246.20000000000002"/>
      <point x="122.60689655172413" y="76.47241379310344"/>
      <point x="122.60689655172413" y="379.1275862068965" type="curve" smooth="yes"/>
      <point x="122.60689655172413" y="634.748275862069"/>
      <point x="260.56206896551726" y="727.9413793103448"/>
      <point x="427.49310344827586" y="727.9413793103448" type="curve" smooth="yes"/>
      <point x="635.7482758620689" y="727.9413793103448"/>
      <point x="751.6931034482758" y="580.5413793103447"/>
      <point x="751.6931034482758" y="350.09655172413795" type="curve" smooth="yes"/>
      <point x="751.6931034482758" y="89.22758620689656" type="line"/>
      <point x="810.5172413793105" y="89.22758620689656" type="line"/>
      <point x="810.5172413793105" y="351.6965517241379" type="line" smooth="yes"/>
      <point x="810.5172413793105" y="669.506896551724"/>
      <point x="667.8413793103448" y="825.1034482758621"/>
      <point x="428.16551724137935" y="825.1034482758621" type="curve" smooth="yes"/>
      <point x="205.9758620689655" y="825.1034482758621"/>
      <point x="57.01379310344827" y="665.951724137931"/>
      <point x="57.01379310344827" y="416.38275862068963" type="curve" smooth="yes"/>
      <point x="57.01379310344827" y="59.20344827586206"/>
      <point x="337.0862068965517" y="-302.51724137931035"/>
      <point x="623.6344827586207" y="-302.51724137931035" type="curve" smooth="yes"/>
      <point x="716.1827586206897" y="-302.51724137931035"/>
      <point x="786.6379310344829" y="-252.1896551724138"/>
      <point x="786.6379310344829" y="-159.40344827586205" type="curve" smooth="yes"/>
      <point x="786.6379310344829" y="23.113793103448273"/>
      <point x="586.7586206896552" y="109.17241379310344"/>
      <point x="408.85517241379307" y="109.17241379310344" type="curve" smooth="yes"/>
      <point x="229.88620689655173" y="109.17241379310344"/>
      <point x="41.148275862068964" y="17.737931034482763"/>
      <point x="41.148275862068964" y="-152.96896551724137" type="curve" smooth="yes"/>
      <point x="41.148275862068964" y="-248.43103448275863"/>
      <point x="108.52068965517242" y="-302.59999999999997"/>
    </contour>
  </outline>
</glyph>
<glyph name="ii-tamil" format="2">
  <advance width="680.0137931034484"/>
  <unicode hex="0B88"/>
  <note>
uni0B88
</note>
  <anchor x="353.0206896551724" y="0.0" name="bottom"/>
  <anchor x="353.5275862068966" y="0.0" name="nukta"/>
  <anchor x="355.21379310344827" y="556.8689655172413" name="top"/>
  <anchor x="355.8034482758621" y="556.8689655172413" name="vedic"/>
  <outline>
    <contour>
      <point x="79.11379310344827" y="0.0" type="line"/>
      <point x="138.58965517241379" y="0.0" type="line"/>
      <point x="138.58965517241379" y="501.13103448275865" type="line"/>
      <point x="358.6724137931035" y="501.13103448275865" type="line"/>
      <point x="358.6724137931035" y="0.0" type="line"/>
      <point x="466.75172413793103" y="0.0" type="line"/>
      <point x="466.75172413793103" y="501.13103448275865" type="line"/>
      <point x="635.4344827586208" y="501.13103448275865" type="line"/>
      <point x="635.4344827586208" y="556.8689655172413" type="line"/>
      <point x="79.11379310344827" y="556.8689655172413" type="line"/>
    </contour>
    <contour>
      <point x="247.9310344827586" y="209.98275862068965" type="curve" smooth="yes"/>
      <point x="279.7137931034483" y="209.98275862068965"/>
      <point x="304.74137931034477" y="235.8310344827586"/>
      <point x="304.74137931034477" y="265.63793103448273" type="curve" smooth="yes"/>
      <point x="304.74137931034477" y="295.1448275862069"/>
      <point x="279.9068965517242" y="320.4862068965517"/>
      <point x="248.12413793103448" y="320.4862068965517" type="curve" smooth="yes"/>
      <point x="215.64137931034483" y="320.4862068965517"/>
      <point x="190.80689655172415" y="295.1448275862069"/>
      <point x="190.80689655172415" y="265.63793103448273" type="curve" smooth="yes"/>
      <point x="190.80689655172415" y="235.8310344827586"/>
      <point x="215.64137931034483" y="209.98275862068965"/>
    </contour>
    <contour>
      <point x="576.0103448275862" y="209.98275862068965" type="curve" smooth="yes"/>
      <point x="608.0931034482759" y="209.98275862068965"/>
      <point x="632.8206896551724" y="235.8310344827586"/>
      <point x="632.8206896551724" y="265.63793103448273" type="curve" smooth="yes"/>
      <point x="632.8206896551724" y="295.1448275862069"/>
      <point x="608.2862068965518" y="320.4862068965517"/>
      <point x="576.2034482758621" y="320.4862068965517" type="curve" smooth="yes"/>
      <point x="543.7206896551724" y="320.4862068965517"/>
      <point x="519.1034482758621" y="295.1448275862069"/>
      <point x="519.1034482758621" y="265.63793103448273" type="curve" smooth="yes"/>
      <point x="519.1034482758621" y="235.8310344827586"/>
      <point x="543.7206896551724" y="209.98275862068965"/>
    </contour>
  </outline>
</glyph>
<glyph name="u-tamil" format="2">
  <advance width="835.041379310345"/>
  <unicode hex="0B89"/>
  <note>
uni0B89
</note>
  <anchor x="441.41379310344837" y="0.0" name="bottom"/>
  <anchor x="441.92068965517245" y="0.0" name="nukta"/>
  <anchor x="444.9793103448275" y="556.8689655172413" name="top"/>
  <anchor x="444.41379310344837" y="556.8689655172413" name="vedic"/>
  <outline>
    <contour>
      <point x="136.21724137931034" y="0.0" type="curve" smooth="yes"/>
      <point x="818.8241379310346" y="0.0" type="line"/>
      <point x="818.8241379310346" y="55.93103448275862" type="line"/>
      <point x="135.81724137931036" y="55.93103448275862" type="line" smooth="yes"/>
      <point x="117.69999999999999" y="55.93103448275862"/>
      <point x="98.47241379310344" y="70.65517241379311"/>
      <point x="98.47241379310344" y="94.66206896551725" type="curve" smooth="yes"/>
      <point x="98.47241379310344" y="119.47586206896553"/>
      <point x="117.50689655172413" y="134.11724137931034"/>
      <point x="135.81724137931036" y="134.11724137931034" type="curve" smooth="yes"/>
      <point x="330.0" y="134.11724137931034" type="line" smooth="yes"/>
      <point x="464.451724137931" y="134.11724137931034"/>
      <point x="562.9931034482759" y="198.89655172413794"/>
      <point x="562.9931034482759" y="336.3034482758621" type="curve" smooth="yes"/>
      <point x="562.9931034482759" y="482.68275862068964"/>
      <point x="454.86896551724135" y="561.8689655172413"/>
      <point x="315.0724137931034" y="561.8689655172413" type="curve" smooth="yes"/>
      <point x="193.90344827586208" y="561.8689655172413"/>
      <point x="113.07931034482758" y="491.74137931034477"/>
      <point x="113.07931034482758" y="382.98275862068965" type="curve" smooth="yes"/>
      <point x="113.07931034482758" y="301.71724137931034"/>
      <point x="164.57931034482758" y="245.5103448275862"/>
      <point x="241.16896551724142" y="245.5103448275862" type="curve" smooth="yes"/>
      <point x="317.8379310344828" y="245.5103448275862"/>
      <point x="370.0310344827586" y="293.17241379310343"/>
      <point x="370.0310344827586" y="373.6310344827586" type="curve" smooth="yes"/>
      <point x="370.0310344827586" y="448.26206896551724"/>
      <point x="318.3413793103448" y="511.4068965517242"/>
      <point x="256.38275862068963" y="520.5724137931035" type="curve"/>
      <point x="208.33793103448278" y="517.2137931034482" type="line"/>
      <point x="256.34482758620686" y="498.7586206896552"/>
      <point x="287.04137931034484" y="438.7758620689655"/>
      <point x="287.04137931034484" y="384.7" type="curve" smooth="yes"/>
      <point x="287.04137931034484" y="335.8827586206897"/>
      <point x="266.64827586206894" y="303.4551724137931"/>
      <point x="227.55517241379312" y="303.4551724137931" type="curve" smooth="yes"/>
      <point x="193.85172413793106" y="303.4551724137931"/>
      <point x="167.7103448275862" y="329.18275862068964"/>
      <point x="167.7103448275862" y="381.7482758620689" type="curve" smooth="yes"/>
      <point x="167.7103448275862" y="457.4103448275862"/>
      <point x="219.4896551724138" y="506.048275862069"/>
      <point x="297.3724137931035" y="506.048275862069" type="curve" smooth="yes"/>
      <point x="386.6655172413793" y="506.048275862069"/>
      <point x="457.53448275862064" y="448.21379310344827"/>
      <point x="457.53448275862064" y="348.55862068965513" type="curve" smooth="yes"/>
      <point x="457.53448275862064" y="243.80689655172412"/>
      <point x="404.3379310344828" y="188.57931034482758"/>
      <point x="314.43793103448274" y="188.57931034482758" type="curve" smooth="yes"/>
      <point x="136.21724137931034" y="188.57931034482758" type="line" smooth="yes"/>
      <point x="82.0655172413793" y="188.57931034482758"/>
      <point x="42.741379310344826" y="154.82758620689654"/>
      <point x="42.741379310344826" y="94.66206896551725" type="curve" smooth="yes"/>
      <point x="42.741379310344826" y="35.11034482758621"/>
      <point x="82.25862068965516" y="0.0"/>
    </contour>
  </outline>
</glyph>
<glyph name="uu-tamil" format="2">
  <advance width="1448.0827586206897"/>
  <unicode hex="0B8A"/>
  <note>
uni0B8A
</note>
  <anchor x="745.1586206896552" y="0.0" name="bottom"/>
  <anchor x="745.3758620689656" y="0.0" name="nukta"/>
  <anchor x="747.796551724138" y="556.8689655172413" name="top"/>
  <anchor x="748.1586206896552" y="556.8689655172413" name="vedic"/>
  <outline>
    <contour>
      <point x="132.78965517241377" y="0.0" type="curve" smooth="yes"/>
      <point x="1417.9275862068964" y="0.0" type="line"/>
      <point x="1417.9275862068964" y="55.93103448275862" type="line"/>
      <point x="132.3896551724138" y="55.93103448275862" type="line" smooth="yes"/>
      <point x="113.57241379310345" y="55.93103448275862"/>
      <point x="98.47241379310344" y="70.65517241379311"/>
      <point x="98.47241379310344" y="94.66206896551725" type="curve" smooth="yes"/>
      <point x="98.47241379310344" y="119.47586206896553"/>
      <point x="113.57241379310345" y="134.11724137931034"/>
      <point x="132.3896551724138" y="134.11724137931034" type="curve" smooth="yes"/>
      <point x="330.0" y="134.11724137931034" type="line" smooth="yes"/>
      <point x="464.451724137931" y="134.11724137931034"/>
      <point x="562.9931034482759" y="198.89655172413794"/>
      <point x="562.9931034482759" y="336.3034482758621" type="curve" smooth="yes"/>
      <point x="562.9931034482759" y="482.68275862068964"/>
      <point x="454.86896551724135" y="561.8689655172413"/>
      <point x="315.0724137931034" y="561.8689655172413" type="curve" smooth="yes"/>
      <point x="193.90344827586208" y="561.8689655172413"/>
      <point x="113.07931034482758" y="491.74137931034477"/>
      <point x="113.07931034482758" y="382.98275862068965" type="curve" smooth="yes"/>
      <point x="113.07931034482758" y="301.71724137931034"/>
      <point x="164.57931034482758" y="245.5103448275862"/>
      <point x="241.16896551724142" y="245.5103448275862" type="curve" smooth="yes"/>
      <point x="317.8379310344828" y="245.5103448275862"/>
      <point x="370.0310344827586" y="293.17241379310343"/>
      <point x="370.0310344827586" y="373.6310344827586" type="curve" smooth="yes"/>
      <point x="370.0310344827586" y="448.26206896551724"/>
      <point x="318.3413793103448" y="511.4068965517242"/>
      <point x="256.38275862068963" y="520.5724137931035" type="curve"/>
      <point x="208.33793103448278" y="517.2137931034482" type="line"/>
      <point x="256.34482758620686" y="498.7586206896552"/>
      <point x="287.04137931034484" y="438.7758620689655"/>
      <point x="287.04137931034484" y="384.7" type="curve" smooth="yes"/>
      <point x="287.04137931034484" y="335.8827586206897"/>
      <point x="266.64827586206894" y="303.4551724137931"/>
      <point x="227.55517241379312" y="303.4551724137931" type="curve" smooth="yes"/>
      <point x="193.85172413793106" y="303.4551724137931"/>
      <point x="167.7103448275862" y="329.18275862068964"/>
      <point x="167.7103448275862" y="381.7482758620689" type="curve" smooth="yes"/>
      <point x="167.7103448275862" y="457.4103448275862"/>
      <point x="219.4896551724138" y="506.048275862069"/>
      <point x="297.3724137931035" y="506.048275862069" type="curve" smooth="yes"/>
      <point x="386.6655172413793" y="506.048275862069"/>
      <point x="457.53448275862064" y="448.21379310344827"/>
      <point x="457.53448275862064" y="348.55862068965513" type="curve" smooth="yes"/>
      <point x="457.53448275862064" y="243.80689655172412"/>
      <point x="404.3379310344828" y="188.57931034482758"/>
      <point x="314.43793103448274" y="188.57931034482758" type="curve" smooth="yes"/>
      <point x="132.78965517241377" y="188.57931034482758" type="line" smooth="yes"/>
      <point x="78.4448275862069" y="188.57931034482758"/>
      <point x="42.741379310344826" y="154.82758620689654"/>
      <point x="42.741379310344826" y="94.66206896551725" type="curve" smooth="yes"/>
      <point x="42.741379310344826" y="35.11034482758621"/>
      <point x="78.63793103448276" y="0.0"/>
    </contour>
    <contour>
      <point x="792.2655172413793" y="106.66896551724138" type="curve" smooth="yes"/>
      <point x="878.3379310344827" y="106.66896551724138"/>
      <point x="930.8586206896553" y="164.22413793103448"/>
      <point x="930.8586206896553" y="246.0" type="curve" smooth="yes"/>
      <point x="930.8586206896553" y="340.7103448275862"/>
      <point x="876.0137931034483" y="391.6275862068966"/>
      <point x="804.3724137931035" y="391.6275862068966" type="curve" smooth="yes"/>
      <point x="734.6758620689656" y="391.6275862068966"/>
      <point x="681.7" y="331.2689655172414"/>
      <point x="673.393103448276" y="246.2344827586207" type="curve"/>
      <point x="692.0827586206897" y="207.5103448275862" type="line"/>
      <point x="699.5551724137931" y="272.13793103448273"/>
      <point x="737.3793103448277" y="328.0206896551724"/>
      <point x="781.9" y="328.0206896551724" type="curve" smooth="yes"/>
      <point x="816.448275862069" y="328.0206896551724"/>
      <point x="843.5034482758621" y="303.07241379310346"/>
      <point x="843.5034482758621" y="248.86206896551724" type="curve" smooth="yes"/>
      <point x="843.5034482758621" y="197.1655172413793"/>
      <point x="820.3413793103449" y="162.23448275862071"/>
      <point x="777.4551724137931" y="162.23448275862071" type="curve" smooth="yes"/>
      <point x="725.9" y="162.23448275862071"/>
      <point x="684.8103448275862" y="210.70344827586206"/>
      <point x="684.8103448275862" y="322.80689655172415" type="curve" smooth="yes"/>
      <point x="684.8103448275862" y="429.54137931034484"/>
      <point x="746.7586206896552" y="506.13103448275865"/>
      <point x="839.1241379310344" y="506.13103448275865" type="curve" smooth="yes"/>
      <point x="939.2793103448275" y="506.13103448275865"/>
      <point x="1003.1620689655173" y="423.21379310344827"/>
      <point x="1003.8344827586205" y="306.90344827586205" type="curve"/>
      <point x="1052.2103448275861" y="306.90344827586205" type="line"/>
      <point x="1050.6" y="464.4"/>
      <point x="969.0517241379309" y="561.8689655172413"/>
      <point x="838.0896551724137" y="561.8689655172413" type="curve" smooth="yes"/>
      <point x="709.4965517241379" y="561.8689655172413"/>
      <point x="628.4206896551724" y="458.52413793103443"/>
      <point x="628.4206896551724" y="320.97241379310344" type="curve" smooth="yes"/>
      <point x="628.4206896551724" y="186.04827586206895"/>
      <point x="695.6137931034483" y="106.66896551724138"/>
    </contour>
    <contour>
      <point x="1003.8344827586205" y="110.22758620689656" type="line"/>
      <point x="1103.4137931034484" y="110.22758620689656" type="line"/>
      <point x="1103.4137931034484" y="503.35172413793106" type="line"/>
      <point x="1235.1758620689654" y="503.35172413793106" type="line"/>
      <point x="1235.1758620689654" y="110.22758620689656" type="line"/>
      <point x="1334.1379310344826" y="110.22758620689656" type="line"/>
      <point x="1334.1379310344826" y="503.35172413793106" type="line"/>
      <point x="1417.9275862068964" y="503.35172413793106" type="line"/>
      <point x="1417.9275862068964" y="556.8689655172413" type="line"/>
      <point x="1019.0689655172414" y="556.8689655172413" type="line"/>
      <point x="1019.648275862069" y="380.2413793103448" type="line"/>
      <point x="1003.8344827586205" y="376.7655172413793" type="line"/>
    </contour>
  </outline>
</glyph>
<glyph name="e-tamil" format="2">
  <advance width="792.6379310344828"/>
  <unicode hex="0B8E"/>
  <note>
uni0B8E
</note>
  <anchor x="415.2448275862069" y="0.0" name="bottom"/>
  <anchor x="416.051724137931" y="0.0" name="nukta"/>
  <anchor x="417.72758620689655" y="556.8689655172413" name="top"/>
  <anchor x="418.2448275862069" y="556.8689655172413" name="vedic"/>
  <outline>
    <contour>
      <point x="236.53448275862067" y="-5.0" type="curve" smooth="yes"/>
      <point x="335.0655172413793" y="-5.0"/>
      <point x="395.98965517241385" y="58.92413793103449"/>
      <point x="395.98965517241385" y="154.5448275862069" type="curve" smooth="yes"/>
      <point x="395.98965517241385" y="246.63793103448276"/>
      <point x="343.06551724137927" y="308.51724137931035"/>
      <point x="259.6" y="308.51724137931035" type="curve" smooth="yes"/>
      <point x="165.74137931034483" y="308.51724137931035"/>
      <point x="108.10344827586208" y="222.68275862068967"/>
      <point x="103.91379310344827" y="117.9" type="curve"/>
      <point x="135.32758620689654" y="92.26206896551724" type="line"/>
      <point x="137.34827586206896" y="175.79999999999998"/>
      <point x="173.52068965517245" y="236.46896551724137"/>
      <point x="226.0241379310345" y="236.46896551724137" type="curve" smooth="yes"/>
      <point x="275.6206896551724" y="236.46896551724137"/>
      <point x="297.0310344827586" y="192.45517241379312"/>
      <point x="297.0310344827586" y="148.1793103448276" type="curve" smooth="yes"/>
      <point x="297.0310344827586" y="94.0344827586207"/>
      <point x="272.63793103448273" y="52.69655172413793"/>
      <point x="217.48620689655175" y="52.69655172413793" type="curve" smooth="yes"/>
      <point x="152.54137931034484" y="52.69655172413793"/>
      <point x="104.93103448275862" y="122.37586206896552"/>
      <point x="104.93103448275862" y="252.07241379310344" type="curve" smooth="yes"/>
      <point x="104.93103448275862" y="412.85172413793106"/>
      <point x="193.2448275862069" y="501.13103448275865"/>
      <point x="348.851724137931" y="501.13103448275865" type="curve" smooth="yes"/>
      <point x="532.8655172413793" y="501.13103448275865" type="line"/>
      <point x="532.8655172413793" y="0.0" type="line"/>
      <point x="640.2551724137932" y="0.0" type="line"/>
      <point x="640.2551724137932" y="501.13103448275865" type="line"/>
      <point x="771.9689655172415" y="501.13103448275865" type="line"/>
      <point x="771.9689655172415" y="556.8689655172413" type="line"/>
      <point x="344.0586206896552" y="556.8689655172413" type="line" smooth="yes"/>
      <point x="164.93793103448277" y="556.8689655172413"/>
      <point x="47.89310344827586" y="448.05862068965513"/>
      <point x="47.89310344827586" y="253.34827586206896" type="curve" smooth="yes"/>
      <point x="47.89310344827586" y="88.40689655172415"/>
      <point x="127.06551724137933" y="-5.0"/>
    </contour>
  </outline>
</glyph>
<glyph name="ee-tamil" format="2">
  <advance width="792.6379310344828"/>
  <unicode hex="0B8F"/>
  <note>
uni0B8F
</note>
  <anchor x="415.2448275862069" y="0.0" name="bottom"/>
  <anchor x="416.051724137931" y="-178.33793103448278" name="nukta"/>
  <anchor x="418.75172413793103" y="556.8689655172413" name="top"/>
  <anchor x="418.2448275862069" y="556.8689655172413" name="vedic"/>
  <outline>
    <contour>
      <point x="421.49655172413793" y="-221.20000000000002" type="line"/>
      <point x="640.2551724137932" y="26.582758620689656" type="line"/>
      <point x="640.2551724137932" y="501.13103448275865" type="line"/>
      <point x="771.9689655172415" y="501.13103448275865" type="line"/>
      <point x="771.9689655172415" y="556.8689655172413" type="line"/>
      <point x="342.97241379310344" y="556.8689655172413" type="line" smooth="yes"/>
      <point x="163.85172413793103" y="556.8689655172413"/>
      <point x="47.89310344827586" y="448.05862068965513"/>
      <point x="47.89310344827586" y="253.34827586206896" type="curve" smooth="yes"/>
      <point x="47.89310344827586" y="88.40689655172415"/>
      <point x="127.06551724137933" y="-4.782758620689655"/>
      <point x="236.53448275862067" y="-4.782758620689655" type="curve" smooth="yes"/>
      <point x="335.0655172413793" y="-4.782758620689655"/>
      <point x="395.98965517241385" y="59.141379310344824"/>
      <point x="395.98965517241385" y="154.5448275862069" type="curve" smooth="yes"/>
      <point x="395.98965517241385" y="246.63793103448276"/>
      <point x="343.06551724137927" y="308.7344827586207"/>
      <point x="259.6" y="308.7344827586207" type="curve" smooth="yes"/>
      <point x="165.74137931034483" y="308.7344827586207"/>
      <point x="108.10344827586208" y="222.68275862068967"/>
      <point x="103.91379310344827" y="118.11724137931034" type="curve"/>
      <point x="135.32758620689654" y="92.47931034482758" type="line"/>
      <point x="137.34827586206896" y="176.01724137931035"/>
      <point x="173.90689655172415" y="236.46896551724137"/>
      <point x="226.21724137931037" y="236.46896551724137" type="curve" smooth="yes"/>
      <point x="275.81379310344823" y="236.46896551724137"/>
      <point x="297.0310344827586" y="192.67241379310346"/>
      <point x="297.0310344827586" y="148.1793103448276" type="curve" smooth="yes"/>
      <point x="297.0310344827586" y="94.25172413793103"/>
      <point x="272.63793103448273" y="52.69655172413793"/>
      <point x="217.6793103448276" y="52.69655172413793" type="curve" smooth="yes"/>
      <point x="152.92758620689656" y="52.69655172413793"/>
      <point x="105.12413793103448" y="121.96206896551725"/>
      <point x="105.12413793103448" y="252.07241379310344" type="curve" smooth="yes"/>
      <point x="105.12413793103448" y="412.85172413793106"/>
      <point x="193.2448275862069" y="501.13103448275865"/>
      <point x="348.851724137931" y="501.13103448275865" type="curve" smooth="yes"/>
      <point x="532.8655172413793" y="501.13103448275865" type="line"/>
      <point x="532.8655172413793" y="-4.120689655172415" type="line"/>
      <point x="377.5551724137931" y="-182.3310344827586" type="line"/>
    </contour>
  </outline>
</glyph>
<glyph name="ai-tamil" format="2">
  <advance width="844.5896551724138"/>
  <unicode hex="0B90"/>
  <note>
uni0B90
</note>
  <anchor x="425.251724137931" y="0.0" name="bottom"/>
  <anchor x="420.8827586206897" y="-301.7931034482759" name="nukta"/>
  <anchor x="437.0655172413793" y="556.8689655172413" name="top"/>
  <anchor x="433.50344827586207" y="556.8689655172413" name="vedic"/>
  <outline>
    <contour>
      <point x="253.848275862069" y="-301.7931034482759" type="curve" smooth="yes"/>
      <point x="346.1655172413793" y="-301.7931034482759"/>
      <point x="416.92068965517245" y="-258.4275862068966"/>
      <point x="436.7379310344828" y="-181.46206896551723" type="curve"/>
      <point x="453.6310344827586" y="-249.31724137931033"/>
      <point x="512.5896551724139" y="-301.7931034482759"/>
      <point x="608.8655172413793" y="-301.7931034482759" type="curve" smooth="yes"/>
      <point x="719.6103448275861" y="-301.7931034482759"/>
      <point x="796.9965517241379" y="-237.74137931034485"/>
      <point x="796.9965517241379" y="-103.07931034482759" type="curve" smooth="yes"/>
      <point x="796.9965517241379" y="-38.665517241379305"/>
      <point x="776.2172413793104" y="14.834482758620691"/>
      <point x="739.4896551724138" y="73.61034482758622" type="curve"/>
      <point x="692.1896551724138" y="44.20344827586207" type="line"/>
      <point x="722.6758620689656" y="-3.782758620689656"/>
      <point x="740.0" y="-49.15862068965518"/>
      <point x="740.0" y="-96.72413793103448" type="curve" smooth="yes"/>
      <point x="740.0" y="-194.75517241379313"/>
      <point x="689.4344827586207" y="-239.6344827586207"/>
      <point x="608.744827586207" y="-239.6344827586207" type="curve" smooth="yes"/>
      <point x="530.1241379310345" y="-239.6344827586207"/>
      <point x="490.0275862068966" y="-174.6689655172414"/>
      <point x="490.0275862068966" y="-78.55172413793105" type="curve" smooth="yes"/>
      <point x="490.0275862068966" y="-38.351724137931036" type="line"/>
      <point x="387.8931034482759" y="-38.351724137931036" type="line"/>
      <point x="387.8931034482759" y="-91.77931034482758" type="line" smooth="yes"/>
      <point x="387.8931034482759" y="-192.71724137931034"/>
      <point x="342.7931034482759" y="-244.36551724137934"/>
      <point x="268.9896551724138" y="-244.36551724137934" type="curve" smooth="yes"/>
      <point x="199.70000000000002" y="-244.36551724137934"/>
      <point x="154.39310344827587" y="-200.97241379310344"/>
      <point x="154.39310344827587" y="-118.35172413793103" type="curve" smooth="yes"/>
      <point x="154.39310344827587" y="30.620689655172413"/>
      <point x="267.6" y="63.38620689655173"/>
      <point x="454.93793103448274" y="77.53793103448275" type="curve" smooth="yes"/>
      <point x="636.9275862068965" y="91.83103448275861"/>
      <point x="795.2103448275863" y="140.8896551724138"/>
      <point x="795.2103448275863" y="342.3724137931035" type="curve" smooth="yes"/>
      <point x="795.2103448275863" y="503.9241379310345"/>
      <point x="708.8827586206896" y="561.951724137931"/>
      <point x="605.8758620689656" y="561.951724137931" type="curve" smooth="yes"/>
      <point x="527.0" y="561.951724137931"/>
      <point x="466.3758620689655" y="523.8103448275862"/>
      <point x="442.2931034482759" y="444.2931034482759" type="curve"/>
      <point x="413.9655172413793" y="523.9827586206897"/>
      <point x="340.7758620689655" y="561.951724137931"/>
      <point x="258.13103448275865" y="561.951724137931" type="curve" smooth="yes"/>
      <point x="137.82758620689657" y="561.951724137931"/>
      <point x="51.66206896551724" y="478.3724137931034"/>
      <point x="51.66206896551724" y="349.0551724137931" type="curve" smooth="yes"/>
      <point x="51.66206896551724" y="237.58620689655174"/>
      <point x="111.88620689655173" y="155.86206896551724"/>
      <point x="198.91379310344826" y="155.86206896551724" type="curve" smooth="yes"/>
      <point x="273.1620689655172" y="155.86206896551724"/>
      <point x="325.3172413793103" y="203.73103448275862"/>
      <point x="325.3172413793103" y="277.87586206896555" type="curve" smooth="yes"/>
      <point x="325.3172413793103" y="361.3586206896552"/>
      <point x="280.9655172413793" y="411.6413793103448"/>
      <point x="215.43448275862067" y="411.6413793103448" type="curve" smooth="yes"/>
      <point x="160.39310344827587" y="411.6413793103448"/>
      <point x="102.72758620689656" y="375.51724137931035"/>
      <point x="94.6103448275862" y="256.48275862068965" type="curve"/>
      <point x="118.38275862068966" y="222.95172413793102" type="line"/>
      <point x="123.04482758620689" y="319.9310344827586"/>
      <point x="158.40344827586208" y="347.95862068965516"/>
      <point x="191.02068965517242" y="347.95862068965516" type="curve" smooth="yes"/>
      <point x="223.54827586206895" y="347.95862068965516"/>
      <point x="241.4620689655172" y="321.91034482758624"/>
      <point x="241.4620689655172" y="280.048275862069" type="curve" smooth="yes"/>
      <point x="241.4620689655172" y="238.9965517241379"/>
      <point x="221.27931034482756" y="212.45517241379312"/>
      <point x="187.4448275862069" y="212.45517241379312" type="curve" smooth="yes"/>
      <point x="145.6758620689655" y="212.45517241379312"/>
      <point x="109.23103448275862" y="247.68965517241378"/>
      <point x="109.23103448275862" y="344.85517241379307" type="curve" smooth="yes"/>
      <point x="109.23103448275862" y="449.1862068965517"/>
      <point x="172.07586206896553" y="505.55172413793105"/>
      <point x="248.0206896551724" y="505.55172413793105" type="curve" smooth="yes"/>
      <point x="332.47586206896557" y="505.55172413793105"/>
      <point x="387.8931034482759" y="456.9689655172414"/>
      <point x="387.8931034482759" y="347.5896551724138" type="curve" smooth="yes"/>
      <point x="387.8931034482759" y="214.39310344827587" type="line"/>
      <point x="490.0275862068966" y="214.39310344827587" type="line"/>
      <point x="490.0275862068966" y="371.0793103448276" type="line" smooth="yes"/>
      <point x="490.0275862068966" y="452.3034482758621"/>
      <point x="526.0724137931035" y="505.3586206896552"/>
      <point x="588.9482758620691" y="505.3586206896552" type="curve" smooth="yes"/>
      <point x="658.0827586206897" y="505.3586206896552"/>
      <point x="688.7103448275861" y="447.4551724137931"/>
      <point x="688.7103448275861" y="353.66896551724136" type="curve" smooth="yes"/>
      <point x="688.7103448275861" y="188.75172413793103"/>
      <point x="589.5344827586207" y="133.40689655172415"/>
      <point x="382.7068965517241" y="117.75862068965516" type="curve" smooth="yes"/>
      <point x="193.99310344827586" y="103.87241379310345"/>
      <point x="47.89310344827586" y="62.35862068965517"/>
      <point x="47.89310344827586" y="-107.2344827586207" type="curve" smooth="yes"/>
      <point x="47.89310344827586" y="-230.68275862068967"/>
      <point x="133.7103448275862" y="-301.7931034482759"/>
    </contour>
  </outline>
</glyph>
<glyph name="o-tamil" format="2">
  <advance width="860.6655172413792"/>
  <unicode hex="0B92"/>
  <note>
uni0B92
</note>
  <anchor x="438.51379310344834" y="0.0" name="bottom"/>
  <anchor x="436.51379310344834" y="-335.0" name="nukta"/>
  <anchor x="431.51379310344834" y="556.8689655172413" name="top"/>
  <anchor x="431.51379310344834" y="556.8689655172413" name="vedic"/>
  <outline>
    <contour>
      <point x="322.41379310344826" y="-313.7655172413793" type="curve" smooth="yes"/>
      <point x="498.48275862068965" y="-313.7655172413793"/>
      <point x="516.9310344827586" y="-139.0448275862069"/>
      <point x="660.3275862068966" y="-139.0448275862069" type="curve" smooth="yes"/>
      <point x="699.4241379310345" y="-139.0448275862069" type="line"/>
      <point x="699.4241379310345" y="-83.11034482758622" type="line"/>
      <point x="649.9999999999999" y="-83.11034482758622" type="line" smooth="yes"/>
      <point x="514.8310344827587" y="-83.11034482758622"/>
      <point x="433.96551724137936" y="41.58620689655173"/>
      <point x="522.044827586207" y="198.32068965517243" type="curve"/>
      <point x="527.8275862068965" y="195.1034482758621" type="line"/>
      <point x="500.91034482758613" y="90.9551724137931"/>
      <point x="529.2379310344828" y="-4.8068965517241375"/>
      <point x="647.5275862068966" y="-4.8068965517241375" type="curve" smooth="yes"/>
      <point x="741.0241379310345" y="-4.8068965517241375"/>
      <point x="813.0724137931035" y="71.2551724137931"/>
      <point x="813.0724137931035" y="196.06206896551726" type="curve" smooth="yes"/>
      <point x="813.0724137931035" y="423.8241379310345"/>
      <point x="637.4310344827585" y="561.8689655172413"/>
      <point x="411.50344827586207" y="561.8689655172413" type="curve" smooth="yes"/>
      <point x="210.65517241379308" y="561.8689655172413"/>
      <point x="47.89310344827586" y="425.28275862068966"/>
      <point x="47.89310344827586" y="238.0689655172414" type="curve" smooth="yes"/>
      <point x="47.89310344827586" y="80.38275862068966"/>
      <point x="127.50000000000001" y="-5.0"/>
      <point x="236.12068965517244" y="-5.0" type="curve" smooth="yes"/>
      <point x="334.32068965517243" y="-5.0"/>
      <point x="395.1620689655173" y="59.141379310344824"/>
      <point x="395.1620689655173" y="154.5448275862069" type="curve" smooth="yes"/>
      <point x="395.1620689655173" y="246.63793103448276"/>
      <point x="342.23793103448276" y="308.7344827586207"/>
      <point x="259.18620689655177" y="308.7344827586207" type="curve" smooth="yes"/>
      <point x="165.32758620689657" y="308.7344827586207"/>
      <point x="107.27586206896552" y="222.35172413793106"/>
      <point x="103.16896551724139" y="117.2896551724138" type="curve"/>
      <point x="134.49999999999997" y="91.65172413793103" type="line"/>
      <point x="136.0137931034483" y="175.60344827586206"/>
      <point x="173.10689655172416" y="236.46896551724137"/>
      <point x="225.61034482758618" y="236.46896551724137" type="curve" smooth="yes"/>
      <point x="274.8758620689655" y="236.46896551724137"/>
      <point x="296.20344827586206" y="192.67241379310346"/>
      <point x="296.20344827586206" y="148.1793103448276" type="curve" smooth="yes"/>
      <point x="296.20344827586206" y="94.25172413793103"/>
      <point x="271.81034482758616" y="52.69655172413793"/>
      <point x="217.07241379310344" y="52.69655172413793" type="curve" smooth="yes"/>
      <point x="152.75862068965515" y="52.69655172413793"/>
      <point x="104.93103448275862" y="113.39999999999999"/>
      <point x="104.93103448275862" y="236.93448275862067" type="curve" smooth="yes"/>
      <point x="104.93103448275862" y="398.76551724137937"/>
      <point x="249.7206896551724" y="506.3241379310345"/>
      <point x="408.9206896551724" y="506.3241379310345" type="curve" smooth="yes"/>
      <point x="585.2931034482758" y="506.3241379310345"/>
      <point x="709.2896551724139" y="397.0344827586207"/>
      <point x="709.2896551724139" y="208.60000000000002" type="curve" smooth="yes"/>
      <point x="709.2896551724139" y="115.97931034482758"/>
      <point x="677.5793103448276" y="53.66206896551724"/>
      <point x="623.9" y="53.66206896551724" type="curve" smooth="yes"/>
      <point x="553.1172413793103" y="53.66206896551724"/>
      <point x="549.5103448275863" y="154.66551724137932"/>
      <point x="593.1689655172413" y="256.7620689655172" type="curve"/>
      <point x="528.7551724137932" y="290.3793103448276" type="line"/>
      <point x="379.9689655172414" y="94.34827586206899"/>
      <point x="431.0931034482759" y="-54.05862068965517"/>
      <point x="544.1241379310345" y="-105.24827586206897" type="curve"/>
      <point x="544.1241379310345" y="-110.24827586206897" type="line"/>
      <point x="428.0448275862069" y="-129.08275862068965"/>
      <point x="408.40000000000003" y="-247.14137931034483"/>
      <point x="298.7758620689655" y="-247.14137931034483" type="curve" smooth="yes"/>
      <point x="254.18620689655174" y="-247.14137931034483"/>
      <point x="220.92413793103447" y="-221.31034482758622"/>
      <point x="220.92413793103447" y="-173.75862068965517" type="curve" smooth="yes"/>
      <point x="220.92413793103447" y="-139.74137931034485"/>
      <point x="235.66206896551722" y="-117.39999999999999"/>
      <point x="266.5655172413793" y="-89.43103448275862" type="curve"/>
      <point x="227.08620689655172" y="-51.4448275862069" type="line"/>
      <point x="185.02068965517242" y="-90.71379310344828"/>
      <point x="165.0206896551724" y="-123.21724137931035"/>
      <point x="165.0206896551724" y="-172.26206896551724" type="curve" smooth="yes"/>
      <point x="165.0206896551724" y="-259.7793103448276"/>
      <point x="231.27241379310342" y="-313.7655172413793"/>
    </contour>
  </outline>
</glyph>
<glyph name="oo-tamil" format="2">
  <advance width="860.6655172413792"/>
  <unicode hex="0B93"/>
  <note>
uni0B93
</note>
  <anchor x="427.21034482758625" y="0.0" name="bottom"/>
  <anchor x="425.21034482758625" y="-291.5103448275862" name="nukta"/>
  <anchor x="420.21034482758625" y="556.8689655172413" name="top"/>
  <anchor x="420.21034482758625" y="556.8689655172413" name="vedic"/>
  <outline>
    <contour>
      <point x="301.78620689655173" y="-326.12068965517244" type="curve" smooth="yes"/>
      <point x="491.8689655172414" y="-326.12068965517244"/>
      <point x="516.7862068965518" y="-139.0448275862069"/>
      <point x="655.9" y="-139.0448275862069" type="curve" smooth="yes"/>
      <point x="690.8793103448276" y="-139.0448275862069" type="line"/>
      <point x="690.8793103448276" y="-83.11034482758622" type="line"/>
      <point x="648.7896551724137" y="-83.11034482758622" type="line" smooth="yes"/>
      <point x="513.2068965517242" y="-83.11034482758622"/>
      <point x="433.2" y="42.496551724137944"/>
      <point x="520.8862068965517" y="198.32068965517243" type="curve"/>
      <point x="526.751724137931" y="195.02068965517242" type="line"/>
      <point x="500.1655172413793" y="90.87241379310345"/>
      <point x="529.2379310344828" y="-4.8068965517241375"/>
      <point x="647.5275862068966" y="-4.8068965517241375" type="curve" smooth="yes"/>
      <point x="741.0241379310345" y="-4.8068965517241375"/>
      <point x="813.0724137931035" y="71.2551724137931"/>
      <point x="813.0724137931035" y="196.06206896551726" type="curve" smooth="yes"/>
      <point x="813.0724137931035" y="423.8241379310345"/>
      <point x="637.4310344827585" y="561.8689655172413"/>
      <point x="411.50344827586207" y="561.8689655172413" type="curve" smooth="yes"/>
      <point x="210.65517241379308" y="561.8689655172413"/>
      <point x="47.89310344827586" y="425.28275862068966"/>
      <point x="47.89310344827586" y="238.0689655172414" type="curve" smooth="yes"/>
      <point x="47.89310344827586" y="80.38275862068966"/>
      <point x="127.50000000000001" y="-5.0"/>
      <point x="236.12068965517244" y="-5.0" type="curve" smooth="yes"/>
      <point x="334.32068965517243" y="-5.0"/>
      <point x="395.1620689655173" y="59.141379310344824"/>
      <point x="395.1620689655173" y="154.5448275862069" type="curve" smooth="yes"/>
      <point x="395.1620689655173" y="246.63793103448276"/>
      <point x="342.23793103448276" y="308.7344827586207"/>
      <point x="259.18620689655177" y="308.7344827586207" type="curve" smooth="yes"/>
      <point x="165.32758620689657" y="308.7344827586207"/>
      <point x="107.27586206896552" y="222.35172413793106"/>
      <point x="103.16896551724139" y="117.2896551724138" type="curve"/>
      <point x="134.49999999999997" y="91.65172413793103" type="line"/>
      <point x="136.0137931034483" y="175.60344827586206"/>
      <point x="173.10689655172416" y="236.46896551724137"/>
      <point x="225.61034482758618" y="236.46896551724137" type="curve" smooth="yes"/>
      <point x="274.8758620689655" y="236.46896551724137"/>
      <point x="296.20344827586206" y="192.67241379310346"/>
      <point x="296.20344827586206" y="148.1793103448276" type="curve" smooth="yes"/>
      <point x="296.20344827586206" y="94.25172413793103"/>
      <point x="271.81034482758616" y="52.69655172413793"/>
      <point x="217.07241379310344" y="52.69655172413793" type="curve" smooth="yes"/>
      <point x="152.75862068965515" y="52.69655172413793"/>
      <point x="104.93103448275862" y="113.39999999999999"/>
      <point x="104.93103448275862" y="236.93448275862067" type="curve" smooth="yes"/>
      <point x="104.93103448275862" y="398.76551724137937"/>
      <point x="249.7206896551724" y="506.3241379310345"/>
      <point x="408.9206896551724" y="506.3241379310345" type="curve" smooth="yes"/>
      <point x="585.2931034482758" y="506.3241379310345"/>
      <point x="709.2896551724139" y="397.0344827586207"/>
      <point x="709.2896551724139" y="208.60000000000002" type="curve" smooth="yes"/>
      <point x="709.2896551724139" y="115.97931034482758"/>
      <point x="677.5793103448276" y="53.66206896551724"/>
      <point x="623.9" y="53.66206896551724" type="curve" smooth="yes"/>
      <point x="553.1172413793103" y="53.66206896551724"/>
      <point x="548.2689655172414" y="154.66551724137932"/>
      <point x="592.0103448275862" y="256.7620689655172" type="curve"/>
      <point x="527.596551724138" y="290.3793103448276" type="line"/>
      <point x="377.35517241379307" y="94.01724137931033"/>
      <point x="429.748275862069" y="-54.224137931034484"/>
      <point x="543.1931034482759" y="-105.41379310344828" type="curve"/>
      <point x="543.1931034482759" y="-110.41379310344828" type="line"/>
      <point x="426.75172413793103" y="-129.7551724137931"/>
      <point x="402.81724137931036" y="-262.35172413793106"/>
      <point x="275.5586206896552" y="-262.35172413793106" type="curve" smooth="yes"/>
      <point x="221.60000000000002" y="-262.35172413793106"/>
      <point x="191.19310344827588" y="-232.2793103448276"/>
      <point x="191.19310344827588" y="-190.6896551724138" type="curve" smooth="yes"/>
      <point x="191.19310344827588" y="-155.85172413793106"/>
      <point x="219.81724137931036" y="-130.77241379310342"/>
      <point x="251.39999999999998" y="-130.77241379310342" type="curve" smooth="yes"/>
      <point x="284.6896551724138" y="-130.77241379310342"/>
      <point x="310.1758620689655" y="-148.20344827586206"/>
      <point x="322.1655172413793" y="-185.67931034482757" type="curve"/>
      <point x="352.56896551724134" y="-172.32758620689654"/>
      <point x="373.1896551724138" y="-146.77241379310345"/>
      <point x="373.1896551724138" y="-120.56551724137931" type="curve" smooth="yes"/>
      <point x="373.1896551724138" y="-78.30689655172415"/>
      <point x="330.496551724138" y="-53.41724137931035"/>
      <point x="281.01724137931035" y="-53.41724137931035" type="curve" smooth="yes"/>
      <point x="207.77586206896552" y="-53.41724137931035"/>
      <point x="139.48275862068965" y="-104.47241379310344"/>
      <point x="139.48275862068965" y="-186.52413793103452" type="curve" smooth="yes"/>
      <point x="139.48275862068965" y="-274.3241379310345"/>
      <point x="211.00689655172414" y="-326.12068965517244"/>
    </contour>
  </outline>
</glyph>
<glyph name="au-tamil" format="2">
  <advance width="1906.7310344827588"/>
  <unicode hex="0B94"/>
  <note>
uni0B94
</note>
  <anchor x="979.2793103448276" y="0.0" name="bottom"/>
  <anchor x="1057.6931034482757" y="0.0" name="nukta"/>
  <anchor x="972.4724137931036" y="556.8689655172413" name="top"/>
  <anchor x="972.4724137931036" y="556.8689655172413" name="vedic"/>
  <outline>
    <contour>
      <point x="1078.055172413793" y="-4.782758620689655" type="curve" smooth="yes"/>
      <point x="1175.6689655172415" y="-4.782758620689655"/>
      <point x="1237.4275862068966" y="59.141379310344824"/>
      <point x="1237.4275862068966" y="154.5448275862069" type="curve" smooth="yes"/>
      <point x="1237.4275862068966" y="246.63793103448276"/>
      <point x="1184.2862068965517" y="308.7344827586207"/>
      <point x="1100.3965517241381" y="308.7344827586207" type="curve" smooth="yes"/>
      <point x="1007.2620689655172" y="308.7344827586207"/>
      <point x="949.6241379310344" y="222.68275862068967"/>
      <point x="944.9275862068965" y="118.11724137931034" type="curve"/>
      <point x="976.1482758620689" y="92.47931034482758" type="line"/>
      <point x="978.1689655172414" y="176.01724137931035"/>
      <point x="1015.0413793103447" y="236.46896551724137"/>
      <point x="1066.8206896551724" y="236.46896551724137" type="curve" smooth="yes"/>
      <point x="1116.441379310345" y="236.46896551724137"/>
      <point x="1137.8517241379311" y="192.67241379310346"/>
      <point x="1137.8517241379311" y="148.1793103448276" type="curve" smooth="yes"/>
      <point x="1137.8517241379311" y="94.25172413793103"/>
      <point x="1113.9655172413793" y="52.69655172413793"/>
      <point x="1059.0068965517241" y="52.69655172413793" type="curve" smooth="yes"/>
      <point x="993.3379310344827" y="52.69655172413793"/>
      <point x="946.4517241379311" y="122.37586206896552"/>
      <point x="946.4517241379311" y="252.07241379310344" type="curve" smooth="yes"/>
      <point x="946.4517241379311" y="413.0965517241379"/>
      <point x="1028.6172413793101" y="504.7793103448276"/>
      <point x="1163.5275862068966" y="504.7793103448276" type="curve" smooth="yes"/>
      <point x="1283.858620689655" y="504.7793103448276"/>
      <point x="1372.189655172414" y="429.7275862068966"/>
      <point x="1372.189655172414" y="279.8241379310345" type="curve"/>
      <point x="1428.5310344827587" y="286.2344827586207" type="line"/>
      <point x="1417.4172413793103" y="477.2448275862069"/>
      <point x="1305.6241379310345" y="561.8689655172413"/>
      <point x="1159.4206896551725" y="561.8689655172413" type="curve" smooth="yes"/>
      <point x="997.6793103448277" y="561.8689655172413"/>
      <point x="889.196551724138" y="450.5241379310345"/>
      <point x="889.196551724138" y="253.34827586206896" type="curve" smooth="yes"/>
      <point x="889.196551724138" y="88.40689655172415"/>
      <point x="968.3931034482757" y="-4.782758620689655"/>
    </contour>
    <contour>
      <point x="1372.696551724138" y="0.0" type="line"/>
      <point x="1479.3620689655172" y="0.0" type="line"/>
      <point x="1479.3620689655172" y="501.13103448275865" type="line"/>
      <point x="1647.7413793103449" y="501.13103448275865" type="line"/>
      <point x="1647.7413793103449" y="0.0" type="line"/>
      <point x="1753.9241379310347" y="0.0" type="line"/>
      <point x="1753.9241379310347" y="501.13103448275865" type="line"/>
      <point x="1886.062068965517" y="501.13103448275865" type="line"/>
      <point x="1886.062068965517" y="556.8689655172413" type="line"/>
      <point x="1391.5620689655173" y="556.8689655172413" type="line"/>
      <point x="1391.5620689655173" y="378.8620689655172" type="line"/>
      <point x="1372.696551724138" y="378.02758620689656" type="line"/>
    </contour>
    <component base="o-tamil"/>
  </outline>
</glyph>
<glyph name="nga-tamil" format="2">
  <advance width="866.6620689655174"/>
  <unicode hex="0B99"/>
  <note>
uni0B99
</note>
  <anchor x="432.17586206896556" y="0.0" name="bottom"/>
  <anchor x="477.9793103448275" y="556.8689655172413" name="imatra"/>
  <anchor x="431.67931034482757" y="0.0" name="nukta"/>
  <anchor x="435.08965517241376" y="556.8689655172413" name="top"/>
  <anchor x="432.451724137931" y="556.8689655172413" name="vedic"/>
  <outline>
    <contour>
      <point x="79.11379310344827" y="0.0" type="line"/>
      <point x="140.42413793103447" y="0.0" type="line"/>
      <point x="140.42413793103447" y="501.13103448275865" type="line"/>
      <point x="260.8689655172414" y="501.13103448275865" type="line"/>
      <point x="260.8689655172414" y="192.13793103448276" type="line"/>
      <point x="362.6448275862069" y="192.13793103448276" type="line"/>
      <point x="362.6448275862069" y="235.36896551724138" type="line" smooth="yes"/>
      <point x="362.6448275862069" y="279.75862068965523"/>
      <point x="386.65862068965515" y="308.49310344827586"/>
      <point x="420.6931034482759" y="308.49310344827586" type="curve" smooth="yes"/>
      <point x="458.46551724137925" y="308.49310344827586"/>
      <point x="484.5931034482759" y="276.2931034482759"/>
      <point x="484.5931034482759" y="210.3310344827586" type="curve" smooth="yes"/>
      <point x="484.5931034482759" y="101.71034482758621"/>
      <point x="417.9172413793103" y="55.93103448275862"/>
      <point x="354.9241379310345" y="55.93103448275862" type="curve" smooth="yes"/>
      <point x="260.8689655172414" y="55.93103448275862" type="line"/>
      <point x="260.8689655172414" y="0.0" type="line"/>
      <point x="787.3689655172413" y="0.0" type="line"/>
      <point x="787.3689655172413" y="556.8689655172413" type="line"/>
      <point x="679.1413793103447" y="556.8689655172413" type="line"/>
      <point x="679.1413793103447" y="55.93103448275862" type="line"/>
      <point x="469.6034482758621" y="55.93103448275862" type="line"/>
      <point x="526.0344827586208" y="74.97931034482758"/>
      <point x="586.5689655172414" y="133.28965517241377"/>
      <point x="586.5689655172414" y="228.75862068965517" type="curve" smooth="yes"/>
      <point x="586.5689655172414" y="321.0"/>
      <point x="537.6068965517242" y="381.26206896551724"/>
      <point x="462.91379310344837" y="381.26206896551724" type="curve" smooth="yes"/>
      <point x="408.2310344827586" y="381.26206896551724"/>
      <point x="377.0241379310345" y="348.50344827586207"/>
      <point x="365.12068965517244" y="322.83103448275864" type="curve"/>
      <point x="365.12068965517244" y="501.13103448275865" type="line"/>
      <point x="500.20344827586206" y="501.13103448275865" type="line"/>
      <point x="500.20344827586206" y="556.8689655172413" type="line"/>
      <point x="79.11379310344827" y="556.8689655172413" type="line"/>
    </contour>
  </outline>
</glyph>
<glyph name="ca-tamil" format="2">
  <advance width="620.6344827586207"/>
  <unicode hex="0B9A"/>
  <note>
uni0B9A
</note>
  <anchor x="323.08620689655174" y="0.0" name="bottom"/>
  <anchor x="495.0724137931034" y="556.8689655172413" name="imatra"/>
  <anchor x="319.151724137931" y="0.0" name="nukta"/>
  <anchor x="379.83448275862065" y="556.8689655172413" name="top"/>
  <anchor x="345.2413793103448" y="556.8689655172413" name="vedic"/>
  <outline>
    <contour>
      <point x="235.9655172413793" y="-4.0" type="curve" smooth="yes"/>
      <point x="371.6551724137931" y="-4.0"/>
      <point x="444.9517241379311" y="71.5344827586207"/>
      <point x="444.9517241379311" y="202.6206896551724" type="curve" smooth="yes"/>
      <point x="444.9517241379311" y="264.5448275862069" type="line"/>
      <point x="580.9000000000001" y="264.5448275862069" type="line"/>
      <point x="580.9000000000001" y="320.47586206896557" type="line"/>
      <point x="444.9517241379311" y="320.47586206896557" type="line"/>
      <point x="444.9517241379311" y="500.93793103448274" type="line"/>
      <point x="580.9000000000001" y="500.93793103448274" type="line"/>
      <point x="580.9000000000001" y="556.8689655172413" type="line"/>
      <point x="159.7448275862069" y="556.8689655172413" type="line"/>
      <point x="159.7448275862069" y="289.8620689655172" type="line"/>
      <point x="219.05517241379306" y="289.8620689655172" type="line"/>
      <point x="219.05517241379306" y="500.93793103448274" type="line"/>
      <point x="337.3965517241379" y="500.93793103448274" type="line"/>
      <point x="337.3965517241379" y="320.47586206896557" type="line"/>
      <point x="204.65172413793104" y="320.47586206896557" type="line" smooth="yes"/>
      <point x="113.02758620689654" y="320.47586206896557"/>
      <point x="50.69655172413793" y="258.26206896551724"/>
      <point x="50.69655172413793" y="164.20689655172413" type="curve" smooth="yes"/>
      <point x="50.69655172413793" y="63.179310344827584"/>
      <point x="119.45172413793104" y="-4.0"/>
    </contour>
    <contour>
      <point x="222.18965517241375" y="52.88965517241379" type="curve" smooth="yes"/>
      <point x="154.47931034482758" y="52.88965517241379"/>
      <point x="112.26896551724138" y="91.21379310344828"/>
      <point x="112.26896551724138" y="162.2896551724138" type="curve" smooth="yes"/>
      <point x="112.26896551724138" y="224.13103448275862"/>
      <point x="143.4241379310345" y="264.5448275862069"/>
      <point x="211.78620689655173" y="264.5448275862069" type="curve" smooth="yes"/>
      <point x="337.3965517241379" y="264.5448275862069" type="line"/>
      <point x="337.3965517241379" y="191.5103448275862" type="line" smooth="yes"/>
      <point x="337.3965517241379" y="92.02758620689654"/>
      <point x="286.148275862069" y="52.88965517241379"/>
    </contour>
  </outline>
</glyph>
<glyph name="nya-tamil" format="2">
  <advance width="1121.6103448275862"/>
  <unicode hex="0B9E"/>
  <note>
uni0B9E
</note>
  <anchor x="586.296551724138" y="0.0" name="bottom"/>
  <anchor x="877.6999999999998" y="556.8689655172413" name="imatra"/>
  <anchor x="578.5" y="-323.21379310344827" name="nukta"/>
  <anchor x="599.0" y="556.8689655172413" name="top"/>
  <anchor x="574.2689655172414" y="556.8689655172413" name="vedic"/>
  <outline>
    <contour>
      <point x="578.5" y="-323.21379310344827" type="curve" smooth="yes"/>
      <point x="852.3551724137932" y="-323.21379310344827"/>
      <point x="1071.7965517241378" y="-158.61724137931034"/>
      <point x="1071.7965517241378" y="122.29310344827586" type="curve" smooth="yes"/>
      <point x="1071.7965517241378" y="267.14482758620693"/>
      <point x="1007.2413793103448" y="344.8620689655172"/>
      <point x="914.6551724137931" y="344.8620689655172" type="curve" smooth="yes"/>
      <point x="835.3862068965518" y="344.8620689655172"/>
      <point x="783.0793103448275" y="278.90344827586205"/>
      <point x="783.0793103448275" y="181.5241379310345" type="curve" smooth="yes"/>
      <point x="783.0793103448275" y="137.33793103448275" type="line"/>
      <point x="808.1724137931036" y="137.33793103448275" type="line"/>
      <point x="808.1724137931036" y="179.5241379310345" type="line" smooth="yes"/>
      <point x="808.1724137931036" y="232.30344827586205"/>
      <point x="836.7137931034483" y="275.94482758620694"/>
      <point x="878.8206896551725" y="275.94482758620694" type="curve" smooth="yes"/>
      <point x="935.8172413793104" y="275.94482758620694"/>
      <point x="965.693103448276" y="226.26206896551724"/>
      <point x="965.693103448276" y="118.49310344827586" type="curve" smooth="yes"/>
      <point x="965.693103448276" y="-137.41724137931033"/>
      <point x="789.5275862068967" y="-266.70344827586206"/>
      <point x="572.4137931034483" y="-266.70344827586206" type="curve" smooth="yes"/>
      <point x="318.5896551724138" y="-266.70344827586206"/>
      <point x="109.23793103448276" y="-84.20344827586207"/>
      <point x="109.23793103448276" y="223.6862068965517" type="curve" smooth="yes"/>
      <point x="109.23793103448276" y="404.4379310344828"/>
      <point x="163.17586206896553" y="516.4310344827586"/>
      <point x="267.7310344827586" y="619.3758620689655" type="curve"/>
      <point x="227.83793103448275" y="658.796551724138" type="line"/>
      <point x="115.99655172413793" y="551.0413793103448"/>
      <point x="52.48275862068966" y="412.65862068965515"/>
      <point x="52.48275862068966" y="223.10689655172413" type="curve" smooth="yes"/>
      <point x="52.48275862068966" y="-80.73103448275863"/>
      <point x="257.4172413793104" y="-323.21379310344827"/>
    </contour>
    <component base="e-tamil" xOffset="172.32758620689657"/>
  </outline>
</glyph>
<glyph name="tta-tamil" format="2">
  <advance width="763.1620689655172"/>
  <unicode hex="0B9F"/>
  <note>
uni0B9F
</note>
  <anchor x="400.39655172413796" y="0.0" name="bottom"/>
  <anchor x="400.39655172413796" y="0.0" name="nukta"/>
  <anchor x="421.696551724138" y="556.8689655172413" name="top"/>
  <anchor x="413.1931034482759" y="556.8689655172413" name="vedic"/>
  <outline>
    <contour>
      <point x="79.11379310344827" y="0.0" type="line"/>
      <point x="747.6586206896552" y="0.0" type="line"/>
      <point x="747.6586206896552" y="55.93103448275862" type="line"/>
      <point x="186.61724137931034" y="55.93103448275862" type="line"/>
      <point x="186.61724137931034" y="556.8689655172413" type="line"/>
      <point x="79.11379310344827" y="556.8689655172413" type="line"/>
    </contour>
  </outline>
</glyph>
<glyph name="nnna-tamil" format="2">
  <advance width="1137.144827586207"/>
  <unicode hex="0BA9"/>
  <note>
uni0BA9
</note>
  <anchor x="560.944827586207" y="0.0" name="bottom"/>
  <anchor x="996.0896551724139" y="556.8689655172413" name="imatra"/>
  <anchor x="561.3310344827587" y="0.0" name="nukta"/>
  <anchor x="589.0689655172414" y="556.8689655172413" name="top"/>
  <anchor x="585.3413793103449" y="556.8689655172413" name="vedic"/>
  <outline>
    <contour>
      <point x="235.8206896551724" y="-4.782758620689655" type="curve" smooth="yes"/>
      <point x="333.9413793103448" y="-4.782758620689655"/>
      <point x="395.4827586206897" y="59.141379310344824"/>
      <point x="395.4827586206897" y="154.5448275862069" type="curve" smooth="yes"/>
      <point x="395.4827586206897" y="246.63793103448276"/>
      <point x="342.5586206896552" y="308.7344827586207"/>
      <point x="258.4758620689655" y="308.7344827586207" type="curve" smooth="yes"/>
      <point x="165.5344827586207" y="308.7344827586207"/>
      <point x="108.40344827586209" y="222.68275862068967"/>
      <point x="104.21379310344828" y="118.11724137931034" type="curve"/>
      <point x="135.62758620689655" y="92.47931034482758" type="line"/>
      <point x="137.1413793103448" y="176.01724137931035"/>
      <point x="173.3137931034483" y="236.46896551724137"/>
      <point x="224.9" y="236.46896551724137" type="curve" smooth="yes"/>
      <point x="274.9068965517241" y="236.46896551724137"/>
      <point x="296.1241379310345" y="192.67241379310346"/>
      <point x="296.1241379310345" y="148.1793103448276" type="curve" smooth="yes"/>
      <point x="296.1241379310345" y="94.25172413793103"/>
      <point x="272.23793103448276" y="52.69655172413793"/>
      <point x="217.2793103448276" y="52.69655172413793" type="curve" smooth="yes"/>
      <point x="152.40000000000003" y="52.69655172413793"/>
      <point x="104.93103448275862" y="119.25172413793105"/>
      <point x="104.93103448275862" y="245.2655172413793" type="curve" smooth="yes"/>
      <point x="104.93103448275862" y="415.25172413793103"/>
      <point x="225.41379310344828" y="505.55172413793105"/>
      <point x="371.97241379310344" y="505.55172413793105" type="curve" smooth="yes"/>
      <point x="545.6068965517242" y="505.55172413793105"/>
      <point x="662.503448275862" y="387.50344827586207"/>
      <point x="662.503448275862" y="186.41724137931035" type="curve" smooth="yes"/>
      <point x="662.503448275862" y="100.93103448275862"/>
      <point x="635.3275862068966" y="52.88965517241379"/>
      <point x="586.1068965517242" y="52.88965517241379" type="curve" smooth="yes"/>
      <point x="538.4344827586207" y="52.88965517241379"/>
      <point x="514.2310344827587" y="100.32068965517243"/>
      <point x="514.2310344827587" y="185.9344827586207" type="curve" smooth="yes"/>
      <point x="514.2310344827587" y="369.97241379310344"/>
      <point x="618.2827586206896" y="501.13103448275865"/>
      <point x="800.7413793103449" y="501.13103448275865" type="curve" smooth="yes"/>
      <point x="1116.4758620689656" y="501.13103448275865" type="line"/>
      <point x="1116.4758620689656" y="556.8689655172413" type="line"/>
      <point x="804.0551724137931" y="556.8689655172413" type="line" smooth="yes"/>
      <point x="588.5655172413792" y="556.8689655172413"/>
      <point x="457.03793103448277" y="404.7310344827586"/>
      <point x="457.03793103448277" y="190.7896551724138" type="curve" smooth="yes"/>
      <point x="457.03793103448277" y="66.89310344827588"/>
      <point x="505.28620689655173" y="-4.8068965517241375"/>
      <point x="603.5655172413793" y="-4.8068965517241375" type="curve" smooth="yes"/>
      <point x="699.7724137931035" y="-4.8068965517241375"/>
      <point x="766.4068965517242" y="66.46206896551723"/>
      <point x="766.4068965517242" y="189.0689655172414" type="curve" smooth="yes"/>
      <point x="766.4068965517242" y="409.7310344827586"/>
      <point x="606.7172413793103" y="561.8689655172413"/>
      <point x="380.4448275862069" y="561.8689655172413" type="curve" smooth="yes"/>
      <point x="197.18620689655174" y="561.8689655172413"/>
      <point x="47.89310344827586" y="450.951724137931"/>
      <point x="47.89310344827586" y="247.05862068965519" type="curve" smooth="yes"/>
      <point x="47.89310344827586" y="85.36551724137932"/>
      <point x="127.94827586206895" y="-4.782758620689655"/>
    </contour>
    <contour>
      <point x="877.5655172413793" y="0.0" type="line"/>
      <point x="984.2551724137932" y="0.0" type="line"/>
      <point x="984.2551724137932" y="530.4344827586207" type="line"/>
      <point x="877.5655172413793" y="530.4344827586207" type="line"/>
    </contour>
  </outline>
</glyph>
<glyph name="pa-tamil" format="2">
  <advance width="762.4206896551723"/>
  <unicode hex="0BAA"/>
  <note>
uni0BAA
</note>
  <anchor x="383.59999999999997" y="0.0" name="bottom"/>
  <anchor x="676.1310344827587" y="556.8689655172413" name="imatra"/>
  <anchor x="383.59999999999997" y="0.0" name="nukta"/>
  <anchor x="382.448275862069" y="556.8689655172413" name="top"/>
  <anchor x="382.8275862068965" y="556.8689655172413" name="vedic"/>
  <outline>
    <contour>
      <point x="79.11379310344827" y="0.0" type="line"/>
      <point x="683.1275862068966" y="0.0" type="line"/>
      <point x="683.1275862068966" y="556.8689655172413" type="line"/>
      <point x="576.1068965517242" y="556.8689655172413" type="line"/>
      <point x="576.1068965517242" y="55.93103448275862" type="line"/>
      <point x="186.28620689655173" y="55.93103448275862" type="line"/>
      <point x="186.28620689655173" y="556.8689655172413" type="line"/>
      <point x="79.11379310344827" y="556.8689655172413" type="line"/>
    </contour>
  </outline>
</glyph>
<glyph name="ma-tamil" format="2">
  <advance width="773.8344827586207"/>
  <unicode hex="0BAE"/>
  <note>
uni0BAE
</note>
  <anchor x="386.2" y="0.0" name="bottom"/>
  <anchor x="687.5275862068967" y="556.8689655172413" name="imatra"/>
  <anchor x="387.1172413793103" y="0.0" name="nukta"/>
  <anchor x="416.9793103448276" y="556.8689655172413" name="top"/>
  <anchor x="400.9931034482759" y="556.8689655172413" name="vedic"/>
  <outline>
    <contour>
      <point x="79.11379310344827" y="0.0" type="line"/>
      <point x="579.7068965517242" y="0.0" type="line" smooth="yes"/>
      <point x="684.1896551724138" y="0.0"/>
      <point x="722.8482758620689" y="69.61724137931034"/>
      <point x="722.8482758620689" y="236.08965517241379" type="curve" smooth="yes"/>
      <point x="722.8482758620689" y="443.0586206896552"/>
      <point x="638.4586206896552" y="561.951724137931"/>
      <point x="515.0137931034483" y="561.951724137931" type="curve" smooth="yes"/>
      <point x="417.83448275862065" y="561.951724137931"/>
      <point x="370.84827586206893" y="498.0586206896552"/>
      <point x="370.84827586206893" y="393.0206896551725" type="curve" smooth="yes"/>
      <point x="370.84827586206893" y="55.93103448275862" type="line"/>
      <point x="186.61724137931034" y="55.93103448275862" type="line"/>
      <point x="186.61724137931034" y="556.8689655172413" type="line"/>
      <point x="79.11379310344827" y="556.8689655172413" type="line"/>
    </contour>
    <contour>
      <point x="478.4034482758621" y="55.93103448275862" type="line"/>
      <point x="478.4034482758621" y="395.4275862068966" type="line" smooth="yes"/>
      <point x="478.4034482758621" y="468.6448275862069"/>
      <point x="499.4379310344827" y="498.3724137931034"/>
      <point x="540.8896551724139" y="498.3724137931034" type="curve" smooth="yes"/>
      <point x="597.5413793103448" y="498.3724137931034"/>
      <point x="662.7551724137932" y="412.17241379310343"/>
      <point x="662.7551724137932" y="234.8896551724138" type="curve" smooth="yes"/>
      <point x="662.7551724137932" y="112.61724137931036"/>
      <point x="645.5793103448276" y="55.93103448275862"/>
      <point x="572.8241379310346" y="55.93103448275862" type="curve" smooth="yes"/>
    </contour>
  </outline>
</glyph>
<glyph name="ya-tamil" format="2">
  <advance width="837.2689655172413"/>
  <unicode hex="0BAF"/>
  <note>
uni0BAF
</note>
  <anchor x="427.1827586206896" y="0.0" name="bottom"/>
  <anchor x="750.4620689655172" y="556.8689655172413" name="imatra"/>
  <anchor x="428.51034482758615" y="0.0" name="nukta"/>
  <anchor x="436.6172413793103" y="556.8689655172413" name="top"/>
  <anchor x="419.9413793103448" y="556.8689655172413" name="vedic"/>
  <outline>
    <contour>
      <point x="208.70689655172413" y="-5.993103448275862" type="curve" smooth="yes"/>
      <point x="275.8379310344828" y="-5.993103448275862"/>
      <point x="309.0655172413793" y="36.47931034482758"/>
      <point x="321.9655172413793" y="61.624137931034475" type="curve"/>
      <point x="321.9655172413793" y="0.0" type="line"/>
      <point x="757.9758620689656" y="0.0" type="line"/>
      <point x="757.9758620689656" y="556.8689655172413" type="line"/>
      <point x="650.3379310344828" y="556.8689655172413" type="line"/>
      <point x="650.3379310344828" y="55.93103448275862" type="line"/>
      <point x="419.99655172413793" y="55.93103448275862" type="line"/>
      <point x="419.99655172413793" y="556.8689655172413" type="line"/>
      <point x="313.9241379310345" y="556.8689655172413" type="line"/>
      <point x="313.9241379310345" y="149.39310344827587" type="line" smooth="yes"/>
      <point x="313.9241379310345" y="92.23448275862069"/>
      <point x="286.1862068965517" y="58.62068965517241"/>
      <point x="245.31724137931033" y="58.62068965517241" type="curve" smooth="yes"/>
      <point x="209.59310344827588" y="58.62068965517241"/>
      <point x="183.08620689655172" y="83.96551724137932"/>
      <point x="183.08620689655172" y="143.0413793103448" type="curve" smooth="yes"/>
      <point x="183.08620689655172" y="556.8689655172413" type="line"/>
      <point x="76.07586206896552" y="556.8689655172413" type="line"/>
      <point x="76.07586206896552" y="154.79999999999998" type="line" smooth="yes"/>
      <point x="76.07586206896552" y="45.8551724137931"/>
      <point x="127.8448275862069" y="-5.993103448275862"/>
    </contour>
  </outline>
</glyph>
<glyph name="ra-tamil" format="2">
  <advance width="557.2517241379311"/>
  <unicode hex="0BB0"/>
  <note>
uni0BB0
</note>
  <anchor x="275.3620689655172" y="0.0" name="bottom"/>
  <anchor x="469.0172413793104" y="556.8689655172413" name="imatra"/>
  <anchor x="275.3620689655172" y="-206.61379310344827" name="nukta"/>
  <anchor x="294.61724137931037" y="556.8689655172413" name="top"/>
  <anchor x="305.98965517241385" y="556.8689655172413" name="vedic"/>
  <outline>
    <contour>
      <point x="186.53103448275863" y="-221.20000000000002" type="line"/>
      <point x="404.951724137931" y="26.886206896551723" type="line"/>
      <point x="404.951724137931" y="501.13103448275865" type="line"/>
      <point x="536.5827586206898" y="501.13103448275865" type="line"/>
      <point x="536.5827586206898" y="556.8689655172413" type="line"/>
      <point x="79.11379310344827" y="556.8689655172413" type="line"/>
      <point x="79.11379310344827" y="0.0" type="line"/>
      <point x="139.79655172413794" y="0.0" type="line"/>
      <point x="139.79655172413794" y="501.13103448275865" type="line"/>
      <point x="297.2827586206897" y="501.13103448275865" type="line"/>
      <point x="297.2827586206897" y="-4.5068965517241395" type="line"/>
      <point x="142.58965517241379" y="-182.3310344827586" type="line"/>
    </contour>
  </outline>
</glyph>
<glyph name="la-tamil" format="2">
  <advance width="903.5344827586208"/>
  <unicode hex="0BB2"/>
  <note>
uni0BB2
</note>
  <anchor x="450.4517241379311" y="0.0" name="bottom"/>
  <anchor x="450.2586206896552" y="0.0" name="nukta"/>
  <anchor x="474.43793103448274" y="556.8689655172413" name="top"/>
  <anchor x="449.4310344827586" y="556.8689655172413" name="vedic"/>
  <outline>
    <contour>
      <point x="236.75172413793103" y="-4.782758620689655" type="curve" smooth="yes"/>
      <point x="335.0655172413793" y="-4.782758620689655"/>
      <point x="395.98965517241385" y="59.141379310344824"/>
      <point x="395.98965517241385" y="154.5448275862069" type="curve" smooth="yes"/>
      <point x="395.98965517241385" y="246.63793103448276"/>
      <point x="343.06551724137927" y="308.7344827586207"/>
      <point x="259.6" y="308.7344827586207" type="curve" smooth="yes"/>
      <point x="165.9586206896552" y="308.7344827586207"/>
      <point x="108.32068965517243" y="222.68275862068967"/>
      <point x="104.13103448275862" y="118.11724137931034" type="curve"/>
      <point x="135.54482758620688" y="92.47931034482758" type="line"/>
      <point x="137.05862068965519" y="176.01724137931035"/>
      <point x="173.73793103448276" y="236.46896551724137"/>
      <point x="226.0241379310345" y="236.46896551724137" type="curve" smooth="yes"/>
      <point x="275.8379310344828" y="236.46896551724137"/>
      <point x="297.24827586206897" y="192.67241379310346"/>
      <point x="297.24827586206897" y="148.1793103448276" type="curve" smooth="yes"/>
      <point x="297.24827586206897" y="94.25172413793103"/>
      <point x="272.85517241379307" y="52.69655172413793"/>
      <point x="217.7034482758621" y="52.69655172413793" type="curve" smooth="yes"/>
      <point x="153.19310344827588" y="52.69655172413793"/>
      <point x="104.93103448275862" y="121.07241379310346"/>
      <point x="104.93103448275862" y="248.16206896551725" type="curve" smooth="yes"/>
      <point x="104.93103448275862" y="408.31379310344823"/>
      <point x="183.34482758620692" y="504.97241379310344"/>
      <point x="312.5586206896552" y="504.97241379310344" type="curve" smooth="yes"/>
      <point x="428.8" y="504.97241379310344"/>
      <point x="485.87931034482756" y="430.00344827586207"/>
      <point x="486.0724137931034" y="312.6896551724138" type="curve" smooth="yes"/>
      <point x="486.0724137931034" y="168.4551724137931" type="line" smooth="yes"/>
      <point x="486.0724137931034" y="54.71724137931034"/>
      <point x="547.7793103448276" y="-0.8000000000000003"/>
      <point x="642.9827586206895" y="-0.8000000000000003" type="curve" smooth="yes"/>
      <point x="769.5551724137931" y="-0.8000000000000003"/>
      <point x="852.2586206896551" y="114.8103448275862"/>
      <point x="852.2586206896551" y="283.4137931034483" type="curve" smooth="yes"/>
      <point x="852.2586206896551" y="388.11034482758623"/>
      <point x="827.5172413793103" y="469.03793103448277"/>
      <point x="763.5103448275862" y="561.7862068965518" type="curve"/>
      <point x="716.6965517241379" y="531.096551724138" type="line"/>
      <point x="770.8931034482758" y="453.21379310344827"/>
      <point x="795.8965517241379" y="375.3103448275862"/>
      <point x="795.8965517241379" y="289.6620689655172" type="curve" smooth="yes"/>
      <point x="795.8965517241379" y="152.9586206896552"/>
      <point x="739.7034482758621" y="61.068965517241374"/>
      <point x="664.5655172413793" y="61.068965517241374" type="curve" smooth="yes"/>
      <point x="616.2689655172413" y="61.068965517241374"/>
      <point x="593.7379310344827" y="92.29310344827587"/>
      <point x="593.7379310344827" y="165.66206896551722" type="curve" smooth="yes"/>
      <point x="593.7379310344827" y="314.9413793103448" type="line" smooth="yes"/>
      <point x="593.7379310344827" y="469.4862068965517"/>
      <point x="490.24482758620684" y="561.8689655172413"/>
      <point x="329.2034482758621" y="561.8689655172413" type="curve" smooth="yes"/>
      <point x="154.50689655172417" y="561.8689655172413"/>
      <point x="47.89310344827586" y="441.7413793103449"/>
      <point x="47.89310344827586" y="249.87241379310345" type="curve" smooth="yes"/>
      <point x="47.89310344827586" y="87.10344827586206"/>
      <point x="128.151724137931" y="-4.782758620689655"/>
    </contour>
  </outline>
</glyph>
<glyph name="lla-tamil" format="2">
  <advance width="1065.2103448275864"/>
  <unicode hex="0BB3"/>
  <note>
uni0BB3
</note>
  <anchor x="552.1448275862069" y="0.0" name="bottom"/>
  <anchor x="958.3068965517241" y="556.8689655172413" name="imatra"/>
  <anchor x="555.2586206896552" y="0.0" name="nukta"/>
  <anchor x="582.3896551724138" y="556.8689655172413" name="top"/>
  <anchor x="548.8724137931034" y="556.8689655172413" name="vedic"/>
  <outline>
    <contour>
      <point x="236.53448275862067" y="-4.782758620689655" type="curve" smooth="yes"/>
      <point x="335.0655172413793" y="-4.782758620689655"/>
      <point x="395.98965517241385" y="59.141379310344824"/>
      <point x="395.98965517241385" y="154.5448275862069" type="curve" smooth="yes"/>
      <point x="395.98965517241385" y="246.63793103448276"/>
      <point x="343.06551724137927" y="308.7344827586207"/>
      <point x="259.6" y="308.7344827586207" type="curve" smooth="yes"/>
      <point x="165.74137931034483" y="308.7344827586207"/>
      <point x="108.10344827586208" y="222.68275862068967"/>
      <point x="103.91379310344827" y="118.11724137931034" type="curve"/>
      <point x="135.32758620689654" y="92.47931034482758" type="line"/>
      <point x="137.34827586206896" y="176.01724137931035"/>
      <point x="173.52068965517245" y="236.46896551724137"/>
      <point x="226.0241379310345" y="236.46896551724137" type="curve" smooth="yes"/>
      <point x="275.6206896551724" y="236.46896551724137"/>
      <point x="297.0310344827586" y="192.67241379310346"/>
      <point x="297.0310344827586" y="148.1793103448276" type="curve" smooth="yes"/>
      <point x="297.0310344827586" y="94.25172413793103"/>
      <point x="272.63793103448273" y="52.69655172413793"/>
      <point x="217.48620689655175" y="52.69655172413793" type="curve" smooth="yes"/>
      <point x="152.54137931034484" y="52.69655172413793"/>
      <point x="104.93103448275862" y="122.37586206896552"/>
      <point x="104.93103448275862" y="252.07241379310344" type="curve" smooth="yes"/>
      <point x="104.93103448275862" y="413.0965517241379"/>
      <point x="187.79655172413794" y="504.7793103448276"/>
      <point x="322.4172413793103" y="504.7793103448276" type="curve" smooth="yes"/>
      <point x="442.3379310344828" y="504.7793103448276"/>
      <point x="531.1758620689656" y="429.7275862068966"/>
      <point x="531.1758620689656" y="279.8241379310345" type="curve"/>
      <point x="587.2275862068966" y="286.2344827586207" type="line"/>
      <point x="576.6206896551723" y="477.2448275862069"/>
      <point x="465.0206896551724" y="561.8689655172413"/>
      <point x="318.6" y="561.8689655172413" type="curve" smooth="yes"/>
      <point x="156.37586206896552" y="561.8689655172413"/>
      <point x="47.89310344827586" y="450.5241379310345"/>
      <point x="47.89310344827586" y="253.34827586206896" type="curve" smooth="yes"/>
      <point x="47.89310344827586" y="88.40689655172415"/>
      <point x="127.06551724137933" y="-4.782758620689655"/>
    </contour>
    <contour>
      <point x="531.3689655172415" y="0.0" type="line"/>
      <point x="638.0586206896552" y="0.0" type="line"/>
      <point x="638.0586206896552" y="501.13103448275865" type="line"/>
      <point x="806.4379310344827" y="501.13103448275865" type="line"/>
      <point x="806.4379310344827" y="0.0" type="line"/>
      <point x="912.9103448275862" y="0.0" type="line"/>
      <point x="912.9103448275862" y="501.13103448275865" type="line"/>
      <point x="1044.5413793103448" y="501.13103448275865" type="line"/>
      <point x="1044.5413793103448" y="556.8689655172413" type="line"/>
      <point x="551.0413793103448" y="556.8689655172413" type="line"/>
      <point x="551.0413793103448" y="378.8620689655172" type="line"/>
      <point x="531.3689655172415" y="378.02758620689656" type="line"/>
    </contour>
  </outline>
</glyph>
<glyph name="llla-tamil" format="2">
  <advance width="773.8344827586207"/>
  <unicode hex="0BB4"/>
  <note>
uni0BB4
</note>
  <anchor x="383.5206896551724" y="0.0" name="bottom"/>
  <anchor x="383.78620689655173" y="-308.8655172413793" name="nukta"/>
  <anchor x="426.2551724137931" y="556.8689655172413" name="top"/>
  <anchor x="400.07586206896553" y="556.8689655172413" name="vedic"/>
  <anchor x="687.5275862068967" y="556.8689655172413" name="imatra"/>
  <outline>
    <contour>
      <point x="267.18620689655177" y="-333.51379310344834" type="curve" smooth="yes"/>
      <point x="450.3896551724139" y="-333.51379310344834"/>
      <point x="474.7965517241379" y="-160.76206896551724"/>
      <point x="609.6931034482759" y="-160.76206896551724" type="curve" smooth="yes"/>
      <point x="656.0655172413793" y="-160.76206896551724" type="line"/>
      <point x="656.0655172413793" y="-105.11724137931036" type="line"/>
      <point x="598.7206896551725" y="-105.11724137931036" type="line" smooth="yes"/>
      <point x="525.2931034482759" y="-105.11724137931036"/>
      <point x="477.89655172413796" y="-62.224137931034484"/>
      <point x="477.89655172413796" y="13.206896551724139" type="curve" smooth="yes"/>
      <point x="477.89655172413796" y="100.66206896551724" type="line"/>
      <point x="371.548275862069" y="100.66206896551724" type="line"/>
      <point x="371.548275862069" y="14.200000000000001" type="line" smooth="yes"/>
      <point x="371.548275862069" y="-58.16896551724139"/>
      <point x="429.0482758620689" y="-120.51724137931033"/>
      <point x="496.8862068965517" y="-127.42068965517241" type="curve"/>
      <point x="496.8862068965517" y="-132.1068965517241" type="line"/>
      <point x="377.5206896551724" y="-145.15862068965515"/>
      <point x="352.92068965517245" y="-272.66896551724136"/>
      <point x="245.96206896551726" y="-272.66896551724136" type="curve" smooth="yes"/>
      <point x="194.54827586206898" y="-272.66896551724136"/>
      <point x="159.55862068965519" y="-241.38275862068963"/>
      <point x="159.55862068965519" y="-193.83103448275864" type="curve" smooth="yes"/>
      <point x="159.55862068965519" y="-148.7241379310345"/>
      <point x="188.69310344827585" y="-117.87241379310345"/>
      <point x="231.4" y="-117.87241379310345" type="curve" smooth="yes"/>
      <point x="258.78965517241375" y="-117.87241379310345"/>
      <point x="282.65862068965515" y="-129.64137931034483"/>
      <point x="304.2310344827586" y="-151.9344827586207" type="curve"/>
      <point x="338.78275862068966" y="-112.77241379310344" type="line"/>
      <point x="304.78620689655173" y="-78.15517241379311"/>
      <point x="271.28965517241375" y="-64.23448275862069"/>
      <point x="228.62068965517238" y="-64.23448275862069" type="curve" smooth="yes"/>
      <point x="153.9689655172414" y="-64.23448275862069"/>
      <point x="102.39999999999999" y="-119.69655172413792"/>
      <point x="102.39999999999999" y="-191.27241379310345" type="curve" smooth="yes"/>
      <point x="102.39999999999999" y="-279.0103448275862"/>
      <point x="170.53793103448274" y="-333.51379310344834"/>
    </contour>
    <component base="ma-tamil"/>
  </outline>
</glyph>
<glyph name="va-tamil" format="2">
  <advance width="969.7379310344828"/>
  <unicode hex="0BB5"/>
  <note>
uni0BB5
</note>
  <anchor x="517.0137931034483" y="0.0" name="bottom"/>
  <anchor x="796.0689655172414" y="556.8689655172413" name="imatra"/>
  <anchor x="515.8551724137931" y="0.0" name="nukta"/>
  <anchor x="489.6310344827586" y="556.8689655172413" name="top"/>
  <anchor x="472.07241379310346" y="556.8689655172413" name="vedic"/>
  <outline>
    <contour>
      <point x="236.75172413793103" y="-4.782758620689655" type="curve" smooth="yes"/>
      <point x="335.0655172413793" y="-4.782758620689655"/>
      <point x="395.98965517241385" y="59.141379310344824"/>
      <point x="395.98965517241385" y="154.5448275862069" type="curve" smooth="yes"/>
      <point x="395.98965517241385" y="246.63793103448276"/>
      <point x="343.06551724137927" y="308.7344827586207"/>
      <point x="259.6" y="308.7344827586207" type="curve" smooth="yes"/>
      <point x="165.9586206896552" y="308.7344827586207"/>
      <point x="108.32068965517243" y="222.68275862068967"/>
      <point x="104.13103448275862" y="118.11724137931034" type="curve"/>
      <point x="135.54482758620688" y="92.47931034482758" type="line"/>
      <point x="137.05862068965519" y="176.01724137931035"/>
      <point x="173.73793103448276" y="236.46896551724137"/>
      <point x="226.0241379310345" y="236.46896551724137" type="curve" smooth="yes"/>
      <point x="275.8379310344828" y="236.46896551724137"/>
      <point x="297.24827586206897" y="192.67241379310346"/>
      <point x="297.24827586206897" y="148.1793103448276" type="curve" smooth="yes"/>
      <point x="297.24827586206897" y="94.25172413793103"/>
      <point x="272.85517241379307" y="52.69655172413793"/>
      <point x="217.7034482758621" y="52.69655172413793" type="curve" smooth="yes"/>
      <point x="153.19310344827588" y="52.69655172413793"/>
      <point x="104.93103448275862" y="121.07241379310346"/>
      <point x="104.93103448275862" y="248.16206896551725" type="curve" smooth="yes"/>
      <point x="104.93103448275862" y="407.3206896551724"/>
      <point x="190.43103448275863" y="504.97241379310344"/>
      <point x="325.7896551724138" y="504.97241379310344" type="curve" smooth="yes"/>
      <point x="453.86896551724135" y="504.97241379310344"/>
      <point x="537.9344827586207" y="403.5724137931034"/>
      <point x="537.9344827586207" y="258.0758620689655" type="curve" smooth="yes"/>
      <point x="537.9344827586207" y="154.99310344827586"/>
      <point x="507.6344827586207" y="88.72413793103448"/>
      <point x="473.151724137931" y="41.7551724137931" type="curve"/>
      <point x="489.67586206896556" y="0.0" type="line"/>
      <point x="890.4448275862068" y="0.0" type="line"/>
      <point x="890.4448275862068" y="556.8689655172413" type="line"/>
      <point x="782.8068965517241" y="556.8689655172413" type="line"/>
      <point x="782.8068965517241" y="55.93103448275862" type="line"/>
      <point x="559.1620689655173" y="55.93103448275862" type="line"/>
      <point x="603.7758620689655" y="106.53448275862068"/>
      <point x="641.7206896551725" y="172.58275862068967"/>
      <point x="641.7206896551725" y="268.47241379310344" type="curve" smooth="yes"/>
      <point x="641.7206896551725" y="446.9793103448275"/>
      <point x="517.1413793103449" y="561.8689655172413"/>
      <point x="344.4551724137931" y="561.8689655172413" type="curve" smooth="yes"/>
      <point x="164.26206896551722" y="561.8689655172413"/>
      <point x="47.89310344827586" y="439.5413793103448"/>
      <point x="47.89310344827586" y="249.87241379310345" type="curve" smooth="yes"/>
      <point x="47.89310344827586" y="87.10344827586206"/>
      <point x="128.151724137931" y="-4.782758620689655"/>
    </contour>
  </outline>
</glyph>
<glyph name="sa-tamil" format="2">
  <advance width="1191.5896551724138"/>
  <unicode hex="0BB8"/>
  <note>
uni0BB8
</note>
  <anchor x="602.3068965517241" y="0.0" name="bottom"/>
  <anchor x="601.7275862068965" y="0.0" name="nukta"/>
  <anchor x="590.4344827586207" y="556.8689655172413" name="top"/>
  <anchor x="600.3758620689655" y="556.8689655172413" name="vedic"/>
  <outline>
    <contour>
      <point x="521.3655172413793" y="0.0" type="line"/>
      <point x="628.3689655172413" y="0.0" type="line"/>
      <point x="628.3689655172413" y="415.8137931034483" type="line" smooth="yes"/>
      <point x="628.3689655172413" y="472.14137931034486"/>
      <point x="653.851724137931" y="504.7172413793104"/>
      <point x="702.9482758620691" y="504.7172413793104" type="curve" smooth="yes"/>
      <point x="747.9344827586207" y="504.7172413793104"/>
      <point x="771.9827586206897" y="475.2344827586207"/>
      <point x="771.9827586206897" y="426.5206896551724" type="curve" smooth="yes"/>
      <point x="771.9827586206897" y="169.5413793103448" type="line" smooth="yes"/>
      <point x="771.9827586206897" y="55.80344827586207"/>
      <point x="832.9896551724137" y="-0.8000000000000003"/>
      <point x="928.7" y="-0.8000000000000003" type="curve" smooth="yes"/>
      <point x="1057.4689655172413" y="-0.8000000000000003"/>
      <point x="1140.3137931034482" y="114.72758620689655"/>
      <point x="1140.3137931034482" y="283.4137931034483" type="curve" smooth="yes"/>
      <point x="1140.3137931034482" y="388.11034482758623"/>
      <point x="1114.651724137931" y="469.2551724137931"/>
      <point x="1050.2103448275864" y="561.7862068965518" type="curve"/>
      <point x="1002.1448275862069" y="530.3620689655173" type="line"/>
      <point x="1056.4862068965517" y="451.6103448275862"/>
      <point x="1081.6137931034484" y="375.2275862068966"/>
      <point x="1081.6137931034484" y="289.5793103448276" type="curve" smooth="yes"/>
      <point x="1081.6137931034484" y="152.79310344827587"/>
      <point x="1025.4206896551725" y="61.068965517241374"/>
      <point x="949.641379310345" y="61.068965517241374" type="curve" smooth="yes"/>
      <point x="905.3896551724137" y="61.068965517241374"/>
      <point x="879.0310344827586" y="92.29310344827587"/>
      <point x="879.0310344827586" y="166.74827586206897" type="curve" smooth="yes"/>
      <point x="879.0310344827586" y="405.5931034482758" type="line" smooth="yes"/>
      <point x="879.0310344827586" y="507.93793103448274"/>
      <point x="812.0103448275862" y="561.6758620689656"/>
      <point x="719.4172413793104" y="561.6758620689656" type="curve" smooth="yes"/>
      <point x="621.9137931034483" y="561.6758620689656"/>
      <point x="563.151724137931" y="500.4310344827586"/>
      <point x="563.151724137931" y="420.25172413793103" type="curve" smooth="yes"/>
      <point x="563.151724137931" y="343.16551724137935" type="line"/>
      <point x="521.3655172413793" y="343.16551724137935" type="line"/>
    </contour>
    <contour>
      <point x="238.78965517241383" y="-4.782758620689655" type="curve" smooth="yes"/>
      <point x="337.1275862068966" y="-4.782758620689655"/>
      <point x="398.4206896551724" y="59.141379310344824"/>
      <point x="398.4206896551724" y="154.5448275862069" type="curve" smooth="yes"/>
      <point x="398.4206896551724" y="246.63793103448276"/>
      <point x="345.7448275862069" y="308.7344827586207"/>
      <point x="261.5793103448276" y="308.7344827586207" type="curve" smooth="yes"/>
      <point x="166.51724137931035" y="308.7344827586207"/>
      <point x="110.71034482758623" y="220.7793103448276"/>
      <point x="107.01724137931035" y="118.03448275862068" type="curve"/>
      <point x="138.348275862069" y="92.47931034482758" type="line"/>
      <point x="140.36896551724135" y="174.85862068965517"/>
      <point x="174.87586206896552" y="236.46896551724137"/>
      <point x="228.06206896551723" y="236.46896551724137" type="curve" smooth="yes"/>
      <point x="277.87586206896555" y="236.46896551724137"/>
      <point x="299.03793103448277" y="192.67241379310346"/>
      <point x="299.03793103448277" y="148.1793103448276" type="curve" smooth="yes"/>
      <point x="299.03793103448277" y="94.25172413793103"/>
      <point x="275.1241379310345" y="52.69655172413793"/>
      <point x="220.1655172413793" y="52.69655172413793" type="curve" smooth="yes"/>
      <point x="154.49655172413793" y="52.69655172413793"/>
      <point x="107.95172413793102" y="122.45862068965518"/>
      <point x="107.95172413793102" y="252.15517241379308" type="curve" smooth="yes"/>
      <point x="107.95172413793102" y="404.66896551724136"/>
      <point x="190.70344827586206" y="504.44827586206895"/>
      <point x="325.2" y="504.44827586206895" type="curve" smooth="yes"/>
      <point x="431.08965517241387" y="504.44827586206895"/>
      <point x="521.5586206896552" y="443.26206896551724"/>
      <point x="521.5586206896552" y="296.54137931034484" type="curve"/>
      <point x="580.493103448276" y="302.0931034482759" type="line"/>
      <point x="576.848275862069" y="481.60344827586204"/>
      <point x="462.3758620689656" y="561.951724137931"/>
      <point x="329.0689655172414" y="561.951724137931" type="curve" smooth="yes"/>
      <point x="160.70689655172416" y="561.951724137931"/>
      <point x="50.69655172413793" y="441.39655172413796"/>
      <point x="50.69655172413793" y="253.34827586206896" type="curve" smooth="yes"/>
      <point x="50.69655172413793" y="88.40689655172415"/>
      <point x="129.7448275862069" y="-4.782758620689655"/>
    </contour>
  </outline>
</glyph>
<glyph name="ha-tamil" format="2">
  <advance width="1406.293103448276"/>
  <unicode hex="0BB9"/>
  <note>
uni0BB9
</note>
  <anchor x="722.9275862068966" y="0.0" name="bottom"/>
  <anchor x="723.3137931034483" y="-148.66206896551725" name="nukta"/>
  <anchor x="722.1655172413793" y="556.8689655172413" name="top"/>
  <anchor x="706.1206896551724" y="556.8689655172413" name="vedic"/>
  <outline>
    <contour>
      <point x="198.66896551724136" y="-253.5551724137931" type="curve"/>
      <point x="198.66896551724136" y="-181.85517241379313"/>
      <point x="216.28275862068966" y="-138.01724137931038"/>
      <point x="302.5206896551724" y="-138.01724137931038" type="curve" smooth="yes"/>
      <point x="933.9551724137931" y="-138.01724137931038" type="line" smooth="yes"/>
      <point x="1216.0931034482758" y="-138.01724137931038"/>
      <point x="1357.903448275862" y="-26.086206896551726"/>
      <point x="1357.903448275862" y="242.3551724137931" type="curve" smooth="yes"/>
      <point x="1357.903448275862" y="428.0241379310345"/>
      <point x="1287.0896551724138" y="561.703448275862"/>
      <point x="1142.089655172414" y="561.703448275862" type="curve" smooth="yes"/>
      <point x="1058.9344827586206" y="561.703448275862"/>
      <point x="1011.9068965517241" y="518.048275862069"/>
      <point x="992.2724137931035" y="475.7758620689655" type="curve"/>
      <point x="977.4689655172414" y="517.2448275862068"/>
      <point x="941.4310344827587" y="560.8965517241379"/>
      <point x="869.896551724138" y="560.8965517241379" type="curve" smooth="yes"/>
      <point x="795.9379310344827" y="560.8965517241379"/>
      <point x="738.9068965517241" y="510.4172413793103"/>
      <point x="738.9068965517241" y="414.18275862068964" type="curve" smooth="yes"/>
      <point x="738.9068965517241" y="55.93103448275862" type="line"/>
      <point x="559.1620689655173" y="55.93103448275862" type="line"/>
      <point x="603.7758620689655" y="106.53448275862068"/>
      <point x="641.7206896551725" y="172.58275862068967"/>
      <point x="641.7206896551725" y="268.47241379310344" type="curve" smooth="yes"/>
      <point x="641.7206896551725" y="446.9793103448275"/>
      <point x="517.1413793103449" y="561.8689655172413"/>
      <point x="344.4551724137931" y="561.8689655172413" type="curve" smooth="yes"/>
      <point x="164.26206896551722" y="561.8689655172413"/>
      <point x="47.89310344827586" y="439.5413793103448"/>
      <point x="47.89310344827586" y="249.87241379310345" type="curve" smooth="yes"/>
      <point x="47.89310344827586" y="87.10344827586206"/>
      <point x="128.151724137931" y="-4.782758620689655"/>
      <point x="236.75172413793103" y="-4.782758620689655" type="curve" smooth="yes"/>
      <point x="335.0655172413793" y="-4.782758620689655"/>
      <point x="395.98965517241385" y="59.141379310344824"/>
      <point x="395.98965517241385" y="154.5448275862069" type="curve" smooth="yes"/>
      <point x="395.98965517241385" y="246.63793103448276"/>
      <point x="343.06551724137927" y="308.7344827586207"/>
      <point x="259.6" y="308.7344827586207" type="curve" smooth="yes"/>
      <point x="165.9586206896552" y="308.7344827586207"/>
      <point x="108.32068965517243" y="222.68275862068967"/>
      <point x="104.13103448275862" y="118.11724137931034" type="curve"/>
      <point x="135.54482758620688" y="92.47931034482758" type="line"/>
      <point x="137.56551724137933" y="176.01724137931035"/>
      <point x="173.73793103448276" y="236.46896551724137"/>
      <point x="226.0241379310345" y="236.46896551724137" type="curve" smooth="yes"/>
      <point x="275.8379310344828" y="236.46896551724137"/>
      <point x="297.24827586206897" y="192.67241379310346"/>
      <point x="297.24827586206897" y="148.1793103448276" type="curve" smooth="yes"/>
      <point x="297.24827586206897" y="94.25172413793103"/>
      <point x="272.85517241379307" y="52.69655172413793"/>
      <point x="217.7034482758621" y="52.69655172413793" type="curve" smooth="yes"/>
      <point x="153.19310344827588" y="52.69655172413793"/>
      <point x="104.93103448275862" y="121.07241379310346"/>
      <point x="104.93103448275862" y="248.16206896551725" type="curve" smooth="yes"/>
      <point x="104.93103448275862" y="407.3206896551724"/>
      <point x="190.43103448275863" y="504.97241379310344"/>
      <point x="325.7896551724138" y="504.97241379310344" type="curve" smooth="yes"/>
      <point x="453.86896551724135" y="504.97241379310344"/>
      <point x="537.9344827586207" y="403.5724137931034"/>
      <point x="537.9344827586207" y="258.0758620689655" type="curve" smooth="yes"/>
      <point x="537.9344827586207" y="154.99310344827586"/>
      <point x="507.6344827586207" y="88.72413793103448"/>
      <point x="473.151724137931" y="41.7551724137931" type="curve"/>
      <point x="489.67586206896556" y="0.0" type="line"/>
      <point x="799.0827586206896" y="0.0" type="line"/>
      <point x="799.0827586206896" y="412.37931034482756" type="line" smooth="yes"/>
      <point x="799.0827586206896" y="474.5448275862069"/>
      <point x="823.6689655172414" y="504.19310344827585"/>
      <point x="868.5034482758622" y="504.19310344827585" type="curve" smooth="yes"/>
      <point x="915.3931034482757" y="504.19310344827585"/>
      <point x="939.7827586206896" y="467.73448275862074"/>
      <point x="939.7827586206896" y="405.06896551724134" type="curve" smooth="yes"/>
      <point x="939.7827586206896" y="-0.0827586206896552" type="line"/>
      <point x="1048.0" y="-0.0827586206896552" type="line"/>
      <point x="1048.0" y="402.0827586206896" type="line" smooth="yes"/>
      <point x="1048.0" y="465.7103448275862"/>
      <point x="1083.441379310345" y="505.0"/>
      <point x="1132.841379310345" y="505.0" type="curve" smooth="yes"/>
      <point x="1199.9275862068964" y="505.0"/>
      <point x="1247.5172413793105" y="439.04827586206903"/>
      <point x="1247.5172413793105" y="251.33448275862068" type="curve" smooth="yes"/>
      <point x="1247.5172413793105" y="9.310344827586205"/>
      <point x="1157.306896551724" y="-84.82068965517242"/>
      <point x="922.1827586206898" y="-84.82068965517242" type="curve" smooth="yes"/>
      <point x="262.551724137931" y="-84.82068965517242" type="line" smooth="yes"/>
      <point x="181.3689655172414" y="-84.82068965517242"/>
      <point x="107.5206896551724" y="-103.03103448275861"/>
      <point x="107.5206896551724" y="-178.89310344827587" type="curve" smooth="yes"/>
      <point x="107.5206896551724" y="-230.81724137931033"/>
      <point x="143.55172413793102" y="-253.5551724137931"/>
    </contour>
  </outline>
</glyph>
<glyph name="aaMatra-tamil" format="2">
  <advance width="564.1758620689654"/>
  <unicode hex="0BBE"/>
  <note>
uni0BBE
</note>
  <anchor x="299.93103448275866" y="0.0" name="bottom"/>
  <anchor x="298.93103448275866" y="0.0" name="nukta"/>
  <anchor x="292.93103448275866" y="556.8689655172413" name="top"/>
  <anchor x="292.93103448275866" y="556.8689655172413" name="vedic"/>
  <outline>
    <contour>
      <point x="79.11379310344827" y="0.0" type="line"/>
      <point x="139.79655172413794" y="0.0" type="line"/>
      <point x="139.79655172413794" y="501.13103448275865" type="line"/>
      <point x="304.70344827586206" y="501.13103448275865" type="line"/>
      <point x="304.70344827586206" y="0.0" type="line"/>
      <point x="411.87586206896555" y="0.0" type="line"/>
      <point x="411.87586206896555" y="501.13103448275865" type="line"/>
      <point x="543.5068965517241" y="501.13103448275865" type="line"/>
      <point x="543.5068965517241" y="556.8689655172413" type="line"/>
      <point x="79.11379310344827" y="556.8689655172413" type="line"/>
    </contour>
  </outline>
</glyph>
<glyph name="iMatra-tamil" format="2">
  <advance width="191.1103448275862"/>
  <unicode hex="0BBF"/>
  <note>
uni0BBF
</note>
  <anchor x="-117.62068965517241" y="826.6034482758621" name="top"/>
  <outline>
    <contour>
      <point x="54.46551724137931" y="0.0" type="line"/>
      <point x="114.1344827586207" y="0.0" type="line"/>
      <point x="114.1344827586207" y="566.6862068965518" type="line" smooth="yes"/>
      <point x="114.1344827586207" y="737.0172413793103"/>
      <point x="19.731034482758627" y="826.6034482758621"/>
      <point x="-117.62068965517241" y="826.6034482758621" type="curve" smooth="yes"/>
      <point x="-235.40000000000003" y="826.6034482758621"/>
      <point x="-308.8965517241379" y="750.8103448275862"/>
      <point x="-308.8965517241379" y="649.7827586206897" type="curve" smooth="yes"/>
      <point x="-308.8965517241379" y="559.1551724137931"/>
      <point x="-253.95172413793105" y="502.7586206896552"/>
      <point x="-165.49655172413796" y="502.7586206896552" type="curve" smooth="yes"/>
      <point x="-161.13103448275862" y="502.7586206896552" type="line"/>
      <point x="-161.13103448275862" y="556.8689655172413" type="line"/>
      <point x="-165.49655172413796" y="556.8689655172413" type="line" smooth="yes"/>
      <point x="-209.82068965517243" y="556.8689655172413"/>
      <point x="-242.4689655172414" y="583.5620689655173"/>
      <point x="-242.4689655172414" y="632.8275862068965" type="curve" smooth="yes"/>
      <point x="-242.4689655172414" y="694.248275862069"/>
      <point x="-193.1551724137931" y="730.6689655172414"/>
      <point x="-120.80000000000001" y="730.6689655172414" type="curve" smooth="yes"/>
      <point x="-15.810344827586206" y="730.6689655172414"/>
      <point x="54.46551724137931" y="672.5896551724137"/>
      <point x="54.46551724137931" y="534.6999999999999" type="curve" smooth="yes"/>
    </contour>
  </outline>
</glyph>
<glyph name="iiMatra-tamil" format="2">
  <unicode hex="0BC0"/>
  <note>
uni0BC0
</note>
  <anchor x="0.0" y="556.8689655172413" name="_imatra"/>
  <anchor x="3.2758620689655182" y="888.4551724137931" name="top"/>
  <outline>
    <contour>
      <point x="-24.900000000000002" y="505.13793103448273" type="curve" smooth="yes"/>
      <point x="0.0" y="505.13793103448273" type="line"/>
      <point x="0.0" y="556.8689655172413" type="line"/>
      <point x="-22.606896551724137" y="556.8689655172413" type="line" smooth="yes"/>
      <point x="-88.80344827586207" y="556.8689655172413"/>
      <point x="-132.45517241379312" y="606.0413793103448"/>
      <point x="-132.45517241379312" y="686.5655172413793" type="curve" smooth="yes"/>
      <point x="-132.45517241379312" y="773.2"/>
      <point x="-91.81379310344828" y="832.2206896551724"/>
      <point x="-3.8517241379310345" y="832.2206896551724" type="curve" smooth="yes"/>
      <point x="56.32068965517241" y="832.2206896551724"/>
      <point x="93.06551724137933" y="795.8344827586207"/>
      <point x="93.06551724137933" y="735.048275862069" type="curve" smooth="yes"/>
      <point x="93.06551724137933" y="690.8758620689656"/>
      <point x="69.43103448275862" y="662.7862068965518"/>
      <point x="33.851724137931036" y="662.7862068965518" type="curve" smooth="yes"/>
      <point x="-35.08620689655172" y="662.7862068965518"/>
      <point x="-48.46551724137931" y="761.7379310344827"/>
      <point x="-8.572413793103449" y="855.3034482758621" type="curve"/>
      <point x="-52.4448275862069" y="859.3034482758621" type="line"/>
      <point x="-113.66896551724138" y="733.9379310344827"/>
      <point x="-73.73448275862069" y="603.1310344827587"/>
      <point x="49.10689655172415" y="603.1310344827587" type="curve" smooth="yes"/>
      <point x="127.34137931034483" y="603.1310344827587"/>
      <point x="179.21034482758623" y="659.6931034482759"/>
      <point x="179.21034482758623" y="730.8793103448277" type="curve" smooth="yes"/>
      <point x="179.21034482758623" y="827.6344827586207"/>
      <point x="111.33103448275861" y="888.4551724137931"/>
      <point x="3.2758620689655182" y="888.4551724137931" type="curve" smooth="yes"/>
      <point x="-115.62413793103448" y="888.4551724137931"/>
      <point x="-190.22068965517244" y="806.2655172413794"/>
      <point x="-190.22068965517244" y="688.2827586206896" type="curve" smooth="yes"/>
      <point x="-190.22068965517244" y="577.0206896551724"/>
      <point x="-123.53793103448275" y="505.13793103448273"/>
    </contour>
  </outline>
</glyph>
<glyph name="uMatra-tamil" format="2">
  <advance width="462.0482758620689"/>
  <unicode hex="0BC1"/>
  <note>
uni0BC1
</note>
  <anchor x="186.1206896551724" y="556.8689655172413" name="top"/>
  <outline>
    <contour>
      <point x="276.07241379310346" y="216.37241379310345" type="curve" smooth="yes"/>
      <point x="364.3103448275862" y="216.37241379310345"/>
      <point x="439.56896551724134" y="268.56206896551726"/>
      <point x="439.56896551724134" y="378.76206896551724" type="curve" smooth="yes"/>
      <point x="439.56896551724134" y="556.8689655172413" type="line"/>
      <point x="-225.46206896551723" y="556.8689655172413" type="line"/>
      <point x="-182.6" y="501.13103448275865" type="line"/>
      <point x="332.4931034482758" y="501.13103448275865" type="line"/>
      <point x="332.4931034482758" y="369.20344827586206" type="line" smooth="yes"/>
      <point x="332.4931034482758" y="310.60689655172416"/>
      <point x="302.70000000000005" y="277.2172413793104"/>
      <point x="256.83793103448284" y="277.2172413793104" type="curve" smooth="yes"/>
      <point x="206.3413793103448" y="277.2172413793104"/>
      <point x="182.85172413793106" y="309.0448275862069"/>
      <point x="182.85172413793106" y="380.6137931034483" type="curve" smooth="yes"/>
      <point x="182.85172413793106" y="525.0689655172414" type="line"/>
      <point x="123.81724137931035" y="525.0689655172414" type="line"/>
      <point x="123.81724137931035" y="385.84137931034485" type="line" smooth="yes"/>
      <point x="123.81724137931035" y="271.51034482758615"/>
      <point x="183.78275862068966" y="216.37241379310345"/>
    </contour>
  </outline>
</glyph>
<glyph name="uuMatra-tamil" format="2">
  <advance width="757.1827586206897"/>
  <unicode hex="0BC2"/>
  <note>
uni0BC2
</note>
  <anchor x="388.0068965517242" y="781.5172413793103" name="top"/>
  <outline>
    <contour>
      <point x="326.12413793103445" y="1.6000000000000005" type="curve" smooth="yes"/>
      <point x="561.9344827586207" y="1.6000000000000005"/>
      <point x="707.2206896551725" y="164.91724137931035"/>
      <point x="707.2206896551725" y="408.9862068965518" type="curve" smooth="yes"/>
      <point x="707.2206896551725" y="617.0137931034483"/>
      <point x="588.1448275862069" y="781.5172413793103"/>
      <point x="388.0068965517242" y="781.5172413793103" type="curve" smooth="yes"/>
      <point x="202.61379310344824" y="781.5172413793103"/>
      <point x="127.98620689655174" y="649.5"/>
      <point x="127.98620689655174" y="526.2034482758621" type="curve" smooth="yes"/>
      <point x="127.98620689655174" y="389.09999999999997" type="line" smooth="yes"/>
      <point x="127.98620689655174" y="272.8137931034483"/>
      <point x="188.5206896551724" y="216.37241379310345"/>
      <point x="282.54827586206903" y="216.37241379310345" type="curve" smooth="yes"/>
      <point x="369.3172413793103" y="216.37241379310345"/>
      <point x="443.4379310344827" y="268.8827586206897"/>
      <point x="443.4379310344827" y="378.76206896551724" type="curve" smooth="yes"/>
      <point x="443.4379310344827" y="556.8689655172413" type="line"/>
      <point x="-225.0448275862069" y="556.8689655172413" type="line"/>
      <point x="-185.1" y="501.13103448275865" type="line"/>
      <point x="336.5793103448276" y="501.13103448275865" type="line"/>
      <point x="336.5793103448276" y="369.20344827586206" type="line" smooth="yes"/>
      <point x="336.5793103448276" y="310.60689655172416"/>
      <point x="306.08620689655174" y="277.2172413793104"/>
      <point x="260.92413793103447" y="277.2172413793104" type="curve" smooth="yes"/>
      <point x="209.99310344827586" y="277.2172413793104"/>
      <point x="186.93793103448277" y="311.0"/>
      <point x="186.93793103448277" y="383.8724137931035" type="curve" smooth="yes"/>
      <point x="186.93793103448277" y="526.2034482758621" type="line" smooth="yes"/>
      <point x="186.93793103448277" y="628.851724137931"/>
      <point x="247.10344827586204" y="723.8827586206896"/>
      <point x="369.42413793103447" y="723.8827586206896" type="curve" smooth="yes"/>
      <point x="538.6482758620691" y="723.8827586206896"/>
      <point x="597.3379310344827" y="574.3862068965517"/>
      <point x="597.3379310344827" y="421.99310344827586" type="curve" smooth="yes"/>
      <point x="597.3379310344827" y="208.6862068965517"/>
      <point x="507.6103448275862" y="59.5448275862069"/>
      <point x="321.58620689655174" y="59.5448275862069" type="curve" smooth="yes"/>
      <point x="217.19310344827588" y="59.5448275862069"/>
      <point x="139.89310344827587" y="98.73793103448276"/>
      <point x="74.23793103448276" y="195.09310344827585" type="curve"/>
      <point x="29.834482758620695" y="160.6896551724138" type="line"/>
      <point x="100.75172413793105" y="60.7103448275862"/>
      <point x="190.4241379310345" y="1.6000000000000005"/>
    </contour>
  </outline>
</glyph>
<glyph name="eMatra-tamil" format="2">
  <advance width="726.1137931034483"/>
  <unicode hex="0BC6"/>
  <note>
uni0BC6
</note>
  <outline>
    <contour>
      <point x="287.9068965517242" y="-4.782758620689655" type="curve" smooth="yes"/>
      <point x="386.22068965517246" y="-4.782758620689655"/>
      <point x="447.0620689655173" y="59.141379310344824"/>
      <point x="447.0620689655173" y="156.25862068965517" type="curve" smooth="yes"/>
      <point x="447.0620689655173" y="251.22413793103448"/>
      <point x="394.13793103448273" y="313.5137931034483"/>
      <point x="309.07931034482755" y="313.5137931034483" type="curve" smooth="yes"/>
      <point x="214.47241379310344" y="313.5137931034483"/>
      <point x="153.3344827586207" y="223.18965517241378"/>
      <point x="150.3137931034483" y="111.67241379310344" type="curve"/>
      <point x="183.35862068965517" y="85.84137931034482" type="line"/>
      <point x="184.29310344827587" y="176.71724137931034"/>
      <point x="222.25172413793106" y="241.24827586206897"/>
      <point x="276.0931034482759" y="241.24827586206897" type="curve" smooth="yes"/>
      <point x="326.4862068965517" y="241.24827586206897"/>
      <point x="348.18620689655177" y="197.2586206896552"/>
      <point x="348.18620689655177" y="149.38620689655173" type="curve" smooth="yes"/>
      <point x="348.18620689655177" y="94.25172413793103"/>
      <point x="323.7931034482759" y="52.69655172413793"/>
      <point x="268.83448275862065" y="52.69655172413793" type="curve" smooth="yes"/>
      <point x="162.33103448275864" y="52.69655172413793"/>
      <point x="110.12413793103448" y="206.5"/>
      <point x="110.12413793103448" y="382.3" type="curve" smooth="yes"/>
      <point x="110.12413793103448" y="597.2241379310344"/>
      <point x="212.42068965517242" y="726.6620689655173"/>
      <point x="374.5896551724138" y="726.6620689655173" type="curve" smooth="yes"/>
      <point x="517.7344827586207" y="726.6620689655173"/>
      <point x="589.6620689655172" y="646.6689655172414"/>
      <point x="589.6620689655172" y="452.9758620689655" type="curve" smooth="yes"/>
      <point x="589.6620689655172" y="0.0" type="line"/>
      <point x="649.1379310344828" y="0.0" type="line"/>
      <point x="649.1379310344828" y="472.07586206896553" type="line" smooth="yes"/>
      <point x="649.1379310344828" y="711.551724137931"/>
      <point x="555.3551724137931" y="825.1034482758621"/>
      <point x="378.0" y="825.1034482758621" type="curve" smooth="yes"/>
      <point x="174.41379310344828" y="825.1034482758621"/>
      <point x="52.86896551724138" y="641.4344827586207"/>
      <point x="52.86896551724138" y="387.8068965517241" type="curve" smooth="yes"/>
      <point x="52.86896551724138" y="182.21724137931037"/>
      <point x="130.46206896551723" y="-4.782758620689655"/>
    </contour>
  </outline>
</glyph>
<glyph name="eeMatra-tamil" format="2">
  <advance width="548.9896551724138"/>
  <unicode hex="0BC7"/>
  <note>
uni0BC7
</note>
  <outline>
    <contour>
      <point x="336.04482758620696" y="-5.0" type="curve" smooth="yes"/>
      <point x="433.47241379310344" y="-5.0"/>
      <point x="502.04137931034484" y="53.4448275862069"/>
      <point x="502.04137931034484" y="156.25862068965517" type="curve" smooth="yes"/>
      <point x="502.04137931034484" y="252.52758620689656"/>
      <point x="448.4896551724138" y="313.94827586206895"/>
      <point x="363.94827586206895" y="313.94827586206895" type="curve" smooth="yes"/>
      <point x="268.2448275862069" y="313.94827586206895"/>
      <point x="208.30689655172412" y="220.75862068965517"/>
      <point x="204.47241379310344" y="96.26551724137931" type="curve"/>
      <point x="241.04137931034484" y="71.49655172413793" type="line"/>
      <point x="243.01724137931035" y="175.24137931034483"/>
      <point x="278.53448275862075" y="241.68275862068964"/>
      <point x="331.4344827586207" y="241.68275862068964" type="curve" smooth="yes"/>
      <point x="381.2482758620689" y="241.68275862068964"/>
      <point x="402.65862068965515" y="197.69310344827588"/>
      <point x="402.65862068965515" y="149.38620689655173" type="curve" smooth="yes"/>
      <point x="402.65862068965515" y="88.91379310344827"/>
      <point x="370.56551724137927" y="52.69655172413793"/>
      <point x="316.2689655172414" y="52.69655172413793" type="curve" smooth="yes"/>
      <point x="221.7896551724138" y="52.69655172413793"/>
      <point x="110.31724137931035" y="202.4448275862069"/>
      <point x="110.31724137931035" y="409.54482758620685" type="curve" smooth="yes"/>
      <point x="110.31724137931035" y="616.0793103448276"/>
      <point x="221.7896551724138" y="767.8310344827586"/>
      <point x="316.2689655172414" y="767.8310344827586" type="curve" smooth="yes"/>
      <point x="370.56551724137927" y="767.8310344827586"/>
      <point x="402.65862068965515" y="731.1068965517242"/>
      <point x="402.65862068965515" y="670.5241379310345" type="curve" smooth="yes"/>
      <point x="402.65862068965515" y="622.3275862068965"/>
      <point x="381.2482758620689" y="578.8448275862069"/>
      <point x="331.4344827586207" y="578.8448275862069" type="curve" smooth="yes"/>
      <point x="278.53448275862075" y="578.8448275862069"/>
      <point x="243.01724137931035" y="644.8034482758621"/>
      <point x="241.04137931034484" y="749.3068965517242" type="curve"/>
      <point x="204.47241379310344" y="724.5620689655173" type="line"/>
      <point x="208.30689655172412" y="599.851724137931"/>
      <point x="268.2448275862069" y="506.28965517241386"/>
      <point x="363.94827586206895" y="506.28965517241386" type="curve" smooth="yes"/>
      <point x="448.4896551724138" y="506.28965517241386"/>
      <point x="502.04137931034484" y="567.8896551724138"/>
      <point x="502.04137931034484" y="664.2689655172413" type="curve" smooth="yes"/>
      <point x="502.04137931034484" y="766.5758620689655"/>
      <point x="433.47241379310344" y="825.0206896551725"/>
      <point x="336.04482758620696" y="825.0206896551725" type="curve" smooth="yes"/>
      <point x="185.99655172413793" y="825.0206896551725"/>
      <point x="53.06206896551724" y="647.0275862068967"/>
      <point x="53.06206896551724" y="410.75172413793103" type="curve" smooth="yes"/>
      <point x="53.06206896551724" y="174.20000000000002"/>
      <point x="185.99655172413793" y="-5.0"/>
    </contour>
  </outline>
</glyph>
